<?xml version="1.0" encoding="UTF-8" standalone="no"?>
<!DOCTYPE svg PUBLIC "-//W3C//DTD SVG 1.1//EN" "http://www.w3.org/Graphics/SVG/1.1/DTD/svg11.dtd">
<svg width="100%" height="100%" viewBox="0 0 512 512" version="1.1" xmlns="http://www.w3.org/2000/svg" xmlns:xlink="http://www.w3.org/1999/xlink" xml:space="preserve" xmlns:serif="http://www.serif.com/" style="fill-rule:evenodd;clip-rule:evenodd;stroke-linejoin:round;stroke-miterlimit:2;">
    <path d="M512,0L512,512L0,512L0,0L512,0ZM240.45,347.541C219.755,347.54 206.581,334.916 206.581,318.878C206.581,250.308 385.868,236.598 385.868,163.77C385.868,119.344 334.7,100.201 269.39,100.201C229.655,100.201 184.73,107.6 143.013,120.827L143.013,207.694C204.494,162.665 272.805,143.385 316.816,143.385C344.478,143.385 363.259,151.145 363.259,165.063C363.259,222.371 115.972,213.282 115.972,337.124C115.972,384.602 148.428,411.799 194.095,411.799C263.165,411.799 315.402,344.299 354.481,262.019L362.397,264.864C341.805,315.153 299.226,370.288 290.913,405.728L379.833,405.728L379.833,222.371L359.31,222.371C329.491,287.508 285.809,347.539 240.452,347.541L240.45,347.541Z" style="fill:white;"/>
</svg>
