<?xml version="1.0" encoding="UTF-8" standalone="no"?>
<!DOCTYPE svg PUBLIC "-//W3C//DTD SVG 1.1//EN" "http://www.w3.org/Graphics/SVG/1.1/DTD/svg11.dtd">
<svg width="100%" height="100%" viewBox="0 0 240 240" version="1.1" xmlns="http://www.w3.org/2000/svg" xmlns:xlink="http://www.w3.org/1999/xlink" xml:space="preserve" xmlns:serif="http://www.serif.com/" style="fill-rule:evenodd;clip-rule:evenodd;stroke-linejoin:round;stroke-miterlimit:2;">
    <rect x="0" y="0" width="240" height="240" style="fill:rgb(0,0,91);"/>
    <g transform="matrix(1,0,0,1,2.454778,6.2925)">
        <path d="M187,131L155.3,131C155.7,134.1 156.7,137.2 158.4,139.9C160.2,142.6 162.7,144.7 165.7,145.9C169.7,147.6 174.1,148.5 178.5,148.4C182,148.3 185.5,148 188.9,147.3C192,146.9 195,146.1 197.8,145C198.3,144.6 198.6,144.8 198.6,145.8L198.6,161.1C198.6,161.5 198.5,161.9 198.4,162.3C198.2,162.6 198,162.8 197.7,163C194.5,164.4 191.2,165.4 187.7,166C183,166.9 178.3,167.3 173.5,167.2C165.9,167.2 159.5,166 154.3,163.7C149.4,161.6 145.1,158.3 141.7,154.2C138.5,150.3 136.2,145.9 134.8,141.1C133.4,136.4 132.7,131.5 132.7,126.5C132.7,121.1 133.5,115.8 135.2,110.6C136.8,105.6 139.3,101 142.7,96.9C146,92.9 150.1,89.7 154.8,87.4C159.5,85.1 165.1,84.3 171.5,84.3C176.8,84.2 182.1,85.2 187,87.4C191.1,89.2 194.7,91.9 197.5,95.4C200.1,98.8 202.2,102.6 203.5,106.8C204.8,110.8 205.4,114.9 205.4,119C205.4,121.4 205.3,123.5 205.2,125.4C205,127.3 204.9,128.7 204.8,129.6C204.7,130.3 204.1,130.9 203.4,130.9C202.8,130.9 201.7,131 200.1,131.1C198.5,131.3 196.6,131.4 194.3,131.4C192,131.4 189.6,131 187,131ZM155.3,116.4L176.4,116.4C179,116.4 180.9,116.4 182.1,116.3C182.9,116.2 183.7,116 184.4,115.5L184.4,114.5C184.4,113.2 184.2,112 183.8,110.8C182,105.2 176.7,101.4 170.8,101.6C165.3,101.3 160.1,104.2 157.5,109.2C156.3,111.5 155.6,113.9 155.3,116.4Z" style="fill:rgb(153,153,255);fill-rule:nonzero;"/>
    </g>
    <g transform="matrix(1,0,0,1,2.454778,6.2925)">
        <path d="M96.4,140L59.2,140L51.6,163.6C51.4,164.5 50.6,165.1 49.7,165L30.9,165C29.8,165 29.5,164.4 29.8,163.2L62,70.9C62.3,69.9 62.6,69 63,67.8C63.4,65.7 63.6,63.5 63.6,61.3C63.5,60.8 63.9,60.3 64.4,60.2L90.3,60.2C91,60.2 91.5,60.5 91.6,61L128.1,163C128.4,164.1 128.1,164.6 127.1,164.6L106.2,164.6C105.5,164.7 104.8,164.2 104.6,163.5L96.4,139.5L96.4,140ZM65,120.1L90.4,120.1C89.8,118 89,115.5 88.1,112.9C87.2,110.2 86.3,107.3 85.4,104.3C84.4,101.2 83.5,98.2 82.5,95.1C81.5,92 80.6,89.1 79.8,86.2C79,83.4 78.3,80.8 77.6,78.4L77.4,78.4C76.5,82.7 75.4,87 74,91.3C72.5,96.1 71,101.1 69.4,106.1C68.1,111.2 66.5,115.9 65,120.1Z" style="fill:rgb(153,153,255);fill-rule:nonzero;"/>
    </g>
</svg>
