<?xml version="1.0" encoding="UTF-8" standalone="no"?>
<!DOCTYPE svg PUBLIC "-//W3C//DTD SVG 1.1//EN" "http://www.w3.org/Graphics/SVG/1.1/DTD/svg11.dtd">
<svg width="100%" height="100%" viewBox="0 0 240 240" version="1.1" xmlns="http://www.w3.org/2000/svg" xmlns:xlink="http://www.w3.org/1999/xlink" xml:space="preserve" xmlns:serif="http://www.serif.com/" style="fill-rule:evenodd;clip-rule:evenodd;stroke-linejoin:round;stroke-miterlimit:2;">
    <path d="M240,0L240,240L0,240L0,0L240,0ZM189.455,137.293C192.055,137.293 194.455,137.693 196.755,137.693C199.055,137.693 200.955,137.593 202.555,137.393C204.155,137.293 205.255,137.193 205.855,137.193C206.555,137.193 207.155,136.593 207.255,135.893C207.355,134.993 207.455,133.593 207.655,131.693C207.755,129.793 207.855,127.693 207.855,125.293C207.855,121.193 207.255,117.093 205.955,113.093C204.655,108.893 202.555,105.093 199.955,101.693C197.155,98.193 193.555,95.493 189.455,93.693C184.555,91.493 179.255,90.493 173.955,90.593C167.555,90.593 161.955,91.393 157.255,93.693C152.555,95.993 148.455,99.193 145.155,103.193C141.755,107.293 139.255,111.893 137.655,116.893C135.955,122.093 135.155,127.393 135.155,132.793C135.155,137.793 135.855,142.693 137.255,147.393C138.655,152.193 140.955,156.593 144.155,160.493C147.555,164.593 151.855,167.893 156.755,169.993C161.955,172.293 168.355,173.493 175.955,173.493C180.755,173.593 185.455,173.193 190.155,172.293C193.655,171.693 196.955,170.693 200.155,169.293C200.455,169.093 200.655,168.893 200.855,168.593C200.955,168.193 201.055,167.793 201.055,167.393L201.055,152.093C201.055,151.093 200.755,150.893 200.255,151.293C197.455,152.393 194.455,153.193 191.355,153.593C187.955,154.293 184.455,154.593 180.955,154.693C176.555,154.793 172.155,153.893 168.155,152.193C165.155,150.993 162.655,148.893 160.855,146.193C159.155,143.493 158.155,140.393 157.755,137.293L189.455,137.293ZM157.755,122.693C158.055,120.193 158.755,117.793 159.955,115.493C162.555,110.493 167.755,107.593 173.255,107.893C179.155,107.693 184.455,111.493 186.255,117.093C186.655,118.293 186.855,119.493 186.855,120.793L186.855,121.793C186.155,122.293 185.355,122.493 184.555,122.593C183.355,122.693 181.455,122.693 178.855,122.693L157.755,122.693ZM98.855,146.293L98.855,145.793L107.055,169.793C107.255,170.493 107.955,170.993 108.655,170.893L129.555,170.893C130.555,170.893 130.855,170.393 130.555,169.293L94.055,67.293C93.955,66.793 93.455,66.493 92.755,66.493L66.855,66.493C66.355,66.593 65.955,67.093 66.055,67.593C66.055,69.793 65.855,71.993 65.455,74.093C65.055,75.293 64.755,76.193 64.455,77.193L32.255,169.493C31.955,170.693 32.255,171.293 33.355,171.293L52.155,171.293C53.055,171.393 53.855,170.793 54.055,169.893L61.655,146.293L98.855,146.293ZM67.455,126.393C68.955,122.193 70.555,117.493 71.855,112.393C73.455,107.393 74.955,102.393 76.455,97.593C77.855,93.293 78.955,88.993 79.855,84.693L80.055,84.693C80.755,87.093 81.455,89.693 82.255,92.493C83.055,95.393 83.955,98.293 84.955,101.393C85.955,104.493 86.855,107.493 87.855,110.593C88.755,113.593 89.655,116.493 90.555,119.193C91.455,121.793 92.255,124.293 92.855,126.393L67.455,126.393Z" style="fill:white;"/>
</svg>
