<?xml version="1.0" encoding="UTF-8" standalone="no"?>
<!DOCTYPE svg PUBLIC "-//W3C//DTD SVG 1.1//EN" "http://www.w3.org/Graphics/SVG/1.1/DTD/svg11.dtd">
<svg width="100%" height="100%" viewBox="0 0 1200 1200" version="1.1" xmlns="http://www.w3.org/2000/svg" xmlns:xlink="http://www.w3.org/1999/xlink" xml:space="preserve" xmlns:serif="http://www.serif.com/" style="fill-rule:evenodd;clip-rule:evenodd;stroke-linejoin:round;stroke-miterlimit:2;">
    <g id="Background" transform="matrix(1.361217,0,0,1.361217,-97.006693,-96.888738)">
        <path d="M291.473,895.552C290.606,894.592 290.101,894.033 283.161,881.687C282.83,881.098 203.924,743.692 203.711,743.371C202.956,742.231 175.04,693.174 161.722,670.377C156.462,661.372 156.672,661.268 96.791,557.337C85.974,538.563 83.319,533.761 82.177,531.695C81.17,529.874 81.008,529.994 79.993,528.196C71.405,512.977 71.066,512.951 71.316,511.464C71.531,510.186 274.981,156.917 278.441,150.464C279.101,149.232 279.203,149.316 287.205,135.341C290.646,129.332 290.242,128.128 294.493,127.959C300.009,127.74 300.009,128.026 363.5,128.026L727.499,128.026C731.493,128.019 732.228,127.212 734.325,130.601C734.98,131.66 740.407,141.473 751.085,159.753C756.851,169.626 765.836,185.477 767.107,187.72C772.475,197.19 933.498,477.218 935.306,480.607C935.752,481.443 941.418,491.284 941.952,492.211C942.528,493.212 947.492,501.832 949.237,504.669C953.086,510.926 952.905,511.913 952.779,512.596C952.597,513.586 952.484,514.202 946.722,523.628C945.806,525.127 945.888,525.153 935.769,542.658C881.511,637.038 827.253,731.418 772.995,825.797C770.888,829.46 771.088,829.546 769.011,833.209C765.533,839.347 760.92,847.134 760.206,848.339C759.541,849.462 747.538,870.619 743.851,876.707C743.275,877.659 741.856,880.672 738.731,885.643C733.725,893.605 734.976,895.913 729.504,896.039C729.315,896.043 729.331,896.043 307.5,896.043C293.813,896.043 293.8,896.083 291.473,895.552Z" style="fill:rgb(14,71,161);"/>
        <g>
            <clipPath id="_clip1">
                <path d="M291.473,895.552C290.606,894.592 290.101,894.033 283.161,881.687C282.83,881.098 203.924,743.692 203.711,743.371C202.956,742.231 175.04,693.174 161.722,670.377C156.462,661.372 156.672,661.268 96.791,557.337C85.974,538.563 83.319,533.761 82.177,531.695C81.17,529.874 81.008,529.994 79.993,528.196C71.405,512.977 71.066,512.951 71.316,511.464C71.531,510.186 274.981,156.917 278.441,150.464C279.101,149.232 279.203,149.316 287.205,135.341C290.646,129.332 290.242,128.128 294.493,127.959C300.009,127.74 300.009,128.026 363.5,128.026L727.499,128.026C731.493,128.019 732.228,127.212 734.325,130.601C734.98,131.66 740.407,141.473 751.085,159.753C756.851,169.626 765.836,185.477 767.107,187.72C772.475,197.19 933.498,477.218 935.306,480.607C935.752,481.443 941.418,491.284 941.952,492.211C942.528,493.212 947.492,501.832 949.237,504.669C953.086,510.926 952.905,511.913 952.779,512.596C952.597,513.586 952.484,514.202 946.722,523.628C945.806,525.127 945.888,525.153 935.769,542.658C881.511,637.038 827.253,731.418 772.995,825.797C770.888,829.46 771.088,829.546 769.011,833.209C765.533,839.347 760.92,847.134 760.206,848.339C759.541,849.462 747.538,870.619 743.851,876.707C743.275,877.659 741.856,880.672 738.731,885.643C733.725,893.605 734.976,895.913 729.504,896.039C729.315,896.043 729.331,896.043 307.5,896.043C293.813,896.043 293.8,896.083 291.473,895.552Z"/>
            </clipPath>
            <g clip-path="url(#_clip1)">
                <g transform="matrix(-0.891243,-1.543679,0.77877,-0.449623,1274.331872,2100.714148)">
                    <path d="M986.302,149.856L1116.596,600L856.007,600L986.302,149.856Z" style="fill:rgb(57,73,171);"/>
                </g>
                <g transform="matrix(1.782487,0,0,0.899246,-1244.930168,374.783908)">
                    <path d="M986.302,149.856L1247.478,144.529L1116.596,600L856.007,600L986.302,149.856Z" style="fill:rgb(92,107,192);"/>
                </g>
            </g>
        </g>
        <path d="M648.712,511.474C649.029,529.325 648.83,588.287 648.862,619.502C648.865,622.651 649.636,623.918 646.479,624.146C646.095,624.174 624.836,624.13 621.504,624.157C616.877,624.195 618.098,622.11 618.092,617.498C618.086,613.232 618.11,522.567 618.081,512.462C618.165,496.984 618.023,401.175 618.162,400.429C618.533,398.432 619.359,398.773 630.5,398.767C656.906,398.753 656.905,398.839 657.271,398.997C658.732,399.627 658.104,400.232 676.246,456.581C677.014,458.966 676.789,459.001 685.584,486.473C686.116,488.137 688.611,495.93 691.759,507.421C692.157,508.876 693.134,511.607 694.204,515.591C696.916,525.289 696.98,525.441 697.489,525.53C699.205,525.829 699.395,522.78 700.798,517.579C706.261,498.627 705.748,497.888 716.188,466.398C719.624,456.033 729.343,425.088 730.472,421.491C731.003,419.799 736.7,401.661 737.267,400.392C738.13,398.46 738.738,398.767 753.5,398.767C776.061,398.767 776.174,398.716 776.713,399.21C777.599,400.022 777.497,400.232 777.497,423.5L777.497,467.5C777.497,509.294 777.485,509.276 777.511,512.499C777.408,527.936 777.576,621.67 777.439,622.489C777.091,624.564 776.175,624.138 765.502,624.153C764.142,624.155 748.982,624.177 748.513,624.161C745.56,624.061 746.092,622.713 746.118,613.499C746.32,540.185 745.188,516.168 748.087,479.475C748.385,475.703 748.694,465.846 750.953,443.528C751.243,440.663 752.39,436.44 750.514,436.584C748.779,436.717 750.226,437.959 744.222,457.41C742.758,462.154 743.109,462.229 736.69,483.557C735.326,488.087 735.212,488.034 717.02,539.33C714.688,545.905 714.564,545.831 712.289,552.426C708.417,563.652 708.252,563.718 707.309,564.094C706.344,564.478 687.619,564.558 686.725,564.114C685.701,563.604 685.991,563.276 670.243,518.59C660.478,490.881 659.952,491.058 654.004,469.637C651.468,460.502 651.195,460.619 648.716,451.441C645.742,440.427 645.258,435.845 643.625,436.713C641.852,437.656 646.228,443.87 648.712,511.474Z" style="fill:rgb(253,253,252);"/>
        <path d="M366.233,571.581C363.179,561.547 363.53,559.832 360.492,559.69C360.242,559.678 286.864,559.675 286.508,559.691C283.366,559.835 283.954,561.114 280.769,571.577C265.104,623.048 265.122,623.059 265.025,623.208C264.232,624.42 263.831,624.148 234.5,624.175C231.243,624.178 229.456,624.586 230.429,621.481C232.626,614.472 237.055,601.298 237.644,599.547C251.87,557.231 301.38,406.114 303.58,400.536C304.407,398.44 305.366,398.749 314.498,398.761C343.049,398.798 343.357,398.496 344.339,399.622C344.927,400.296 363.051,455.745 363.624,457.46C386.958,527.275 386.635,527.376 388.683,533.44C399.578,565.696 399.27,565.795 400.293,568.572C401.945,573.057 417.572,620.793 417.76,621.431C418.822,625.028 415.405,624.171 414.5,624.169C385.18,624.1 382.818,624.588 381.809,623.271C380.967,622.172 369.102,580.508 366.233,571.581ZM326.208,433.578C325.536,430.947 325.512,430.988 324.869,428.335C324.822,428.139 324.249,425.776 322.839,426.855C322.581,427.052 320.962,433.889 314.726,456.565C307.62,482.402 307.321,482.314 306.731,484.568C305.265,490.171 294.78,524.693 294.275,526.437C293.215,530.096 291.68,532.053 295.514,532.039C315.027,531.972 315.005,531.95 334.5,531.95C352.695,531.95 353.864,532.408 354.053,530.506C354.159,529.428 336.736,474.282 326.208,433.578Z" style="fill:rgb(252,253,252);"/>
        <path d="M565.458,513.571C569.392,516.398 594.048,531.406 591.802,566.521C589.72,599.061 563.34,622.537 526.456,627.125C487.996,631.909 463.422,618.996 453.716,614.248C451.605,613.095 439.002,606.21 429.267,596.725C427.021,594.538 429.381,593.105 431.036,591.087C438.409,582.104 444.548,575.093 445.747,573.723C448.554,570.518 449.389,573.025 451.898,575.019C462.406,583.372 466.316,585.146 468.542,586.397C499.995,603.856 536.166,600.511 549.834,584.782C560.256,572.789 556.723,557.033 551.963,550.19C543.623,538.199 529.153,534.587 517.68,529.124C516.751,528.681 512.838,526.818 505.853,524.067C490.335,515.888 467.85,511.108 451.322,492.66C433.169,472.398 433.733,441.729 449.835,421.757C454.196,416.347 471.513,395.524 512.501,394.638C548.099,393.868 572.109,412.388 576.369,415.674C582.028,420.039 583.725,422.168 583.784,422.392C584.275,424.233 583.332,424.055 578.068,431.162C577.599,431.795 577.53,431.725 571.821,438.764C567.353,444.272 566.912,444.924 565.348,443.767C556.363,437.116 541.836,424.329 509.514,424.943C495.704,425.205 472.538,431.738 472.81,454.493C473.069,476.247 496.491,481.72 515.573,490.334C517.018,490.986 520.292,492.155 528.328,495.897C529.3,496.35 529.378,496.146 540.594,501.297C548.34,504.854 548.781,503.879 563.59,512.338C563.745,512.426 564.398,512.799 565.458,513.571Z" style="fill:rgb(252,253,252);"/>
    </g>
</svg>
