<?xml version="1.0" encoding="UTF-8" standalone="no"?>
<!DOCTYPE svg PUBLIC "-//W3C//DTD SVG 1.1//EN" "http://www.w3.org/Graphics/SVG/1.1/DTD/svg11.dtd">
<svg width="100%" height="100%" viewBox="0 0 1200 1200" version="1.1" xmlns="http://www.w3.org/2000/svg" xmlns:xlink="http://www.w3.org/1999/xlink" xml:space="preserve" xmlns:serif="http://www.serif.com/" style="fill-rule:evenodd;clip-rule:evenodd;stroke-linejoin:round;stroke-miterlimit:2;">
    <g transform="matrix(1.361217,0,0,1.361217,-97.006693,-96.888738)">
        <g id="Plain">
            <path d="M291.473,895.552C290.606,894.592 290.101,894.033 283.161,881.687C282.83,881.098 203.924,743.692 203.711,743.371C202.956,742.231 175.04,693.174 161.722,670.377C156.462,661.372 156.672,661.268 96.791,557.337C85.974,538.563 83.319,533.761 82.177,531.695C81.17,529.874 81.008,529.994 79.993,528.196C71.405,512.977 71.066,512.951 71.316,511.464C71.531,510.186 274.981,156.917 278.441,150.464C279.101,149.232 279.203,149.316 287.205,135.341C290.646,129.332 290.242,128.128 294.493,127.959C300.009,127.74 300.009,128.026 363.5,128.026L727.499,128.026C731.493,128.019 732.228,127.212 734.325,130.601C734.98,131.66 740.407,141.473 751.085,159.753C756.851,169.626 765.836,185.477 767.107,187.72C772.475,197.19 933.498,477.218 935.306,480.607C935.752,481.443 941.418,491.284 941.952,492.211C942.528,493.212 947.492,501.832 949.237,504.669C953.086,510.926 952.905,511.913 952.779,512.596C952.597,513.586 952.484,514.202 946.722,523.628C945.806,525.127 945.888,525.153 935.769,542.658L772.995,825.797C770.888,829.46 771.088,829.546 769.011,833.209C765.533,839.347 760.92,847.134 760.206,848.339C759.541,849.462 747.538,870.619 743.851,876.707C743.275,877.659 741.856,880.672 738.731,885.643C733.725,893.605 734.976,895.913 729.504,896.039C729.315,896.043 729.331,896.043 307.5,896.043C293.813,896.043 293.8,896.083 291.473,895.552ZM648.712,511.474C646.228,443.87 641.852,437.656 643.625,436.713C645.258,435.845 645.742,440.427 648.716,451.441C651.195,460.619 651.468,460.502 654.004,469.637C659.952,491.058 660.478,490.881 670.243,518.59C685.991,563.276 685.701,563.604 686.725,564.114C687.619,564.558 706.344,564.478 707.309,564.094C708.252,563.718 708.417,563.652 712.289,552.426C714.564,545.831 714.688,545.905 717.02,539.33C735.212,488.034 735.326,488.087 736.69,483.557C743.109,462.229 742.758,462.154 744.222,457.41C750.226,437.959 748.779,436.717 750.514,436.584C752.39,436.44 751.243,440.663 750.953,443.528C748.694,465.846 748.385,475.703 748.087,479.475C745.188,516.168 746.32,540.185 746.118,613.499C746.092,622.713 745.56,624.061 748.513,624.161C748.982,624.177 764.142,624.155 765.502,624.153C776.175,624.138 777.091,624.564 777.439,622.489C777.576,621.67 777.408,527.936 777.511,512.499C777.485,509.276 777.497,509.294 777.497,467.5L777.497,423.5C777.497,400.232 777.599,400.022 776.713,399.21C776.174,398.716 776.061,398.767 753.5,398.767C738.738,398.767 738.13,398.46 737.267,400.392C736.7,401.661 731.003,419.799 730.472,421.491C729.343,425.088 719.624,456.033 716.188,466.398C705.748,497.888 706.261,498.627 700.798,517.579C699.395,522.78 699.205,525.829 697.489,525.53C696.98,525.441 696.916,525.289 694.204,515.591C693.134,511.607 692.157,508.876 691.759,507.421C688.611,495.93 686.116,488.137 685.584,486.473C676.789,459.001 677.014,458.966 676.246,456.581C658.104,400.232 658.732,399.627 657.271,398.997C656.905,398.839 656.906,398.753 630.5,398.767C619.359,398.773 618.533,398.432 618.162,400.429C618.023,401.175 618.165,496.984 618.081,512.462C618.11,522.567 618.086,613.232 618.092,617.498C618.098,622.11 616.877,624.195 621.504,624.157C624.836,624.13 646.095,624.174 646.479,624.146C649.636,623.918 648.865,622.651 648.862,619.502C648.83,588.287 649.029,529.325 648.712,511.474ZM565.458,513.571C564.398,512.799 563.745,512.426 563.59,512.338C548.781,503.879 548.34,504.854 540.594,501.297C529.378,496.146 529.3,496.35 528.328,495.897C520.292,492.155 517.018,490.986 515.573,490.334C496.491,481.72 473.069,476.247 472.81,454.493C472.538,431.738 495.704,425.205 509.514,424.943C541.836,424.329 556.363,437.116 565.348,443.767C566.912,444.924 567.353,444.272 571.821,438.764C577.53,431.725 577.599,431.795 578.068,431.162C583.332,424.055 584.275,424.233 583.784,422.392C583.725,422.168 582.028,420.039 576.369,415.674C572.109,412.388 548.099,393.868 512.501,394.638C471.513,395.524 454.196,416.347 449.835,421.757C433.733,441.729 433.169,472.398 451.322,492.66C467.85,511.108 490.335,515.888 505.853,524.067C512.838,526.818 516.751,528.681 517.68,529.124C529.153,534.587 543.623,538.199 551.963,550.19C556.723,557.033 560.256,572.789 549.834,584.782C536.166,600.511 499.995,603.856 468.542,586.397C466.316,585.146 462.406,583.372 451.898,575.019C449.389,573.025 448.554,570.518 445.747,573.723C444.548,575.093 438.409,582.104 431.036,591.087C429.381,593.105 427.021,594.538 429.267,596.725C439.002,606.21 451.605,613.095 453.716,614.248C463.422,618.996 487.996,631.909 526.456,627.125C563.34,622.537 589.72,599.061 591.802,566.521C594.048,531.406 569.392,516.398 565.458,513.571ZM366.233,571.581C369.102,580.508 380.967,622.172 381.809,623.271C382.818,624.588 385.18,624.1 414.5,624.169C415.405,624.171 418.822,625.028 417.76,621.431C417.572,620.793 401.945,573.057 400.293,568.572C399.27,565.795 399.578,565.696 388.683,533.44C386.635,527.376 386.958,527.275 363.624,457.46C363.051,455.745 344.927,400.296 344.339,399.622C343.357,398.496 343.049,398.798 314.498,398.761C305.366,398.749 304.407,398.44 303.58,400.536C301.38,406.114 251.87,557.231 237.644,599.547C237.055,601.298 232.626,614.472 230.429,621.481C229.456,624.586 231.243,624.178 234.5,624.175C263.831,624.148 264.232,624.42 265.025,623.208C265.122,623.059 265.104,623.048 280.769,571.577C283.954,561.114 283.366,559.835 286.508,559.691C286.864,559.675 360.242,559.678 360.492,559.69C363.53,559.832 363.179,561.547 366.233,571.581ZM326.208,433.578C336.736,474.282 354.159,529.428 354.053,530.506C353.864,532.408 352.695,531.95 334.5,531.95C315.005,531.95 315.027,531.972 295.514,532.039C291.68,532.053 293.215,530.096 294.275,526.437C294.78,524.693 305.265,490.171 306.731,484.568C307.321,482.314 307.62,482.402 314.726,456.565C320.962,433.889 322.581,427.052 322.839,426.855C324.249,425.776 324.822,428.139 324.869,428.335C325.512,430.988 325.536,430.947 326.208,433.578Z" style="fill:white;"/>
        </g>
    </g>
</svg>
