<?xml version="1.0" encoding="UTF-8" standalone="no"?>
<!DOCTYPE svg PUBLIC "-//W3C//DTD SVG 1.1//EN" "http://www.w3.org/Graphics/SVG/1.1/DTD/svg11.dtd">
<svg width="100%" height="100%" viewBox="0 0 256 256" version="1.1" xmlns="http://www.w3.org/2000/svg" xmlns:xlink="http://www.w3.org/1999/xlink" xml:space="preserve" xmlns:serif="http://www.serif.com/" style="fill-rule:evenodd;clip-rule:evenodd;stroke-linejoin:round;stroke-miterlimit:2;">
    <g transform="matrix(4.514604,0,0,4.514604,-964.383989,1648.0137)">
        <path d="M243,-334C243.106,-335.89 244.03,-337.56 245.43,-338.74C246.8,-339.9 248.64,-340.61 250.66,-340.61C252.67,-340.61 254.51,-339.901 255.88,-338.74C257.28,-337.56 258.2,-335.89 258.31,-334C258.416,-332.06 257.635,-330.25 256.27,-328.91C254.87,-327.55 252.89,-326.69 250.66,-326.69C248.43,-326.69 246.44,-327.544 245.05,-328.91C243.68,-330.25 242.9,-332.05 243.01,-333.99L243,-334Z" style="fill:white;fill-rule:nonzero;"/>
    </g>
    <g transform="matrix(4.514604,0,0,4.514604,-964.383989,1648.0137)">
        <path d="M231,-330C231.013,-329.26 231.249,-327.82 231.603,-326.7C232.347,-324.32 233.613,-322.12 235.363,-320.19C237.163,-318.2 239.383,-316.6 241.943,-315.46C244.633,-314.27 247.553,-313.66 250.583,-313.66C253.613,-313.664 256.533,-314.284 259.223,-315.49C261.783,-316.64 264.003,-318.24 265.803,-320.24C267.563,-322.19 268.823,-324.39 269.563,-326.77C269.938,-327.97 270.175,-329.19 270.27,-330.41C270.363,-331.61 270.324,-332.82 270.153,-334.03C269.819,-336.38 269.003,-338.59 267.753,-340.59C266.613,-342.44 265.133,-344.05 263.373,-345.41L263.377,-345.413L245.677,-359.013C245.661,-359.025 245.648,-359.038 245.631,-359.049C244.471,-359.941 242.511,-359.938 241.241,-359.044C239.951,-358.14 239.801,-356.644 240.951,-355.704L240.946,-355.699L248.336,-349.689L225.836,-349.665L225.806,-349.665C223.946,-349.663 222.156,-348.445 221.806,-346.895C221.442,-345.325 222.706,-344.015 224.646,-344.015L224.643,-344.008L236.043,-344.03L215.643,-328.43C215.617,-328.411 215.589,-328.391 215.565,-328.372C213.645,-326.902 213.025,-324.452 214.235,-322.912C215.465,-321.342 218.075,-321.332 220.015,-322.903L231.115,-332.003C231.115,-332.003 230.953,-330.773 230.966,-330.043L231,-330ZM259.6,-325.89C257.31,-323.56 254.1,-322.23 250.64,-322.23C247.17,-322.224 243.96,-323.53 241.67,-325.86C240.55,-327 239.73,-328.3 239.22,-329.69C238.723,-331.06 238.53,-332.51 238.658,-333.97C238.779,-335.4 239.205,-336.77 239.888,-338C240.556,-339.21 241.478,-340.31 242.608,-341.24C244.838,-343.05 247.668,-344.04 250.628,-344.04C253.598,-344.044 256.428,-343.071 258.658,-341.26C259.788,-340.336 260.708,-339.24 261.378,-338.03C262.061,-336.8 262.488,-335.44 262.608,-334C262.734,-332.54 262.541,-331.09 262.044,-329.72C261.536,-328.32 260.714,-327.02 259.594,-325.88L259.6,-325.89Z" style="fill:white;fill-rule:nonzero;"/>
    </g>
</svg>
