<?xml version="1.0" encoding="UTF-8" standalone="no"?>
<!DOCTYPE svg PUBLIC "-//W3C//DTD SVG 1.1//EN" "http://www.w3.org/Graphics/SVG/1.1/DTD/svg11.dtd">
<svg width="100%" height="100%" viewBox="0 0 48 48" version="1.1" xmlns="http://www.w3.org/2000/svg" xmlns:xlink="http://www.w3.org/1999/xlink" xml:space="preserve" xmlns:serif="http://www.serif.com/" style="fill-rule:evenodd;clip-rule:evenodd;stroke-linejoin:round;stroke-miterlimit:2;">
    <g transform="matrix(1.142856,0,0,1.142856,-3.428602,-3.428247)">
        <path d="M22.903,3.286C23.582,2.905 24.418,2.905 25.096,3.286C28.451,5.169 38.547,10.837 41.903,12.72C42.582,13.1 43,13.804 43,14.566L43,33.433C43,34.195 42.582,34.899 41.903,35.28C38.548,37.163 28.452,42.831 25.096,44.714C24.417,45.095 23.581,45.095 22.903,44.714C19.548,42.831 9.452,37.163 6.096,35.28C5.418,34.899 5,34.196 5,33.434L5,14.567C5,13.805 5.418,13.101 6.097,12.72C9.451,10.837 19.549,5.169 22.903,3.286Z" style="fill:rgb(40,53,147);"/>
        <path d="M5.304,34.404C5.038,34.048 5,33.71 5,33.255L5,14.496C5,13.738 5.417,13.038 6.094,12.66C9.437,10.788 19.499,5.153 22.842,3.28C23.519,2.901 24.436,2.909 25.113,3.288C28.456,5.16 38.484,10.747 41.827,12.619C42.097,12.771 42.303,12.954 42.487,13.195L5.304,34.404Z" style="fill:rgb(92,107,192);"/>
        <path d="M24,10C31.727,10 38,16.273 38,24C38,31.727 31.727,38 24,38C16.273,38 10,31.727 10,24C10,16.273 16.273,10 24,10ZM24,17C27.863,17 31,20.136 31,24C31,27.863 27.863,31 24,31C20.137,31 17,27.863 17,24C17,20.136 20.136,17 24,17Z" style="fill:white;"/>
        <path d="M42.485,13.205C43.001,13.688 42.991,14.416 42.991,14.989C42.991,18.784 42.959,29.578 43,33.373C43.004,33.769 42.873,34.186 42.677,34.5L23.593,24L42.485,13.205Z" style="fill:rgb(57,73,171);"/>
    </g>
</svg>
