<?xml version="1.0" encoding="UTF-8" standalone="no"?>
<!DOCTYPE svg PUBLIC "-//W3C//DTD SVG 1.1//EN" "http://www.w3.org/Graphics/SVG/1.1/DTD/svg11.dtd">
<svg width="100%" height="100%" viewBox="0 0 48 48" version="1.1" xmlns="http://www.w3.org/2000/svg" xmlns:xlink="http://www.w3.org/1999/xlink" xml:space="preserve" xmlns:serif="http://www.serif.com/" style="fill-rule:evenodd;clip-rule:evenodd;stroke-linejoin:round;stroke-miterlimit:2;">
    <g transform="matrix(1.142871,0,0,1.142871,-3.428898,-3.428898)">
        <path d="M22.903,3.286C23.582,2.905 24.418,2.905 25.096,3.286L41.903,12.72C42.582,13.1 43,13.804 43,14.566L43,33.433C43,34.195 42.582,34.899 41.903,35.28L25.096,44.714C24.417,45.095 23.581,45.095 22.903,44.714L6.096,35.28C5.418,34.899 5,34.196 5,33.434L5,14.567C5,13.805 5.418,13.101 6.097,12.72L22.903,3.286ZM36.171,30.92L30.036,27.545C28.818,29.612 26.57,31 24,31C20.137,31 17,27.863 17,24C17,20.136 20.136,17 24,17C26.528,17 28.744,18.343 29.975,20.353L36.054,16.88C33.615,12.763 29.128,10 24,10C16.273,10 10,16.273 10,24C10,31.727 16.273,38 24,38C29.211,38 33.76,35.147 36.171,30.92Z" style="fill:white;"/>
    </g>
</svg>
