<?xml version="1.0" encoding="UTF-8" standalone="no"?>
<!DOCTYPE svg PUBLIC "-//W3C//DTD SVG 1.1//EN" "http://www.w3.org/Graphics/SVG/1.1/DTD/svg11.dtd">
<svg width="100%" height="100%" viewBox="0 0 340 340" version="1.1" xmlns="http://www.w3.org/2000/svg" xmlns:xlink="http://www.w3.org/1999/xlink" xml:space="preserve" xmlns:serif="http://www.serif.com/" style="fill-rule:evenodd;clip-rule:evenodd;stroke-linejoin:round;stroke-miterlimit:2;">
    <g transform="matrix(1,0,0,1,0,36)">
        <clipPath id="_clip1">
            <rect x="0" y="0" width="339.5" height="268"/>
        </clipPath>
        <g clip-path="url(#_clip1)">
            <path d="M334,110.1C325.7,104.5 303.8,102.1 287.9,106.4C287,90.6 278.9,77.2 263.9,65.6L258.4,61.9L254.7,67.5C247.5,78.5 244.4,93.2 245.5,106.5C246.3,114.7 249.2,123.9 254.7,130.6C234,142.6 214.9,139.9 130.4,139.9L0,139.9C-0.4,159 2.7,195.7 26,225.5C28.6,228.8 31.4,232 34.5,235.1C53.5,254.1 82.1,268 125,268.1C190.4,268.1 246.4,232.8 280.5,147.3C291.7,147.5 321.3,149.3 335.8,121.3C336.2,120.8 339.5,113.9 339.5,113.9L334,110.2L334,110.1ZM85.2,92.7L48.5,92.7L48.5,129.4L85.2,129.4L85.2,92.7ZM132.6,92.7L95.9,92.7L95.9,129.4L132.6,129.4L132.6,92.7ZM179.9,92.7L143.2,92.7L143.2,129.4L179.9,129.4L179.9,92.7ZM227.3,92.7L190.6,92.7L190.6,129.4L227.3,129.4L227.3,92.7ZM37.8,92.7L1.1,92.7L1.1,129.4L37.8,129.4L37.8,92.7ZM85.2,46.3L48.5,46.3L48.5,83L85.2,83L85.2,46.3ZM132.6,46.3L95.9,46.3L95.9,83L132.6,83L132.6,46.3ZM179.9,46.3L143.2,46.3L143.2,83L179.9,83L179.9,46.3ZM179.9,0L143.2,0L143.2,36.7L179.9,36.7L179.9,0Z" style="fill:white;fill-rule:nonzero;"/>
        </g>
    </g>
</svg>
