<?xml version="1.0" encoding="UTF-8" standalone="no"?>
<!DOCTYPE svg PUBLIC "-//W3C//DTD SVG 1.1//EN" "http://www.w3.org/Graphics/SVG/1.1/DTD/svg11.dtd">
<svg width="100%" height="100%" viewBox="0 0 128 128" version="1.1" xmlns="http://www.w3.org/2000/svg" xmlns:xlink="http://www.w3.org/1999/xlink" xml:space="preserve" xmlns:serif="http://www.serif.com/" style="fill-rule:evenodd;clip-rule:evenodd;stroke-linejoin:round;stroke-miterlimit:2;">
    <path d="M90.1,80C90.9,79.5 91.8,79 92.6,78.5C98.2,73.7 96.2,65 86.7,52.8C86.9,58.9 87.9,65.2 88.9,71.9C89.3,74.5 89.7,77.2 90.1,80ZM36,103.2C39.2,116.9 47.3,124.3 56.5,127.4C61.6,128.3 66.7,128.1 71.8,127C72.6,126.6 73.3,126.1 74,125.6C76,124.3 77.7,122.8 79.3,121.3C72.8,118.5 66.2,113.1 60,106.7C55.2,106.4 50.5,105.9 46.4,105.3C42.4,104.9 39,104.2 36,103.2ZM34.6,38.7L34.4,40.1C33,48 32.9,55.1 34,61.3C35.1,53.9 36.6,46.3 38.7,39C39,37.9 39.3,36.7 39.7,35.5L39.8,35.5C41.4,30.5 43.2,25.7 45.3,21.2C41.3,26.5 37.8,32.4 34.6,38.7Z" style="fill:white;fill-rule:nonzero;"/>
    <path d="M33.9,114C37.4,118.4 41.4,121.6 45.8,123.9C40.2,119.3 35.8,112.4 33.8,102.5C30,101.1 27,99.2 24.7,96.8C26.3,103.2 29.3,109.1 33.9,114ZM33.3,67C31.5,61.1 30.9,54.3 31.5,46.6C30.4,48.9 29.4,51.4 28.3,53.9C23.8,67 21.8,80.6 23.7,92.6C25.8,95.8 28.9,98.4 33.3,100.2C31.9,92.5 31.8,80.3 33.3,67ZM35.5,100.8C35.5,100.9 35.5,100.9 35.5,100.8C38.7,102 42.3,102.8 46.6,103.3C50.1,103.9 53.9,104.3 57.9,104.6C49.6,95.5 42.3,84.8 37.6,76C36.5,74.4 35.6,72.7 34.8,71C33.7,83.2 34,94.1 35.5,100.8ZM86.9,72.1C85.8,64.6 84.6,57 84.6,49.8C71.9,38 59.6,25.4 60.1,5.1C59.7,5.4 59.3,5.7 59,6C56.8,7.9 54.6,10 52.5,12.3C48,18.7 44.4,26.9 41.6,35.8C40,47.4 51.2,70.1 66.1,87.5C73.3,87.2 80.9,85 88.2,81C87.8,78.1 87.4,75.1 86.9,72.1ZM96.9,111.8C94.3,111.3 91.7,110.4 89.1,109.2C87.8,113.3 85.7,117.1 82.7,120.6C83.8,120.9 84.8,121.2 85.8,121.3C90,118.8 93.8,115.5 96.9,111.8Z" style="fill:white;fill-rule:nonzero;"/>
    <path d="M62.1,3.6C61,23.1 72.2,35.5 84.4,46.8C73.7,32.6 67.5,24.1 67.5,0.3C65.8,1.2 64,2.3 62.1,3.6ZM83.2,105.8C77.9,106.6 72.4,106.9 67,106.9C65.6,106.9 64.1,106.9 62.7,106.8C68.5,112.6 74.7,117.4 80.7,119.8C83.9,116.3 86,112.4 87.3,108.2C85.9,107.5 84.5,106.7 83.2,105.8ZM80.8,104.2C78.8,102.8 77,101.3 75.3,99.8C71.8,96.7 68.4,93.3 65.2,89.6C58.1,89.7 51.5,88 46.1,84.5C45.3,84 44.5,83.4 43.8,82.8C48.4,90.1 54.3,98.1 60.7,104.8C67.2,105.1 74.2,105 80.8,104.2ZM90.4,104.4C90.2,105.4 90,106.3 89.7,107.3C92.5,108.7 95.4,109.7 98.3,110C100.8,106.6 102.8,102.8 104,98.7C100.3,101.2 95.6,103.1 90.4,104.4Z" style="fill:white;fill-rule:nonzero;"/>
    <path d="M47.2,82.8C51.9,85.8 57.5,87.4 63.5,87.6C51.2,73 41.7,55.2 39.8,42.6C37.5,51.5 36.7,57 35.4,66.2L35.4,66.4C36.3,68.7 37.5,71.5 39.1,74.5C41.2,77.9 43.9,80.7 47.2,82.8ZM88.5,83.2C81.7,86.9 74.6,89 67.8,89.5C70.7,92.7 73.6,95.7 76.6,98.3C78.7,100.2 81.1,102.1 83.7,103.8C85.4,103.5 87,103.2 88.6,102.9C89.6,96.6 89.3,90 88.5,83.2ZM90.7,102.3C96.3,100.8 101.2,98.7 104.8,95.7C106.3,88.8 105.8,81.3 102.5,73.3C99.6,68.4 96.8,64.1 94.2,60.3C99,69.1 98.9,75.5 93.8,79.9L93.7,80C92.6,80.7 91.5,81.4 90.3,82.1C91.2,89 91.6,95.9 90.7,102.3Z" style="fill:white;fill-rule:nonzero;"/>
</svg>
