<?xml version="1.0" encoding="UTF-8" standalone="no"?>
<!DOCTYPE svg PUBLIC "-//W3C//DTD SVG 1.1//EN" "http://www.w3.org/Graphics/SVG/1.1/DTD/svg11.dtd">
<svg width="100%" height="100%" viewBox="0 0 128 128" version="1.1" xmlns="http://www.w3.org/2000/svg" xmlns:xlink="http://www.w3.org/1999/xlink" xml:space="preserve" xmlns:serif="http://www.serif.com/" style="fill-rule:evenodd;clip-rule:evenodd;stroke-linejoin:round;stroke-miterlimit:2;">
    <path d="M34.945,7.686C32.881,7.686 30.919,9.026 29.783,10.885L0.773,61.367C-0.258,63.228 -0.258,65.494 0.773,67.355L29.783,117.527C30.816,119.386 32.777,120.314 34.945,120.314L93.066,120.314C95.131,120.314 97.093,119.386 98.228,117.631L127.238,67.459C128.271,65.394 128.27,63.226 127.135,61.471L98.125,10.885C97.093,9.027 95.133,7.685 92.965,7.685L34.945,7.685L34.945,7.686ZM63.955,19.556C64.316,19.556 64.677,19.661 64.986,19.867L102.049,41.237C102.669,41.649 103.184,42.269 103.184,42.992L103.184,85.731L103.08,85.731C103.08,86.453 102.668,87.177 101.945,87.486L64.986,108.856C64.361,109.268 63.547,109.268 62.922,108.856L25.862,87.59C25.242,87.177 24.725,86.557 24.725,85.834L24.725,42.992C24.725,42.269 25.139,41.546 25.861,41.236L62.922,19.867C63.232,19.661 63.594,19.557 63.955,19.557L63.955,19.556ZM63.902,34.396C63.562,34.396 63.226,34.476 62.922,34.629L38.662,48.67C38.042,48.98 37.629,49.701 37.629,50.32L37.629,78.402C37.629,79.125 38.043,79.847 38.662,80.156L63.025,94.197C63.641,94.507 64.37,94.507 64.986,94.197L89.248,80.157C89.868,79.743 90.279,79.125 90.279,78.402L90.279,50.32C90.279,49.701 89.867,48.98 89.248,48.67L64.883,34.629C64.579,34.477 64.243,34.397 63.903,34.397L63.902,34.396Z" style="fill:white;fill-rule:nonzero;"/>
</svg>
