<?xml version="1.0" encoding="UTF-8" standalone="no"?>
<!DOCTYPE svg PUBLIC "-//W3C//DTD SVG 1.1//EN" "http://www.w3.org/Graphics/SVG/1.1/DTD/svg11.dtd">
<svg width="100%" height="100%" viewBox="0 0 128 128" version="1.1" xmlns="http://www.w3.org/2000/svg" xmlns:xlink="http://www.w3.org/1999/xlink" xml:space="preserve" xmlns:serif="http://www.serif.com/" style="fill-rule:evenodd;clip-rule:evenodd;stroke-linejoin:round;stroke-miterlimit:2;">
    <path d="M60.654,48.883C61.705,47.349 62.851,47.156 63.781,47.156C64.711,47.156 66.256,47.349 67.308,48.883C75.556,60.12 89.173,82.512 99.22,99.035C105.775,109.802 110.806,118.078 111.842,119.13C115.716,123.082 121.031,120.619 124.12,116.135C127.159,111.723 128,108.623 128,105.318C128,103.065 83.948,21.803 79.514,15.038C75.25,8.534 73.856,6.89 66.56,6.89L61.091,6.89C53.811,6.89 52.76,8.534 48.492,15.038C44.058,21.803 0,103.065 0,105.313C0,108.623 0.847,111.723 3.892,116.135C6.98,120.619 12.295,123.082 16.17,119.125C17.2,118.072 22.231,109.802 28.785,99.03C38.832,82.512 52.405,60.12 60.659,48.877L60.654,48.883Z" style="fill:white;fill-rule:nonzero;"/>
</svg>
