<?xml version="1.0" encoding="UTF-8" standalone="no"?>
<!DOCTYPE svg PUBLIC "-//W3C//DTD SVG 1.1//EN" "http://www.w3.org/Graphics/SVG/1.1/DTD/svg11.dtd">
<svg width="100%" height="100%" viewBox="0 0 128 128" version="1.1" xmlns="http://www.w3.org/2000/svg" xmlns:xlink="http://www.w3.org/1999/xlink" xml:space="preserve" xmlns:serif="http://www.serif.com/" style="fill-rule:evenodd;clip-rule:evenodd;stroke-linejoin:round;stroke-miterlimit:2;">
    <path d="M45.5,129C57.4,129 67,119.4 67,107.5L67,86L45.5,86C33.6,86 24,95.6 24,107.5C24,119.4 33.6,129 45.5,129ZM24,64.5C24,52.6 33.6,43 45.5,43L67,43L67,86L45.5,86C33.6,86 24,76.4 24,64.5ZM24,21.5C24,9.6 33.6,0 45.5,0L67,0L67,43L45.5,43C33.6,43 24,33.4 24,21.5ZM67,0L88.5,0C100.4,0 110,9.6 110,21.5C110,33.4 100.4,43 88.5,43L67,43L67,0ZM110,64.5C110,76.4 100.4,86 88.5,86C76.6,86 67,76.4 67,64.5C67,52.6 76.6,43 88.5,43C100.4,43 110,52.6 110,64.5Z" style="fill:white;fill-rule:nonzero;"/>
</svg>
