<?xml version="1.0" encoding="UTF-8" standalone="no"?>
<!DOCTYPE svg PUBLIC "-//W3C//DTD SVG 1.1//EN" "http://www.w3.org/Graphics/SVG/1.1/DTD/svg11.dtd">
<svg width="100%" height="100%" viewBox="0 0 128 128" version="1.1" xmlns="http://www.w3.org/2000/svg" xmlns:xlink="http://www.w3.org/1999/xlink" xml:space="preserve" xmlns:serif="http://www.serif.com/" style="fill-rule:evenodd;clip-rule:evenodd;stroke-linejoin:round;stroke-miterlimit:2;">
    <path d="M103.93,17.205C99.778,17.773 95.902,19.614 92.838,22.473C92.455,22.835 92.231,23.336 92.218,23.863C92.221,24.388 92.428,24.893 92.796,25.268L95.321,27.881C95.999,28.56 97.083,28.638 97.851,28.063C99.856,26.55 102.303,25.734 104.815,25.742C104.83,25.742 104.844,25.742 104.859,25.742C111.232,25.742 116.477,30.986 116.477,37.36C116.477,40.447 115.246,43.41 113.06,45.589C96.95,61.701 75.444,16.565 26.637,39.786C24.308,40.876 22.814,43.226 22.814,45.797C22.814,46.947 23.113,48.077 23.681,49.077L32.046,63.553C33.851,66.666 37.876,67.772 41.019,66.02L41.222,65.906L41.062,66.02L44.772,63.938C48.907,61.37 52.813,58.451 56.448,55.214C57.214,54.557 58.357,54.557 59.123,55.214C59.579,55.569 59.848,56.114 59.853,56.692C59.862,57.254 59.629,57.794 59.212,58.171C55.384,61.57 51.264,64.627 46.902,67.306L46.782,67.306L43.07,69.377C41.502,70.263 39.729,70.724 37.928,70.715C34.145,70.716 30.633,68.705 28.719,65.442L20.807,51.768C5.613,62.5 -3.607,83.18 1.345,109.416C1.526,110.317 2.321,110.975 3.24,110.983L12.255,110.983C13.22,110.982 14.042,110.254 14.16,109.297C14.987,102.728 20.636,97.747 27.256,97.747C33.877,97.747 39.526,102.728 40.353,109.297C40.478,110.256 41.302,110.981 42.269,110.983L51.055,110.983C52.02,110.982 52.842,110.254 52.96,109.297C53.809,102.741 59.454,97.781 66.064,97.781C72.675,97.781 78.32,102.741 79.169,109.297C79.287,110.254 80.109,110.982 81.074,110.983L89.746,110.983C90.79,110.985 91.655,110.137 91.672,109.093C91.879,96.87 95.175,82.826 104.576,75.79C137.138,51.431 128.583,30.55 121.045,22.967C116.559,18.477 110.218,16.342 103.93,17.205ZM84.692,52.866C84.968,52.805 85.251,52.774 85.534,52.774C87.674,52.774 89.436,54.536 89.436,56.676C89.436,57.923 88.838,59.097 87.83,59.831L87.83,59.811L81.62,56.692C81.614,54.859 82.901,53.256 84.692,52.866Z" style="fill:white;fill-rule:nonzero;"/>
</svg>
