<?xml version="1.0" encoding="UTF-8" standalone="no"?>
<!DOCTYPE svg PUBLIC "-//W3C//DTD SVG 1.1//EN" "http://www.w3.org/Graphics/SVG/1.1/DTD/svg11.dtd">
<svg width="100%" height="100%" viewBox="0 0 128 128" version="1.1" xmlns="http://www.w3.org/2000/svg" xmlns:xlink="http://www.w3.org/1999/xlink" xml:space="preserve" xmlns:serif="http://www.serif.com/" style="fill-rule:evenodd;clip-rule:evenodd;stroke-linejoin:round;stroke-miterlimit:2;">
    <path d="M69.162,0C59.252,6.4 57.392,14.865 57.392,14.865C57.392,14.865 57.394,15.071 57.291,15.277C56.671,15.381 56.258,15.587 55.742,15.69C55.02,15.896 54.297,16.103 53.574,16.516L51.406,17.446C49.961,18.168 48.516,18.787 47.07,19.613C45.728,20.439 44.387,21.161 43.045,22.09C42.932,22.037 42.828,21.968 42.736,21.885C29.42,16.724 17.652,22.916 17.652,22.916C16.62,37.161 23.019,45.936 24.258,47.588C23.948,48.517 23.638,49.342 23.328,50.168C22.291,53.394 21.565,56.713 21.162,60.078C21.059,60.491 21.058,61.111 20.955,61.523C8.671,67.613 5.06,80.103 5.06,80.103C15.279,91.871 27.253,92.593 27.253,92.593C28.698,95.278 30.555,97.962 32.517,100.336C33.342,101.368 34.273,102.296 35.099,103.328C31.383,113.96 35.718,122.941 35.718,122.941C47.176,123.354 54.71,117.986 56.258,116.644C57.394,116.954 58.53,117.368 59.665,117.678C63.139,118.597 66.706,119.117 70.298,119.227L74.942,119.227C80.31,126.969 89.807,128 89.807,128C96.517,120.877 96.93,113.962 96.93,112.31L96.93,111.69C98.272,110.657 99.613,109.626 101.059,108.49C103.743,106.116 106.014,103.226 108.079,100.336C108.285,100.129 108.388,99.716 108.697,99.51C116.336,99.923 121.6,94.762 121.6,94.762C120.36,86.813 115.82,82.994 114.89,82.272L114.684,82.064L114.58,81.961C114.58,81.548 114.684,81.031 114.684,80.516C114.787,79.586 114.787,78.761 114.787,77.936L114.787,74.529C114.787,74.323 114.787,74.116 114.684,73.807L114.58,73.084L114.477,72.361C114.373,71.432 114.167,70.607 114.064,69.781C113.239,66.375 111.898,63.071 110.246,60.283C108.388,57.29 106.22,54.812 103.742,52.541C101.265,50.373 98.478,48.516 95.588,47.277C92.594,45.935 89.704,45.11 86.608,44.801C85.162,44.594 83.51,44.594 82.064,44.594L79.69,44.594C78.865,44.697 78.144,44.799 77.42,44.902C74.324,45.522 71.537,46.658 69.06,48.103C66.582,49.549 64.414,51.51 62.556,53.678C60.698,55.845 59.356,58.116 58.426,60.594C57.508,62.97 56.985,65.48 56.878,68.025L56.878,70.709C56.878,71.019 56.878,71.329 56.982,71.639C57.085,72.877 57.292,74.013 57.704,75.149C58.427,77.419 59.46,79.483 60.802,81.239C62.077,82.914 63.61,84.377 65.342,85.574C67.098,86.71 68.75,87.534 70.608,88.051C72.466,88.567 74.117,88.877 75.768,88.773L78.144,88.773C78.35,88.773 78.556,88.672 78.763,88.672C78.969,88.672 79.073,88.568 79.382,88.568C79.692,88.465 80.207,88.361 80.517,88.258C81.239,88.051 81.859,87.638 82.581,87.432C83.304,87.122 83.821,86.71 84.337,86.4C84.44,86.297 84.646,86.193 84.749,86.09C85.369,85.677 85.472,84.852 84.956,84.232C84.543,83.819 83.82,83.612 83.2,83.922C83.097,84.025 82.995,84.026 82.788,84.129C82.375,84.335 81.756,84.542 81.343,84.748C80.723,84.851 80.208,85.058 79.589,85.162C79.279,85.162 78.969,85.264 78.659,85.264L76.079,85.264C75.976,85.264 75.769,85.265 75.665,85.162C74.426,84.956 73.085,84.542 71.847,84.025C70.608,83.406 69.369,82.685 68.337,81.652C67.21,80.627 66.237,79.444 65.447,78.142C64.621,76.801 64.207,75.252 64.001,73.807C63.898,72.981 63.794,72.257 63.898,71.432L63.898,70.193C63.898,69.78 64.001,69.368 64.105,68.955C64.724,65.549 66.375,62.245 68.956,59.768C69.679,59.045 70.298,58.53 71.124,58.014C71.95,57.394 72.671,56.982 73.497,56.672C74.323,56.362 75.253,55.949 76.079,55.742C77.009,55.536 77.937,55.328 78.763,55.328C79.176,55.328 79.692,55.227 80.105,55.227L81.343,55.227C82.375,55.33 83.408,55.432 84.337,55.639C86.298,56.052 88.157,56.774 90.015,57.807C93.628,59.871 96.723,62.967 98.581,66.684C99.511,68.542 100.129,70.504 100.542,72.672C100.645,73.292 100.646,73.702 100.749,74.219L100.749,77.006C100.749,77.626 100.646,78.142 100.646,78.762C100.542,79.382 100.544,79.896 100.441,80.516C100.337,81.135 100.233,81.652 100.13,82.271C99.924,83.407 99.408,84.439 99.099,85.574C98.273,87.742 97.136,89.806 95.794,91.56C93.11,95.277 89.292,98.375 85.164,100.336C82.995,101.265 80.827,102.091 78.556,102.4C77.432,102.605 76.292,102.709 75.149,102.709L73.394,102.709C72.774,102.709 72.156,102.711 71.536,102.607C69.059,102.401 66.686,101.883 64.312,101.264C61.937,100.541 59.665,99.716 57.497,98.58C53.162,96.31 49.344,93.007 46.247,89.291C44.802,87.33 43.355,85.264 42.22,83.199C41.084,81.135 40.259,78.761 39.64,76.49C38.917,74.22 38.608,71.845 38.505,69.47L38.505,65.857C38.505,64.722 38.607,63.485 38.814,62.247C38.917,61.007 39.123,59.871 39.433,58.633C39.639,57.394 40.053,56.258 40.363,55.019C41.085,52.645 41.807,50.375 42.839,48.207C44.903,43.872 47.484,40.052 50.581,36.955C51.359,36.178 52.187,35.454 53.06,34.787C53.37,34.477 54.195,33.754 55.124,33.238C56.053,32.722 56.982,32.102 58.014,31.689C58.428,31.483 58.944,31.276 59.46,30.967C59.666,30.864 59.871,30.761 60.284,30.658C60.491,30.555 60.698,30.451 61.11,30.348C62.143,29.935 63.176,29.523 64.208,29.213C64.415,29.11 64.828,29.109 65.034,29.006C65.241,28.903 65.652,28.904 65.858,28.801C66.478,28.698 66.891,28.593 67.408,28.387C67.614,28.283 68.027,28.283 68.233,28.18C68.44,28.18 68.853,28.078 69.06,28.078C69.266,28.078 69.68,27.975 69.886,27.975L70.298,27.871L70.71,27.768C70.916,27.768 71.33,27.664 71.536,27.664C71.846,27.664 72.156,27.56 72.466,27.56C72.672,27.56 73.187,27.459 73.394,27.459C73.6,27.459 73.705,27.459 74.014,27.355L74.737,27.355C75.047,27.355 75.355,27.355 75.665,27.252L80.312,27.252C82.376,27.355 84.44,27.562 86.298,27.975C90.118,28.697 93.936,29.936 97.239,31.588C100.543,33.136 103.639,35.199 106.116,37.368C106.22,37.47 106.427,37.575 106.53,37.781C106.634,37.884 106.84,37.987 106.942,38.193C107.252,38.4 107.562,38.813 107.872,39.019C108.182,39.226 108.492,39.639 108.802,39.846C109.008,40.156 109.42,40.464 109.626,40.773C110.762,41.909 111.795,43.148 112.724,44.283C114.435,46.468 115.923,48.82 117.164,51.303C117.266,51.406 117.264,51.51 117.368,51.717C117.471,51.82 117.472,51.922 117.575,52.129C117.678,52.335 117.781,52.749 117.987,52.955C118.091,53.161 118.195,53.575 118.297,53.781C118.401,53.988 118.505,54.401 118.608,54.607C119.021,55.64 119.434,56.671 119.743,57.703C120.363,59.251 120.672,60.696 120.982,61.833C121.085,62.245 121.602,62.658 122.015,62.658C122.634,62.658 122.942,62.244 122.942,61.625C122.632,59.87 122.634,58.427 122.53,56.672C122.324,54.504 121.911,52.025 121.292,49.238C120.672,46.451 119.432,43.561 117.987,40.361C116.439,37.265 114.478,33.961 111.897,30.967C110.865,29.728 109.73,28.594 108.595,27.355C110.453,20.233 106.427,13.935 106.427,13.935C99.511,13.523 95.174,16.103 93.626,17.238C93.42,17.135 93.008,17.033 92.802,16.93C91.666,16.517 90.427,16 89.189,15.588C87.949,15.278 86.711,14.761 85.472,14.555C84.233,14.245 82.892,13.935 81.446,13.728C81.24,13.728 81.033,13.625 80.724,13.625C77.833,4.128 69.162,0 69.162,0Z" style="fill:white;fill-rule:nonzero;"/>
</svg>
