<?xml version="1.0" encoding="UTF-8" standalone="no"?>
<!DOCTYPE svg PUBLIC "-//W3C//DTD SVG 1.1//EN" "http://www.w3.org/Graphics/SVG/1.1/DTD/svg11.dtd">
<svg width="100%" height="100%" viewBox="0 0 128 128" version="1.1" xmlns="http://www.w3.org/2000/svg" xmlns:xlink="http://www.w3.org/1999/xlink" xml:space="preserve" xmlns:serif="http://www.serif.com/" style="fill-rule:evenodd;clip-rule:evenodd;stroke-linejoin:round;stroke-miterlimit:2;">
    <path d="M8.838,38.03L0,46.935L8.938,55.772L12.4,52.27L9.268,52.28L3.877,46.929L9.229,41.536L12.357,41.524L8.837,38.028L8.838,38.03ZM12.358,41.525L13.074,42.236L13.787,41.52L12.357,41.525L12.358,41.525ZM13.074,42.236L9.041,46.301L17.139,46.271L13.074,42.236ZM17.139,46.271L17.74,46.869L17.127,47.49L28.543,47.447L27.908,46.817L28.49,46.23L17.139,46.271ZM28.49,46.231L32.66,46.215L30.574,44.145L32.855,44.137L35.551,46.812L32.875,49.508L30.627,49.516L33.131,52L38.314,46.777L33.092,41.594L28.49,46.23L28.49,46.231ZM30.627,49.516L30.611,49.5L30.596,49.516L30.627,49.516ZM30.611,49.5L32.664,47.432L28.543,47.447L30.611,49.5ZM17.127,47.49L9.047,47.52L13.109,51.553L17.127,47.49ZM13.109,51.553L12.4,52.271L13.828,52.266L13.109,51.553ZM115.49,43.843C112.975,43.843 110.643,44.291 108.494,45.182C106.345,46.072 104.484,47.307 102.908,48.882C101.332,50.458 100.099,52.328 99.209,54.492C98.316,56.657 97.871,59.027 97.871,61.605C97.871,64.185 98.315,66.558 99.207,68.723C100.097,70.887 101.332,72.756 102.908,74.332C104.484,75.908 106.345,77.142 108.494,78.032C110.644,78.922 112.974,79.369 115.49,79.369C116.89,79.369 118.219,79.209 119.477,78.893C120.693,78.59 121.871,78.148 122.987,77.578C124.033,77.047 125.004,76.381 125.877,75.598C126.682,74.877 127.395,74.058 128,73.162L125.184,71.156C124.547,72.143 123.854,72.963 123.107,73.616C122.391,74.247 121.587,74.77 120.719,75.168C119.875,75.55 119.016,75.82 118.141,75.978C117.267,76.138 116.38,76.218 115.491,76.218C113.325,76.218 111.383,75.82 109.664,75.023C107.944,74.228 106.491,73.163 105.297,71.824C104.104,70.488 103.187,68.937 102.551,67.17C101.911,65.385 101.588,63.501 101.596,61.605C101.596,59.665 101.915,57.811 102.551,56.045C103.188,54.278 104.104,52.725 105.297,51.389C106.491,50.052 107.945,48.985 109.664,48.189C111.384,47.394 113.324,46.996 115.49,46.996C116.38,46.996 117.272,47.124 118.164,47.379C119.054,47.634 119.892,47.968 120.672,48.381C121.452,48.795 122.143,49.271 122.748,49.812C123.353,50.354 123.831,50.895 124.182,51.436L127.187,49.191C125.692,47.281 123.894,45.915 121.793,45.086C119.693,44.259 117.591,43.846 115.49,43.846L115.49,43.843ZM43.965,44.703L43.965,78.51L47.402,78.51L47.402,62.8L53.132,62.8L62.395,78.51L66.598,78.51L56.855,62.467C59.655,62.213 61.799,61.281 63.279,59.674C64.759,58.067 65.498,56.084 65.498,53.729C65.498,50.705 64.505,48.444 62.516,46.947C60.526,45.451 57.811,44.703 54.373,44.703L43.965,44.703ZM72.518,44.703L72.518,78.51L75.955,78.51L75.955,62.8L82.354,62.8C85.791,62.8 88.505,62.043 90.494,60.531C92.484,59.021 93.479,56.753 93.479,53.729C93.479,50.705 92.483,48.444 90.494,46.947C88.504,45.451 85.791,44.703 82.354,44.703L72.518,44.703ZM47.402,47.855L53.514,47.855C55.042,47.855 56.337,48.007 57.404,48.309C58.47,48.612 59.324,49.033 59.961,49.574C60.597,50.116 61.058,50.744 61.344,51.461C61.631,52.177 61.774,52.933 61.774,53.729C61.774,54.557 61.631,55.329 61.344,56.045C61.049,56.773 60.573,57.413 59.961,57.906C59.324,58.431 58.471,58.854 57.404,59.172C56.337,59.49 55.042,59.648 53.514,59.648L47.402,59.648L47.402,47.855ZM75.955,47.855L81.495,47.855C83.022,47.855 84.318,48.007 85.385,48.309C86.451,48.612 87.302,49.033 87.939,49.574C88.575,50.116 89.037,50.744 89.324,51.461C89.612,52.182 89.759,52.952 89.756,53.729C89.756,54.557 89.61,55.329 89.324,56.045C89.028,56.773 88.551,57.413 87.939,57.906C87.302,58.431 86.451,58.854 85.385,59.172C84.318,59.49 83.022,59.648 81.495,59.648L75.955,59.648L75.955,47.855ZM22.67,55.59C21.015,55.59 19.493,55.886 18.11,56.475C16.76,57.04 15.54,57.877 14.527,58.934C13.515,59.999 12.713,61.246 12.164,62.609C11.591,64.01 11.304,65.522 11.304,67.146C11.304,68.769 11.608,70.282 12.213,71.682C12.787,73.039 13.631,74.266 14.693,75.287C15.765,76.303 17.022,77.105 18.395,77.65C19.811,78.223 21.332,78.51 22.955,78.51C24.549,78.516 26.127,78.191 27.588,77.555C29.052,76.919 30.292,75.835 31.311,74.309L31.406,74.309L31.406,78.319C31.406,79.529 31.256,80.665 30.953,81.732C30.67,82.76 30.165,83.714 29.473,84.525C28.788,85.32 27.889,85.95 26.775,86.412C25.66,86.872 24.309,87.104 22.717,87.104C20.903,87.104 19.253,86.729 17.773,85.982C16.293,85.234 15.093,84.24 14.17,82.998L11.828,85.48C13.261,87.008 14.854,88.138 16.605,88.871C18.355,89.603 20.345,89.969 22.572,89.969C25.086,89.969 27.126,89.589 28.686,88.824C30.246,88.06 31.462,87.104 32.338,85.959C33.197,84.847 33.8,83.559 34.104,82.187C34.407,80.817 34.559,79.528 34.559,78.318L34.559,56.162L31.406,56.162L31.406,59.889L31.311,59.889C30.674,59.029 29.991,58.321 29.258,57.764C28.575,57.236 27.829,56.794 27.038,56.449C26.318,56.14 25.565,55.915 24.793,55.781C24.092,55.659 23.382,55.595 22.67,55.591L22.67,55.59ZM23.05,58.455C24.356,58.455 25.534,58.687 26.584,59.148C27.634,59.609 28.526,60.23 29.258,61.01C29.993,61.795 30.562,62.72 30.93,63.73C31.317,64.794 31.512,65.918 31.504,67.05C31.534,68.356 31.334,69.532 30.904,70.582C30.494,71.604 29.867,72.526 29.066,73.282C28.269,74.03 27.338,74.621 26.322,75.023C25.282,75.439 24.171,75.65 23.051,75.645C21.873,75.645 20.781,75.413 19.779,74.953C18.794,74.505 17.903,73.873 17.154,73.092C16.4,72.303 15.8,71.379 15.387,70.369C14.954,69.317 14.734,68.189 14.742,67.051C14.735,65.913 14.954,64.784 15.387,63.731C15.801,62.722 16.4,61.799 17.154,61.011C17.903,60.23 18.794,59.598 19.779,59.148C20.806,58.682 21.923,58.445 23.051,58.455L23.05,58.455Z" style="fill:white;fill-rule:nonzero;"/>
</svg>
