<?xml version="1.0" encoding="UTF-8" standalone="no"?>
<!DOCTYPE svg PUBLIC "-//W3C//DTD SVG 1.1//EN" "http://www.w3.org/Graphics/SVG/1.1/DTD/svg11.dtd">
<svg width="100%" height="100%" viewBox="0 0 128 128" version="1.1" xmlns="http://www.w3.org/2000/svg" xmlns:xlink="http://www.w3.org/1999/xlink" xml:space="preserve" xmlns:serif="http://www.serif.com/" style="fill-rule:evenodd;clip-rule:evenodd;stroke-linejoin:round;stroke-miterlimit:2;">
    <path d="M56.957,78.383L57.141,78.352L57.344,78.309C60.047,77.758 62.035,76.203 62.054,74.649C62.058,74.334 61.981,74.023 61.832,73.746C61.132,72.453 58.887,71.738 56.328,72.055L55.914,72.113C52.824,72.625 50.551,74.441 50.84,76.172C50.86,76.273 50.883,76.372 50.918,76.465C51.449,78.015 54.047,78.867 56.957,78.383ZM38.422,113.68C36.617,114.094 31.305,116.969 26.711,117.84C22.121,118.715 18.148,119.176 16.754,119.691C15.364,120.203 14.281,121.231 17.012,122.258C19.75,123.285 33.004,123.645 34.192,122.258C35.379,120.871 33.372,120.27 30.477,120.308C28.414,120.332 28.664,119.618 28.672,119.535C28.672,119.535 28.801,118.637 31.972,118.199C35.141,117.766 49.152,116.457 48.895,114.965C48.637,113.477 40.227,113.27 38.422,113.68ZM32.016,124.09C31.922,123.664 30.641,123.57 29.16,123.895C27.676,124.219 26.55,124.825 26.645,125.254C26.738,125.684 28.015,125.774 29.5,125.454C30.984,125.129 32.105,124.52 32.016,124.09ZM25.852,124.086C25.816,123.664 24.5,123.418 22.91,123.543C21.32,123.672 20.059,124.117 20.09,124.543C20.125,124.965 21.441,125.207 23.031,125.078C24.625,124.957 25.887,124.512 25.851,124.086L25.852,124.086ZM19.809,123.422C19.762,123.094 18.867,122.942 17.809,123.086C16.746,123.226 15.926,123.613 15.973,123.946C16.016,124.273 16.914,124.426 17.973,124.281C19.031,124.137 19.852,123.754 19.809,123.421L19.809,123.422ZM15.989,122.836C15.949,122.574 15.089,122.476 14.066,122.625C13.043,122.77 12.25,123.105 12.286,123.371C12.324,123.641 13.188,123.738 14.207,123.59C15.227,123.441 16.027,123.105 15.984,122.836L15.989,122.836ZM15.137,121.786C15.097,121.516 14.238,121.422 13.215,121.57C12.191,121.719 11.395,122.055 11.434,122.32C11.473,122.586 12.336,122.684 13.355,122.535C14.379,122.391 15.175,122.051 15.137,121.785L15.137,121.786ZM14.672,120.629C14.637,120.399 13.891,120.312 13,120.441C12.113,120.574 11.422,120.863 11.457,121.098C11.488,121.328 12.234,121.41 13.125,121.281C14.015,121.156 14.707,120.863 14.672,120.629ZM65.969,115.117C62.824,115.273 55.703,114.914 54.723,116.559C53.743,118.199 57.613,118.816 63.699,118.305C69.789,117.789 78.402,117.121 78.766,115.273C79.125,113.426 77.164,113.781 76.957,112.605C76.75,111.422 79.125,111.422 79.59,109.675C80.055,107.93 76.395,108.133 73.14,108.133C69.89,108.133 64.477,108.441 63.957,110.137C63.441,111.832 66.434,111.832 68.551,112.242C70.664,112.656 70.047,113.426 70.047,113.426C69.941,114.504 69.117,114.965 65.969,115.117ZM60.285,119.629C60.285,119.137 59.063,118.742 57.555,118.742C56.047,118.742 54.828,119.137 54.828,119.629C54.828,120.113 56.047,120.512 57.555,120.512C59.063,120.512 60.285,120.113 60.285,119.629ZM66.398,119.434C66.398,118.984 65.582,118.625 64.578,118.625C63.574,118.625 62.758,118.985 62.758,119.434C62.758,119.879 63.574,120.242 64.578,120.242C65.582,120.242 66.398,119.879 66.398,119.434ZM72.238,118.855C72.238,118.492 71.344,118.199 70.246,118.199C69.145,118.199 68.25,118.492 68.25,118.855C68.25,119.219 69.145,119.512 70.246,119.512C71.344,119.512 72.238,119.219 72.238,118.855ZM76.07,118.125C76.07,117.742 75.422,117.43 74.617,117.43C73.817,117.43 73.164,117.742 73.164,118.125C73.164,118.508 73.816,118.816 74.617,118.816C75.422,118.816 76.07,118.508 76.07,118.125ZM79.863,117.335C79.863,116.961 79.203,116.66 78.391,116.66C77.578,116.66 76.921,116.96 76.921,117.336C76.921,117.707 77.578,118.008 78.391,118.008C79.203,118.008 79.863,117.707 79.863,117.336L79.863,117.335ZM14.238,98.392C14.238,99.271 16.16,100.099 19.566,100.837C19.324,99.075 19.473,97.306 19.699,95.927C16.207,96.669 14.239,97.509 14.239,98.396L14.238,98.392ZM114.797,96.126C114.391,97.26 113.722,98.281 112.844,99.106C111.304,100.56 109.957,101.431 108.75,101.747C115.41,100.814 119.363,99.653 119.363,98.396C119.363,97.586 117.727,96.817 114.797,96.126ZM103.406,94.281C102.984,91.191 101.66,89.805 100.488,88.582C99.402,87.442 98.371,86.367 98.703,84.391C99.012,82.562 100.469,81.441 102.855,81.148C101.406,71.398 99.281,59.102 96.555,48.613C95.191,43.375 93.039,39.738 90.148,37.316C86.84,39.004 82.868,40.856 78.426,42.773C75.223,44.152 71.998,45.477 68.75,46.746C66.219,49.453 63.445,52.125 61.746,52.886C60.539,53.426 59.461,53.645 58.527,53.645C56.507,53.645 55.141,52.633 54.484,51.735C53.714,51.938 53.102,52.07 52.687,52.109C52.191,52.164 51.457,52.227 50.539,52.293C50.906,53.241 50.73,54.317 50.079,55.098C49.332,55.988 48.133,56.438 46.434,56.438C43.992,56.438 40.516,55.512 35.864,53.637C35.234,53.383 34.605,53.137 33.973,52.898C33.617,52.902 33.262,52.902 32.906,52.902L32.902,52.902C28.457,52.902 24.988,52.766 22.266,52.543C19.281,58.688 20.578,65.503 21.668,71.133C22.715,76.531 26.344,86.129 29.711,94.379C30.848,97.168 32.011,99.949 33.199,102.719C42.309,103.519 53.992,104 66.73,104C81.89,104 95.54,103.316 105.156,102.223C104.453,99.355 103.57,95.363 103.414,94.343L103.406,94.281ZM28.32,68.011C28.32,62.211 33.047,57.511 38.875,57.511C44.699,57.511 49.422,62.211 49.422,68.011C49.422,70.902 48.246,73.52 46.348,75.421C45.708,76.059 44.99,76.614 44.211,77.071C42.593,78.019 40.75,78.516 38.875,78.511C33.047,78.511 28.32,73.813 28.32,68.011ZM56.5,90.247C54.277,90.907 53.477,88.364 53.238,87.259C53.254,87.251 53.27,87.239 53.285,87.228C54.32,86.583 55.523,85.845 56.875,85.329C57.031,85.751 57.277,86.469 57.425,87.228C57.672,88.508 57.648,89.908 56.5,90.248L56.5,90.247ZM60.113,89.349C59.559,89.142 59.141,88.228 58.843,87.228C58.621,86.458 58.449,85.676 58.328,84.884C58.586,84.825 58.855,84.778 59.125,84.739C59.258,84.719 59.543,84.7 60.141,84.7C60.688,84.7 61.348,84.72 62.051,84.74C62.25,84.743 62.457,84.751 62.668,84.751C62.727,85.228 62.789,85.923 62.868,86.935C62.878,87.04 62.878,87.134 62.878,87.228C62.91,89.758 60.691,89.568 60.113,89.348L60.113,89.349ZM69.609,82.962C68.531,83.439 66.953,83.642 64.316,83.642C63.422,83.642 62.5,83.622 61.687,83.602C61.046,83.58 60.404,83.567 59.762,83.564C59.254,83.564 58.882,83.579 58.66,83.606C56.172,83.935 54.117,85.216 52.465,86.247C51.985,86.547 51.527,86.829 51.105,87.064C50.418,87.438 49.582,87.638 48.675,87.638C47.004,87.638 45.434,86.985 44.469,85.892C43.672,84.985 43.336,83.849 43.5,82.61C44,78.896 49.336,76.997 49.941,76.794L50.918,76.462C50.884,76.368 50.859,76.271 50.844,76.172C50.554,74.442 52.824,72.626 55.914,72.114L56.328,72.056C58.887,71.739 61.133,72.454 61.832,73.747L63.023,73.755C65.734,73.778 67.977,74.142 69.676,74.837C71.391,75.532 72.437,76.544 72.629,77.685C73.016,79.978 71.883,81.95 69.609,82.962ZM71.563,70.946C65.738,70.946 61.016,66.243 61.016,60.442C61.016,54.642 65.738,49.938 71.563,49.938C77.387,49.938 82.113,54.642 82.113,60.442C82.113,66.243 77.391,70.946 71.563,70.946ZM25.805,105.574C28.277,105.574 30.015,104.234 31.242,102.496C29.178,97.741 27.217,92.942 25.359,88.102C24.766,88.602 24.086,89.355 23.344,90.492C21.508,93.332 19.992,99.93 21.898,103.418C22.695,104.868 23.973,105.574 25.805,105.574ZM113.113,89.219C111.66,85.489 108.578,82.836 105.613,82.773L105.512,82.762C105.504,82.762 104.934,82.68 104.168,82.68C102.555,82.68 100.574,83.02 100.301,84.656C100.109,85.789 100.605,86.367 101.661,87.473C102.863,88.734 104.511,90.457 105.008,94.066C105.574,98.191 106.586,100.289 108.02,100.289C108.688,100.289 109.902,99.891 111.918,97.989C114.398,95.649 114.16,91.926 113.113,89.219ZM41.246,71.703C41.242,73.523 39.742,75.018 37.922,75.016C37.919,75.016 37.917,75.016 37.914,75.016C36.095,75.016 34.598,73.522 34.594,71.703C34.598,69.885 36.096,68.391 37.914,68.391C37.917,68.391 37.919,68.391 37.922,68.391C38.802,68.387 39.648,68.736 40.27,69.359C40.895,69.98 41.246,70.824 41.246,71.703ZM73.461,63.941C73.46,65.759 71.965,67.254 70.147,67.254C70.144,67.254 70.13,67.254 70.127,67.254C68.309,67.254 66.812,65.759 66.809,63.941C66.809,62.113 68.301,60.633 70.137,60.633C70.14,60.633 70.142,60.633 70.145,60.633C71.961,60.633 73.457,62.125 73.461,63.941ZM28.895,34.707C31.492,35.402 34.425,35.754 37.621,35.754C42.75,35.754 53.641,34.766 68.949,28.121L69.293,27.969C69.245,27.126 69.316,26.28 69.503,25.457C69.84,23.922 70.516,22.617 71.34,21.754C71.184,21.164 71.05,20.734 70.957,20.516C69.191,19.578 54.633,14.18 47.035,14.18C46.273,14.18 45.613,14.234 45.066,14.344C38.336,15.714 28.106,27.367 27.742,29.016C27.632,29.73 27.664,31.973 27.746,34.398L28.895,34.707ZM28.765,51.25C28.547,51.2 28.327,51.163 28.105,51.14C26.689,51.225 25.418,50.231 25.16,48.836C25.134,48.694 25.12,48.55 25.117,48.406C24.35,48.836 23.602,49.3 22.875,49.796L21.605,50.672L20.668,49.445C19.623,48.049 18.692,46.572 17.883,45.027C15.633,46.086 13.871,47.242 13.441,48.34C13.359,48.547 13.395,48.66 13.477,48.781C13.844,49.316 16.027,50.953 28.766,51.25L28.765,51.25ZM55.219,47.66C56.312,46.968 57.746,47.105 58.687,47.992C58.828,47.969 59.07,47.91 59.422,47.75C60.82,47.09 65.848,41.742 69.672,37.164C69.809,37.004 69.957,36.859 70.129,36.73C61.395,40.488 49.191,44.594 37.57,44.594C35.703,44.594 33.93,44.488 32.281,44.274L32.539,45.02L31.086,45.574C30.858,45.663 30.632,45.754 30.406,45.848C32.277,46.281 34.809,47.137 37.984,48.418C43.793,50.75 46.016,50.84 46.57,50.808C47.37,50.391 48.322,50.378 49.133,50.773C50.262,50.708 51.39,50.621 52.516,50.512C52.836,50.477 53.313,50.379 53.914,50.222C53.844,49.194 54.347,48.208 55.219,47.66ZM89.05,30.473C88.628,32.984 87.811,35.743 87.276,36.493L86.769,37.195C88.822,36.209 90.846,35.165 92.839,34.062C98.874,30.695 99.628,29.222 99.714,28.848C99.769,28.602 99.71,28.528 99.683,28.496C99.616,28.414 99.19,28.004 97.284,28.004C95.202,28.004 92.288,28.48 89.245,29.137C89.19,29.586 89.124,30.031 89.05,30.473ZM86.698,37.23L85.828,37.164C84.57,37.071 83.308,37.026 82.046,37.031C79.796,37.031 76.827,37.168 74.394,37.742C74.874,38.734 74.729,39.914 74.022,40.762C73.099,41.867 72.162,42.959 71.21,44.039C73.41,43.149 75.6,42.234 77.776,41.293C80.779,40.006 83.752,38.651 86.694,37.23L86.698,37.23ZM69.594,29.594C63.477,32.25 50.074,37.367 37.621,37.367C34.465,37.367 31.375,37.039 28.477,36.257C28.793,36.734 29.094,37.223 29.375,37.719C30.453,39.602 31.238,41.465 31.668,42.562C33.176,42.797 35.141,42.984 37.57,42.984C44.723,42.984 55.906,41.355 71.25,34.48C71.543,33.555 71.863,32.64 72.207,31.734C72.176,31.734 72.145,31.742 72.113,31.742C71.953,31.742 71.789,31.722 71.633,31.687C70.68,31.48 69.973,30.707 69.593,29.594L69.594,29.594ZM19.793,45.129C20.444,46.287 21.167,47.404 21.957,48.473C25.66,45.918 30.507,44.074 30.507,44.074C30.507,44.074 30.383,43.711 30.148,43.114C30.008,42.754 29.859,42.394 29.707,42.039C29.292,41.051 28.828,40.083 28.317,39.141C27.938,38.43 27.523,37.739 27.074,37.071C25.59,34.848 23.704,32.957 21.59,32.957C20.926,32.957 20.234,33.145 19.531,33.57C15.652,35.906 17.656,41.254 19.648,44.867C19.695,44.957 19.746,45.043 19.793,45.129ZM20.343,38.594C20.371,38.316 20.445,38.008 20.633,37.699C20.824,37.383 21.113,37.137 21.457,36.992L21.516,36.965L21.543,36.953L21.653,36.922L21.73,36.898L21.809,36.878C21.836,36.871 21.926,36.863 21.98,36.855C22.047,36.852 22.105,36.848 22.172,36.848L22.266,36.848L22.34,36.859C22.43,36.871 22.527,36.891 22.617,36.91C22.961,37.016 23.227,37.176 23.461,37.34C23.911,37.684 24.231,38.055 24.516,38.437C24.801,38.813 25.031,39.203 25.238,39.582C25.605,40.27 25.91,40.984 26.152,41.722C26.328,42.242 26.465,42.773 26.566,43.312C26.606,43.504 26.625,43.664 26.641,43.766L26.661,43.93C26.661,43.93 26.511,43.754 26.273,43.441C25.945,43.014 25.626,42.581 25.316,42.141C24.934,41.605 24.496,40.984 24.023,40.344C23.789,40.024 23.543,39.711 23.285,39.402C23.027,39.109 22.758,38.816 22.496,38.632C22.399,38.555 22.291,38.492 22.176,38.445C22.156,38.441 22.148,38.441 22.133,38.434L22.125,38.43L22.133,38.43C22.145,38.43 22.156,38.43 22.16,38.426C22.164,38.426 22.195,38.406 22.172,38.41L22.09,38.43L22.043,38.438C21.987,38.452 21.936,38.48 21.895,38.52C21.829,38.605 21.782,38.704 21.758,38.809C21.688,39.07 21.688,39.434 21.703,39.769C21.727,40.113 21.773,40.453 21.824,40.766C21.926,41.398 22.047,41.941 22.117,42.328C22.195,42.711 22.238,42.938 22.238,42.938C22.238,42.938 22.195,42.898 22.128,42.816C22.055,42.734 21.949,42.621 21.828,42.461C21.485,42.023 21.187,41.552 20.938,41.055C20.766,40.714 20.625,40.358 20.516,39.992C20.402,39.59 20.293,39.145 20.344,38.594L20.343,38.594ZM21.59,32.152L21.59,32.957L21.59,32.152ZM73.574,20.637C73.738,20.637 73.898,20.657 74.059,20.687C75.246,20.953 76.047,22.086 76.316,23.664C78.574,20.504 81.046,18.902 83.68,18.902C84.79,18.902 85.766,19.164 86.582,19.668C87.355,18.734 88.117,17.785 88.859,16.824C87.813,17.012 85.629,17.297 85.629,17.297C93.895,14.27 93.23,6.035 93.23,6.035C93.23,7.457 88.953,10.863 88.953,10.863C89.145,9.633 88.48,8.023 88.48,8.023C88.668,9.633 83.54,13.797 83.54,13.797C83.918,13.039 83.629,11.715 83.629,11.715C83.344,13.227 81.066,13.797 81.066,13.797C82.488,12.094 85.152,3.105 83.156,2.535C81.16,1.969 78.402,8.398 78.402,8.398C78.309,6.887 77.453,6.887 77.453,6.887C77.836,11.617 74.035,15.402 74.035,15.402C73.75,14.457 72.227,13.98 72.227,13.98C72.719,15.035 72.16,19.832 71.988,21.187C72.492,20.836 73.031,20.637 73.574,20.637ZM71.547,29.844L71.547,29.848C71.59,29.895 71.633,29.934 71.676,29.968C71.691,29.98 71.707,29.988 71.723,30C71.753,30.02 71.785,30.043 71.82,30.059C71.871,30.085 71.924,30.105 71.98,30.117C72.068,30.132 72.158,30.133 72.246,30.121C72.492,30.082 72.766,29.93 73.043,29.676C73.298,29.079 73.566,28.487 73.848,27.902C74.105,27.375 74.371,26.852 74.656,26.336C75.062,24.196 74.512,22.438 73.711,22.262C73.666,22.252 73.62,22.248 73.574,22.25C72.75,22.25 71.551,23.676 71.082,25.805C70.742,27.348 70.898,28.719 71.301,29.485L71.305,29.488C71.375,29.628 71.453,29.75 71.543,29.844L71.547,29.844ZM83.742,25.805L83.73,25.805L83.738,25.813L83.75,25.816C83.746,25.813 83.746,25.809 83.742,25.805ZM83.777,25.828L83.754,25.82L83.75,25.816L83.75,25.82L83.754,25.824C83.758,25.828 83.762,25.828 83.766,25.828L83.777,25.828ZM83.68,20.512C78.973,20.512 75.512,27.566 73.7,32.359C73.386,33.193 73.091,34.035 72.816,34.883C72.676,35.32 72.543,35.762 72.414,36.203C72.641,36.246 72.864,36.328 73.074,36.43C75.816,35.613 79.371,35.426 82.047,35.426C84.317,35.426 85.957,35.559 85.957,35.559C86.672,34.563 90.809,20.512 83.68,20.512ZM85.309,26.289C85.261,26.783 85.142,27.268 84.953,27.727C84.807,28.113 84.632,28.487 84.43,28.847C84.133,29.375 83.796,29.879 83.422,30.355C83.148,30.695 82.965,30.871 82.965,30.871C82.965,30.871 83.023,30.629 83.133,30.211C83.234,29.793 83.395,29.203 83.555,28.508C83.637,28.164 83.723,27.789 83.781,27.402C83.855,27.027 83.887,26.648 83.871,26.266C83.859,26.098 83.824,25.941 83.781,25.867C83.773,25.844 83.766,25.832 83.754,25.824L83.75,25.824C83.746,25.82 83.742,25.816 83.738,25.812L83.676,25.782L83.473,25.727C83.387,25.699 83.305,25.703 83.219,25.684C83.137,25.664 83.059,25.676 82.977,25.664C82.898,25.675 82.818,25.684 82.738,25.691C82.422,25.742 82.105,25.898 81.797,26.117C81.477,26.362 81.186,26.642 80.93,26.953C80.402,27.586 79.965,28.285 79.602,28.895C79.238,29.512 78.945,30.043 78.734,30.418L78.402,31.016C78.402,31.016 78.398,30.953 78.402,30.836C78.406,30.719 78.406,30.546 78.43,30.328C78.48,29.723 78.582,29.125 78.742,28.539C78.937,27.809 79.242,26.965 79.773,26.117C80.059,25.663 80.41,25.253 80.816,24.902C81.288,24.494 81.86,24.219 82.473,24.105C82.633,24.082 82.797,24.07 82.957,24.066C83.121,24.074 83.285,24.074 83.441,24.102C83.594,24.132 83.754,24.152 83.898,24.203L84.113,24.277L84.219,24.312L84.234,24.32L84.242,24.32L84.316,24.355L84.336,24.367L84.375,24.387C84.406,24.391 84.793,24.629 84.891,24.785L84.992,24.918L85.074,25.055C85.124,25.141 85.163,25.233 85.191,25.328C85.312,25.688 85.324,26.004 85.309,26.289ZM58.527,51.941C59.301,51.941 60.145,51.734 61.043,51.336C62.922,50.492 67.496,45.918 72.707,39.676C72.984,39.344 73.043,38.883 72.859,38.488C72.674,38.099 72.279,37.85 71.848,37.852C71.515,37.849 71.198,37.995 70.984,38.25C68.723,40.969 62.352,48.25 60.16,49.285L60.129,49.305C59.754,49.478 59.359,49.601 58.953,49.672L58.117,49.805L57.507,49.223C57.296,49.03 57.02,48.923 56.734,48.922C56.52,48.922 56.312,48.984 56.137,49.098C55.815,49.301 55.619,49.656 55.619,50.037C55.619,50.248 55.68,50.455 55.793,50.633C55.879,50.766 56.683,51.941 58.527,51.941ZM47.898,52.187C47.718,52.187 47.535,52.23 47.375,52.313L47.043,52.484L46.676,52.512C46.586,52.516 46.496,52.516 46.406,52.516C45.363,52.516 42.796,52.191 37.34,49.996C31.324,47.578 28.937,47.215 28.055,47.215C27.95,47.212 27.845,47.218 27.742,47.235C27.213,47.324 26.821,47.787 26.821,48.324C26.821,48.392 26.827,48.461 26.84,48.528C26.941,49.052 27.4,49.438 27.934,49.445C27.957,49.445 27.98,49.445 28.004,49.441L28.129,49.434L28.25,49.445C28.914,49.5 31.043,49.867 36.504,52.059C40.918,53.836 44.258,54.734 46.434,54.734C47.578,54.734 48.359,54.488 48.758,54.012C48.925,53.812 49.016,53.56 49.016,53.299C49.016,52.968 48.868,52.654 48.613,52.442C48.413,52.274 48.159,52.183 47.898,52.187ZM63.008,75.36C63.008,75.36 62.695,79.031 57.5,79.797C56.516,79.937 55.672,80.004 54.945,80.004C52.184,80.004 51.094,79.098 50.453,78.309C50.453,78.309 45.477,79.98 45.098,82.824C44.813,84.945 46.868,86.035 48.676,86.035C49.286,86.035 49.867,85.91 50.324,85.66C52.133,84.668 54.836,82.492 58.449,82.016C58.777,81.976 59.227,81.961 59.762,81.961C60.996,81.961 62.684,82.043 64.316,82.043C66.172,82.043 67.961,81.937 68.953,81.496C71.183,80.504 71.183,78.801 71.043,77.949C70.883,77.008 68.613,75.406 63.008,75.359L63.008,75.36Z" style="fill:white;fill-rule:nonzero;"/>
</svg>
