<?xml version="1.0" encoding="UTF-8" standalone="no"?>
<!DOCTYPE svg PUBLIC "-//W3C//DTD SVG 1.1//EN" "http://www.w3.org/Graphics/SVG/1.1/DTD/svg11.dtd">
<svg width="100%" height="100%" viewBox="0 0 128 128" version="1.1" xmlns="http://www.w3.org/2000/svg" xmlns:xlink="http://www.w3.org/1999/xlink" xml:space="preserve" xmlns:serif="http://www.serif.com/" style="fill-rule:evenodd;clip-rule:evenodd;stroke-linejoin:round;stroke-miterlimit:2;">
    <g id="Java">
        <path d="M47.617,98.12C47.617,98.12 42.85,100.894 51.014,101.83C60.906,102.96 65.961,102.798 76.859,100.738C76.859,100.738 79.73,102.533 83.732,104.089C59.293,114.559 28.424,103.482 47.617,98.12ZM44.629,84.455C44.629,84.455 39.281,88.414 47.452,89.26C58.019,90.351 66.362,90.44 80.806,87.66C80.806,87.66 82.799,89.685 85.938,90.791C56.396,99.431 23.492,91.471 44.629,84.455Z" style="fill:rgb(84,131,159);fill-rule:nonzero;"/>
        <path d="M69.802,61.271C75.827,68.206 68.222,74.441 68.222,74.441C68.222,74.441 83.511,66.55 76.491,56.664C69.932,47.449 64.904,42.872 92.126,27.084C92.126,27.085 49.395,37.754 69.802,61.271Z" style="fill:rgb(234,45,46);fill-rule:nonzero;"/>
        <path d="M102.123,108.229C102.123,108.229 105.652,111.139 98.235,113.388C84.133,117.66 39.529,118.948 27.141,113.559C22.69,111.621 31.04,108.934 33.667,108.367C36.406,107.774 37.97,107.882 37.97,107.882C33.017,104.395 5.957,114.732 24.227,117.697C74.048,125.773 115.044,114.06 102.123,108.229ZM49.912,70.294C49.912,70.294 27.226,75.683 41.879,77.642C48.067,78.47 60.397,78.28 71.89,77.316C81.28,76.527 90.703,74.842 90.703,74.842C90.703,74.842 87.395,76.261 84.999,77.895C61.957,83.956 17.455,81.133 30.268,74.937C41.1,69.698 49.912,70.294 49.912,70.294ZM90.609,93.041C114.03,80.874 103.2,69.181 95.641,70.756C93.793,71.141 92.964,71.476 92.964,71.476C92.964,71.476 93.652,70.397 94.964,69.933C109.917,64.678 121.415,85.436 90.141,93.658C90.141,93.656 90.5,93.331 90.609,93.041Z" style="fill:rgb(84,131,159);fill-rule:nonzero;"/>
        <path d="M76.491,1.587C76.491,1.587 89.459,14.563 64.188,34.51C43.922,50.516 59.567,59.64 64.181,70.069C52.35,59.396 43.672,49.999 49.493,41.254C58.041,28.42 81.722,22.195 76.491,1.587Z" style="fill:rgb(234,45,46);fill-rule:nonzero;"/>
        <path d="M52.214,126.021C74.69,127.458 109.214,125.221 110.031,114.585C110.031,114.585 108.46,118.617 91.454,121.816C72.268,125.428 48.6,125.007 34.567,122.69C34.567,122.691 37.442,125.071 52.214,126.021Z" style="fill:rgb(84,131,159);fill-rule:nonzero;"/>
    </g>
    <g transform="matrix(0.433572,0,0,0.433572,0.210805,-4.777918)">
        <g transform="matrix(1,0,0,1,-347.415119,-87.026455)">
            <path d="M407.659,123.619C412.865,123.804 422.543,123.68 422.543,123.68C422.709,123.724 434.737,140.306 435.483,140.46C435.559,140.384 451.932,123.619 451.932,123.619L470.834,123.619L440.464,152.023C440.464,152.023 461.209,179.278 461.676,180.681L446.578,180.681C446.578,180.681 432.822,162.61 432.577,162.712C432.182,162.875 419.802,176.683 415.505,180.681L397.724,180.681C397.724,180.681 424.876,151.431 425.01,151.256C425.428,150.713 407.668,123.921 407.659,123.619Z" style="fill:rgb(84,131,159);fill-opacity:1;"/>
        </g>
        <g transform="matrix(1,0,0,1,-347.415119,-87.026455)">
            <path d="M379.535,104.769C381,104.286 380.993,104.323 382.506,104.043C385.323,103.991 422.639,103.91 425.503,104.059C426.552,104.114 426.512,104.243 427.548,104.432C427.561,105.459 424.685,117.348 424.483,117.441C424.185,117.579 393.831,117.042 387.108,117.212C384.384,117.281 382.746,117.873 381.665,120.654C379.51,126.201 377.512,137.003 377.512,137.003L407.456,137.13C407.542,137.198 416.732,149.996 416.732,149.996C416.732,149.996 376.19,149.535 375.686,149.905C375.504,150.039 375.012,150.526 374.856,150.705C374.708,150.877 370.117,178.147 368.518,180.535C367.013,180.724 354.91,180.771 354.578,180.42C354.527,180.366 354.363,180.193 354.349,179.524C354.342,179.182 366.984,120.03 367.413,118.481C368.417,114.863 371.742,107.336 379.535,104.769Z" style="fill:rgb(84,131,159);fill-opacity:0.99;"/>
        </g>
    </g>
</svg>
