<?xml version="1.0" encoding="UTF-8" standalone="no"?>
<!DOCTYPE svg PUBLIC "-//W3C//DTD SVG 1.1//EN" "http://www.w3.org/Graphics/SVG/1.1/DTD/svg11.dtd">
<svg width="100%" height="100%" viewBox="0 0 128 128" version="1.1" xmlns="http://www.w3.org/2000/svg" xmlns:xlink="http://www.w3.org/1999/xlink" xml:space="preserve" xmlns:serif="http://www.serif.com/" style="fill-rule:evenodd;clip-rule:evenodd;stroke-linejoin:round;stroke-miterlimit:2;">
    <path d="M67.564,0.006C63.976,0.073 60.464,0.671 57.537,1.748C55.362,2.548 53.257,3.265 51.346,4.387C46.235,7.387 40.809,9.393 39.293,15.432C36.04,16.889 34.769,20.706 34.619,25.332C33.455,26.308 32.322,27.319 31.259,28.406C22.889,36.968 17.713,48.799 17.713,61.852C17.713,74.902 22.889,86.732 31.26,95.293C32.139,96.182 33.054,97.035 34.004,97.848C34.075,98.871 34.144,99.894 34.211,100.928C34.345,103.012 34.123,105.22 34.664,106.371C35.222,107.561 37.289,107.941 38.784,108.633C43.098,110.629 47.676,113.677 53.336,113.073C54.685,117.608 55.961,122.438 57.58,126.41C63.383,128.497 72.543,128.17 78.576,127.445C80.41,127.224 82.344,126.318 82.776,124.729C82.646,123.748 82.503,122.781 82.564,121.621C84.451,121.231 87.019,120.907 87.434,118.821C88.015,115.891 85.586,111.697 86.396,108.484C87.489,108.129 88.655,107.852 88.48,106.129C90.321,105.171 92.502,104.956 94.832,105.047C95.132,105.627 95.559,106.184 95.943,106.504C99.207,107.159 102.369,107.214 105.078,106.33C108.146,105.329 109.611,99.055 108.908,96.07C108.411,93.955 107.284,90.49 106.324,88.441C105.725,87.161 104.845,86.378 103.807,85.93C108.058,78.619 110.294,70.309 110.287,61.852C110.288,48.8 105.112,36.968 96.74,28.406C96.35,28.007 95.935,27.634 95.53,27.252C95.251,22.274 94.29,17.584 92.492,13.952C90.922,10.776 86.533,6.392 83.787,4.314C79.74,1.254 73.546,-0.106 67.564,0.006ZM68.043,2.846C72.89,2.798 78.279,4.506 81.93,6.566C84.98,8.287 87.231,11.616 89.377,14.385C86.367,13.492 83.807,15.025 84.273,17.508C86.793,15.199 91.095,17.483 92.367,20.035C93.585,22.476 93.577,26.092 93.764,29.721C94.217,38.519 92.154,47.596 87.732,53.955C86.551,55.653 85.559,57.508 83.896,58.678C79.891,61.491 73.801,64.041 68.588,62.293C61.698,59.981 58.568,55.39 54.779,50.133C54.882,53.02 56.913,55.39 58.918,57.6C60.664,59.525 62.77,61.7 65.035,62.598C63.145,62.154 60.243,62.014 59.455,63.711C55.045,63.418 50.948,62.968 48.861,59.979C47.218,57.622 45.546,53.615 44.797,50.519C44.644,49.884 44.383,48.529 44.447,48.182C44.693,46.839 47.085,46.25 46.145,44.373C44.409,44.357 44.017,45.953 42.424,46.111C38.299,46.519 35.389,40.644 35.576,37.1C35.735,34.085 38.282,31.2 41.768,31.582C44.231,31.852 45.067,34.54 45.545,36.932C46.965,37.008 49.018,36.872 49.689,35.764C49.593,33.06 48.338,30.892 48.424,28.408C48.586,23.74 51.128,19.528 49.166,14.93C51.266,10.165 57.427,6.405 61.984,4.133C63.749,3.253 65.84,2.868 68.043,2.846ZM55.503,5.19C55.703,5.222 55.885,5.376 56.061,5.563C56.03,6.375 55.231,6.358 54.691,6.618C53.851,7.65 52.624,8.134 51.601,9.267C50.553,10.427 49.378,13.543 47.988,13.887C47.291,14.061 46.496,13.767 45.888,13.806C44.283,13.907 43.153,14.729 41.525,14.966C43.627,10.37 50.185,6.652 55.301,5.202C55.367,5.183 55.436,5.179 55.504,5.19L55.503,5.19ZM64.244,15.163C61.608,15.166 58.604,17.985 57.822,20.136C57.504,21.01 57.002,22.726 58.264,23.032C59.677,19.883 61.991,16.845 66.652,17.931C67.547,16.459 65.948,15.378 64.766,15.201C64.593,15.175 64.419,15.163 64.244,15.163ZM47.59,15.642C49.392,20.228 46.296,25.679 47.45,30.694C47.802,32.23 49.022,34.614 47.072,34.665C47.123,30.295 41.704,27.523 37.619,30.093C37.346,26.778 36.871,22.12 39.131,19.633C41.216,17.338 44.091,15.907 47.59,15.642ZM89.365,23.239C89.216,25.757 90.152,27.272 90.801,29.052C89.679,29.758 87.496,29.317 86.231,29.87C86.141,33.593 91.989,31.76 92.879,29.687C91.55,27.755 90.639,25.437 89.586,23.249L89.366,23.239L89.365,23.239ZM69.039,23.296C68.347,25.26 70.227,28.595 71.281,30.28C69.908,31.614 67.441,30.507 65.604,30.42C63.851,33.19 69.025,33.711 71.246,33.056C71.854,32.876 72.909,31.965 73.053,31.556C73.669,29.822 72.425,29.062 71.785,28.438C70.365,27.054 70.038,25.128 69.039,23.296ZM79.588,25.106C79.454,25.089 79.293,25.138 79.1,25.278C78.975,29.894 82.405,33.715 84.963,36.798C86.213,38.303 87.721,39.161 86.334,41.499C84.098,42.349 80.478,44.785 77.369,44.253C75.719,43.971 76.09,42.099 75.498,41.081C74.361,42.577 74.808,44.842 75.978,45.861C81.458,46.402 85.188,44.065 88.531,41.917C88.398,41.075 89.543,39.557 89.225,38.29C89.115,37.854 88.124,37.222 87.521,36.563C85.069,33.888 81.707,29.893 80.371,26.767C80.251,26.487 80.169,25.183 79.588,25.107L79.588,25.106ZM34.846,28.821C35.003,29.541 35.163,30.269 35.041,30.878C34.938,31.394 34.238,32.054 34.098,32.39C32.308,36.657 33.743,42.268 35.811,45.3C37.061,47.132 39.131,48.757 41.861,49.188C41.97,50.823 42.364,52.231 43.119,53.888C43.597,54.935 45.382,56.818 44.725,58.155C44.394,58.829 41.487,60.294 40.523,60.872C37.269,62.825 34.909,64.021 31.904,66.185C29.96,67.584 26.919,67.763 27.398,70.991C27.722,73.17 28.962,75.869 29.672,78.054C30.439,80.411 31.539,82.57 32.17,85.017C32.936,87.987 33.361,90.863 33.654,93.727C33.523,93.597 33.384,93.475 33.254,93.343C25.377,85.285 20.502,74.158 20.502,61.851C20.502,49.541 25.377,38.414 33.254,30.354C33.771,29.829 34.302,29.318 34.846,28.821ZM95.604,31.274C102.969,39.251 107.498,49.998 107.498,61.851C107.509,70.184 105.206,78.358 100.848,85.46C97.753,85.61 94.198,87.251 91.822,88.433C93.835,83.137 95.567,77.648 97.342,71.708C97.872,69.928 98.921,67.406 98.686,65.561C98.466,63.828 95.762,62.005 94.338,60.631C93.548,59.869 89.858,57.069 89.645,56.021C89.437,55.007 91.149,52.71 91.699,51.561C92.489,49.917 93.055,47.905 93.445,46.536C94.754,41.936 95.525,36.56 95.604,31.274ZM40.609,33.741C39.342,33.721 38.193,34.558 37.922,36.526C38.484,36.157 38.938,35.111 39.952,35.608C39.062,37.346 39.276,40.728 40.486,41.828C40.479,39.766 40.157,36.24 41.916,36.347C43.146,36.422 43.396,39.057 44.443,39.655C45.166,36.177 42.722,33.773 40.609,33.741ZM90.66,44.104C87.987,45.323 85.83,47.1 82.338,47.436C82.168,48.012 82.241,49.467 82.334,50.424C86.902,50.329 89.104,47.066 90.66,44.104ZM68.775,46.025C70.11,49.598 76.129,50.857 81.219,50.604C81.211,49.546 81.216,48.473 81.004,47.605C77.044,47.721 71.689,47.557 68.775,46.025ZM68.223,48.881C65.649,48.884 67.82,50.317 68.256,50.877C69.158,52.037 70.216,54.015 71.863,54.891C74.461,56.271 79.623,55.693 81.494,54.931C82.187,54.651 82.743,53.874 83,53.217C77.16,53.357 70.237,53.939 68.223,48.881ZM87.658,58.713C89.658,60.323 90.868,61.84 92.785,63.563C93.826,64.495 95.873,65.613 96.08,67.121C96.196,67.964 95.678,70.026 95.488,70.973C94.648,75.127 92.758,80.616 90.959,84.969C90.305,86.551 89.68,88.529 88.816,88.871C86.453,89.807 83.583,88.781 81.574,90.031C84.274,85.346 87.213,80.921 89.859,76.18C89.456,75.239 88.469,74.838 88.182,73.791C90.04,70.281 89.186,59.388 84.443,61.688C85.107,60.714 86.847,59.91 87.658,58.713ZM45.936,61.193C46.366,61.023 49.512,65.116 49.976,65.447C52.526,67.257 55.693,68.687 58.654,70.1C58.835,71.459 59.255,73.22 59.992,75.576C60.805,78.178 61.476,81.85 64.914,79.975C64.587,81.46 62.678,82.383 63.205,84.115C63.535,85.203 67.142,86.546 68.287,87.191C70.399,88.381 72.326,89.039 73.947,89.734C66.577,89.937 59.657,90.536 52.846,91.463C52.03,90.199 52.357,88.251 52.271,86.238C52.177,84.053 53.086,79.124 52.227,78.818C51.256,78.473 51.075,80.442 51.041,80.875C50.859,83.184 52.138,88.072 50.875,90.834C49.493,90.444 48.813,89.403 47.518,88.932C47.01,90.532 48.57,90.609 48.41,91.625C48.198,92.968 45.652,91.845 45.666,93.842C47.323,94.107 49.866,93.328 51.636,94.074C52.1,99.507 52.844,104.654 53.66,110.426C46.612,110.06 42.048,106.558 36.854,104.129C36.53,92.639 34.7,80.719 30.166,70.99C34.922,67.32 40.244,63.438 45.936,61.193ZM85.018,63.818C85.333,63.834 85.63,63.912 85.9,64.07C86.933,64.672 87.371,68.105 87.451,69.775C87.518,71.161 87.326,72.559 86.761,73.293C83.86,73.208 81.239,72.863 78.943,72.215C79.099,71.274 78.807,70.35 79.041,69.672C79.681,69.212 80.754,69.22 81.721,69.112C80.884,68.7 79.709,68.538 78.744,68.775C78.722,68.122 78.429,67.716 78.252,67.205C79.68,66.695 82.807,63.71 85.018,63.818ZM79.816,63.945C78.599,64.74 77.562,65.731 76.393,66.58C73.8,66.708 72.385,66.401 70.48,64.912C70.512,64.792 70.702,64.846 70.709,64.699C73.485,65.936 77.014,64.196 79.816,63.945ZM52.469,63.995C53.916,64.999 56.717,64.751 58.848,65.125C58.958,65.807 58.406,66.705 58.416,67.656C56.622,67.546 50.988,65.497 52.469,63.994L52.469,63.995ZM62.242,64.566C62.397,64.563 62.564,64.579 62.742,64.613C65.047,65.053 67.726,66.113 69.51,67.088C70.6,67.684 71.23,68.422 72.885,68.548L72.859,69.211C71.953,69.806 70.49,69.799 69.496,70.299C70.962,70.363 72.116,70.717 73.116,71.215C73.093,71.768 73.07,72.32 73.049,72.873C71.389,74.01 69.871,75.703 67.916,76.77C66.991,77.274 63.747,78.571 62.764,78.342C62.207,78.212 62.158,77.522 61.936,76.872C61.462,75.477 60.371,73.257 60.276,71.158C60.162,68.673 59.919,64.614 62.242,64.566ZM75.535,68.029C75.673,68.019 75.803,68.023 75.925,68.041C78.052,68.354 77.899,72.763 74.535,71.711C74.282,70.267 73.988,69.855 74.102,68.596C74.643,68.235 75.122,68.062 75.535,68.029ZM77.471,73.045C78.689,73.175 79.655,74.855 81.393,74.745C81.114,79.275 81.259,83.825 79.994,87.977C77.637,83.655 76.251,78.437 73.199,74.76C73.522,74.418 73.809,74.037 74.125,73.687C75.507,74.265 76.408,72.931 77.471,73.045ZM84.481,74.486C86.158,74.473 87.531,75.57 88.287,76.783C85.923,80.833 83.66,84.991 80.855,88.563C82.031,85.105 82.535,79.318 82.713,74.906C83.265,74.64 83.868,74.496 84.48,74.486L84.481,74.486ZM78.146,75.787C77.648,75.814 77.254,76.231 77.254,76.729C77.255,77.244 77.679,77.668 78.194,77.668C78.71,77.668 79.134,77.244 79.134,76.728C79.134,76.212 78.71,75.788 78.194,75.788C78.177,75.788 78.163,75.786 78.146,75.788L78.146,75.787ZM71.711,76.029C74.511,79.584 76.214,84.155 78.09,88.566C73.658,87.23 69.13,85.063 65.246,82.866C66.009,79.561 68.997,77.849 71.711,76.029ZM79.086,80.149C78.579,80.162 78.17,80.583 78.17,81.09C78.17,81.606 78.594,82.031 79.111,82.031C79.627,82.031 80.052,81.606 80.052,81.09C80.052,80.583 79.642,80.162 79.135,80.149L79.085,80.149L79.086,80.149ZM101.221,87.758C102.437,87.788 103.646,88.775 104.176,89.576C105.131,91.02 106.024,95.272 106.526,97.529C107.272,100.889 105.594,104.159 102.924,104.807C100.98,105.279 97.998,105.402 96.724,104.787C98.283,103.936 100.622,103.932 102.426,103.347C99.843,102.235 96.02,103.283 92.914,103.09C92.539,99.254 92.257,95.097 91.348,92.07C93.161,90.143 97.541,89.68 100.028,88.088C100.383,87.859 100.799,87.744 101.221,87.758ZM101.01,91.336C97.827,91.429 95.339,92.273 93.92,94.273C96.502,94.439 98.363,91.866 101.01,91.336ZM88.469,92.121C88.692,92.129 88.913,92.157 89.131,92.205C90.823,95.115 91.185,99.952 91.129,103.465C90.075,103.668 89.39,104.272 88.109,104.232C87.783,100.231 86.855,96.025 86.473,92.212C87.083,92.201 87.792,92.092 88.469,92.122L88.469,92.121ZM68.867,92.164C72.208,92.11 75.447,92.307 78.252,92.891C78.936,97.344 78.682,101.735 79.182,106.1C79.844,111.907 79.349,118.533 80.482,123.975C74.31,125.888 65.892,125.705 58.908,123.584C55.762,113.942 54.046,104.787 52.861,93.898C57.449,93.04 63.299,92.254 68.867,92.164ZM83.691,92.547C84.795,96.534 84.728,101.607 85.27,106.115C83.601,106.481 82.382,106.66 80.586,106.93C80.229,102.247 79.958,97.635 80.021,92.959C81.293,92.533 82.416,92.559 83.691,92.547ZM98.178,94.844C96.918,94.86 95.784,95.135 95.298,95.877C97.487,96.057 100.02,95.707 102.178,95.479C101.194,95.139 99.605,94.826 98.178,94.844ZM97.816,98.084C96.689,98.098 95.693,98.312 95.182,98.861C97.486,99.055 100.502,99.101 102.926,99.049C101.943,98.591 99.696,98.061 97.816,98.084ZM83.098,108.82C83.333,108.783 83.548,108.775 83.725,108.822C84.072,111.867 85.28,114.954 85.129,118.289C83.789,118.741 83.019,119.135 81.223,119.133C81.096,116.299 80.717,111.967 80.83,109.266C81.493,109.31 82.39,108.932 83.098,108.82Z" style="fill:white;fill-rule:nonzero;"/>
</svg>
