<?xml version="1.0" encoding="UTF-8" standalone="no"?>
<!DOCTYPE svg PUBLIC "-//W3C//DTD SVG 1.1//EN" "http://www.w3.org/Graphics/SVG/1.1/DTD/svg11.dtd">
<svg width="100%" height="100%" viewBox="0 0 128 128" version="1.1" xmlns="http://www.w3.org/2000/svg" xmlns:xlink="http://www.w3.org/1999/xlink" xml:space="preserve" xmlns:serif="http://www.serif.com/" style="fill-rule:evenodd;clip-rule:evenodd;stroke-linejoin:round;stroke-miterlimit:2;">
    <path d="M21.91,0.007C20.425,0.075 18.889,0.641 18.125,2.44C16.945,6.379 16.331,10.466 16.299,14.578L22.821,17.734C22.7,13.856 22.852,9.975 23.276,6.119C22.973,9.933 22.968,13.765 23.263,17.579C26.643,14.703 29.869,11.651 32.928,8.435C31.629,4.981 29.008,2.183 25.647,0.66C22.286,-0.863 23.821,-0.08 21.91,0.007ZM23.263,17.578C23.366,19.408 23.525,21.457 23.723,23.725C23.727,23.841 23.74,23.963 23.763,24.078C23.951,26.061 24.193,28.194 24.504,30.52C24.767,32.529 25.063,34.636 25.419,36.922C25.713,38.894 26.079,40.962 26.453,43.156L26.419,43.185C26.486,43.242 26.495,43.288 26.491,43.319C26.544,43.614 26.598,43.873 26.647,44.171C26.817,45.038 26.969,45.917 27.147,46.801C27.33,47.765 27.531,48.747 27.723,49.756C27.817,50.265 27.916,50.773 28.022,51.292C28.34,52.846 28.683,54.44 29.035,56.077C29.491,58.096 29.946,60.167 30.455,62.323C30.915,64.363 31.45,66.489 31.991,68.649C32.517,70.711 33.048,72.823 33.633,75.01C34.147,76.943 34.696,78.93 35.253,80.952C35.253,81.046 35.32,81.152 35.339,81.251C35.917,83.315 36.505,85.376 37.102,87.434C37.106,87.481 37.12,87.526 37.142,87.568L39.785,85.135C39.719,85.135 39.67,85.193 39.58,85.229C39.918,84.82 40.243,84.401 40.555,83.972C40.636,84.169 40.715,84.367 40.792,84.566C40.465,84.777 40.129,84.974 39.785,85.157L37.142,87.59C37.241,87.893 37.32,88.196 37.437,88.514C37.83,89.911 38.275,91.363 38.727,92.82C38.176,92.604 37.64,92.351 37.124,92.061C36.79,90.911 36.458,89.76 36.129,88.608C36.018,88.197 35.902,87.813 35.789,87.398L35.767,87.387C35.305,85.759 34.85,84.13 34.401,82.499C34.272,82.021 34.156,81.555 34.021,81.077C33.468,79.011 32.913,76.912 32.352,74.796C31.822,72.749 31.307,70.697 30.808,68.642C30.299,66.565 29.812,64.475 29.325,62.39C28.843,60.302 28.365,58.12 27.919,55.99C27.468,53.86 27.049,51.734 26.629,49.618C26.479,48.85 26.342,48.105 26.205,47.332C25.964,46.029 25.745,44.712 25.509,43.39C25.505,43.317 25.49,43.245 25.464,43.176L16.799,38.754C16.822,38.891 16.831,39.029 16.835,39.171C17.009,41.131 17.174,43.124 17.411,45.116C17.643,47.102 17.892,49.182 18.196,51.245C18.451,52.982 18.727,54.703 19.013,56.443C19.07,56.787 19.143,57.151 19.201,57.49C19.964,61.662 20.939,65.792 22.121,69.865C22.495,71.123 22.866,72.342 23.245,73.495C23.575,74.462 23.932,75.436 24.276,76.396C25.096,78.626 26.011,80.82 27.017,82.972L27.042,82.985C27.068,83.072 27.097,83.154 27.138,83.238C28.324,85.798 29.669,88.282 31.165,90.675C31.213,90.745 31.263,90.848 31.316,90.92C29.144,90.327 26.88,90.153 24.643,90.407C28.707,91.536 32.412,93.695 35.397,96.675C33.948,97.945 32.197,98.823 30.312,99.224C32.184,99.532 34.104,99.361 35.892,98.728C34.174,100.579 33,102.869 32.499,105.344C33.732,102.907 35.647,100.88 38.009,99.51C38.422,100.88 38.87,102.3 39.309,103.706C35.426,111.274 31.474,119.416 27.446,128C28.439,127.867 29.301,127.24 29.732,126.335C30.436,124.835 34.179,116.851 39.915,105.652C42.12,112.608 44.606,119.952 47.307,127.58C47.849,126.877 48.003,125.947 47.717,125.107C47.192,123.662 44.334,115.575 40.738,104.057C41.589,102.406 42.447,100.757 43.31,99.112C43.991,99.283 44.649,99.536 45.27,99.864C46.561,101.107 47.493,102.674 47.968,104.402C48.168,102.292 47.531,100.187 46.196,98.541C53.316,99.916 59.784,99.001 63.731,94.224C64.086,93.779 64.422,93.321 64.74,92.849C62.855,94.586 60.157,95.147 57.736,94.304C61.982,93.399 65.806,91.1 68.597,87.774C69.288,86.949 69.946,86.097 70.57,85.22C66.25,88.77 60.355,89.77 55.106,87.845L55.057,87.842C54.997,87.819 54.936,87.805 54.857,87.773C60.884,87.442 66.656,85.219 71.347,81.421C73.675,79.522 75.774,77.359 77.601,74.974C79.19,72.907 80.649,70.744 81.971,68.497C83.303,66.245 84.545,63.941 85.695,61.591C84.424,62.015 83.1,62.264 81.762,62.331L80.99,62.371L80.204,62.371C84.616,61.282 88.433,58.514 90.838,54.658C89.047,55.524 87.114,56.056 85.132,56.229C84.824,56.261 84.494,56.261 84.164,56.265L83.914,56.265C85.417,55.903 86.867,55.351 88.23,54.622C88.498,54.484 88.761,54.332 89.012,54.162C89.404,53.917 89.771,53.645 90.137,53.368C90.373,53.176 90.596,53.002 90.829,52.81C91.368,52.342 91.866,51.83 92.319,51.278C92.476,51.1 92.624,50.943 92.749,50.756C92.94,50.484 93.127,50.233 93.293,49.975C94.004,48.96 94.674,47.918 95.302,46.85C95.569,46.395 95.81,45.962 96.021,45.56C96.096,45.395 96.191,45.256 96.271,45.104C96.49,44.644 96.699,44.252 96.851,43.894C97.034,43.484 97.199,43.061 97.337,42.627C97.158,42.739 96.966,42.829 96.766,42.895C94.905,43.548 92.956,43.912 90.985,43.975C90.959,43.961 90.931,43.961 90.909,43.975C90.774,43.971 90.638,43.971 90.503,43.975C93.427,43.284 96.087,41.758 98.159,39.582C98.686,39.019 99.201,38.445 99.703,37.859C101.333,35.983 102.869,34.029 104.306,32.002C105.625,30.161 106.845,28.252 107.962,26.283C108.551,25.258 109.086,24.204 109.565,23.123C109.897,22.334 110.202,21.534 110.48,20.725C105.481,20.855 100.479,20.73 95.494,20.355C93.957,22.1 92.454,23.874 90.984,25.676C90.891,25.774 90.807,25.88 90.734,25.993C89.192,27.891 87.685,29.817 86.213,31.77C84.843,33.596 83.378,35.538 81.851,37.667C80.525,39.482 79.185,41.433 77.762,43.482L77.672,43.479C77.696,43.564 77.663,43.609 77.637,43.631C77.445,43.903 77.279,44.163 77.087,44.435C76.534,45.269 75.957,46.095 75.4,46.948C74.777,47.899 74.148,48.846 73.512,49.788C73.191,50.274 72.865,50.756 72.534,51.265C71.552,52.77 70.565,54.322 69.544,55.921C68.253,57.96 66.98,60.011 65.726,62.073C64.449,64.169 63.186,66.273 61.936,68.385C60.723,70.461 59.476,72.585 58.209,74.787C57.083,76.75 55.949,78.787 54.78,80.872C54.717,80.961 54.674,81.082 54.61,81.175C53.432,83.302 52.267,85.436 51.115,87.577C51.084,87.613 51.061,87.656 51.048,87.702L51.044,87.702C50.87,88.05 50.69,88.358 50.526,88.688C49.591,90.421 48.668,92.161 47.758,93.907C47.758,93.93 47.727,93.951 47.722,93.974C47.584,94.237 47.446,94.469 47.334,94.728C46.709,95.912 46.16,97.02 44.926,99.398C44.544,99.03 44.123,98.706 43.669,98.431C44.281,97.267 44.874,96.128 45.517,94.921C45.767,94.464 46.035,93.983 46.285,93.487L46.495,93.09C47.436,91.353 48.405,89.568 49.41,87.742C49.646,87.319 49.865,86.917 50.097,86.496L50.097,86.474L49.12,83.557C49.115,83.523 49.109,83.488 49.104,83.454L50.106,86.443C51.021,84.773 51.964,83.113 52.901,81.412C53.151,80.962 53.436,80.497 53.7,80.002C54.896,77.894 56.118,75.77 57.356,73.599C58.554,71.527 59.774,69.467 61.016,67.421C62.27,65.355 63.526,63.278 64.789,61.207C66.086,59.097 67.408,57.001 68.753,54.921C70.096,52.836 71.436,50.81 72.771,48.77C73.257,48.034 73.753,47.305 74.258,46.582C75.102,45.336 75.968,44.092 76.833,42.855C76.87,42.787 76.926,42.717 76.963,42.645L76.967,42.658C78.364,40.77 79.731,38.858 81.097,36.988C82.552,35.036 84.027,33.098 85.521,31.176C87.022,29.255 88.567,27.369 90.155,25.52C90.244,25.405 90.342,25.297 90.427,25.203C91.913,23.469 93.437,21.768 94.998,20.101L92.258,12.395C91.93,12.704 91.584,13.007 91.23,13.333C89.86,14.605 88.513,15.901 87.19,17.221C85.545,18.862 83.923,20.526 82.324,22.212C80.743,23.895 79.185,25.599 77.65,27.324C76.291,28.871 74.947,30.432 73.62,32.007L73.463,32.185L73.479,32.232C73.393,32.349 73.299,32.46 73.199,32.565C71.78,34.283 70.339,36.02 68.927,37.819C67.484,39.649 66.072,41.504 64.691,43.381C63.518,44.981 62.36,46.593 61.218,48.216C60.99,48.538 60.758,48.885 60.539,49.207C59.168,51.261 57.838,53.273 56.669,55.207C55.408,57.268 54.205,59.364 53.062,61.493C52.383,62.756 51.722,64.028 51.079,65.309C50.575,66.349 50.089,67.417 49.606,68.461C48.496,70.908 47.488,73.4 46.584,75.93L47.042,77.294C47.038,77.302 47.034,77.31 47.03,77.318L46.575,75.961C46.521,76.064 46.477,76.171 46.441,76.278C45.877,77.858 45.365,79.455 44.905,81.068C44.137,82.069 43.237,82.961 42.229,83.72C42.002,83.382 41.766,83.05 41.519,82.726C43.979,79.256 45.526,75.221 46.017,70.996C46.299,68.355 46.27,65.69 45.932,63.055C45.655,60.765 45.231,58.496 44.664,56.26C44.103,54.017 43.456,51.797 42.723,49.604C42.184,50.662 41.505,51.642 40.705,52.519L40.249,53.019C40.097,53.189 39.927,53.337 39.759,53.515C41.861,50.09 42.543,45.975 41.66,42.055C41.07,43.711 40.183,45.247 39.044,46.586C38.87,46.796 38.664,47.001 38.459,47.207C38.405,47.247 38.365,47.301 38.294,47.359C39.017,46.196 39.587,44.945 39.99,43.636C40.07,43.381 40.139,43.122 40.187,42.859C40.281,42.461 40.343,42.058 40.401,41.658C40.424,41.389 40.468,41.144 40.491,40.877C40.545,40.248 40.545,39.617 40.491,38.988C40.491,38.779 40.491,38.592 40.441,38.395C40.388,38.101 40.352,37.828 40.298,37.56C40.108,36.486 39.88,35.418 39.615,34.36C39.511,33.939 39.394,33.52 39.267,33.105C39.214,32.953 39.187,32.805 39.133,32.645C38.99,32.23 38.875,31.845 38.749,31.529C38.608,31.152 38.447,30.782 38.267,30.422C38.223,30.603 38.159,30.778 38.075,30.944C37.327,32.465 36.357,33.867 35.198,35.104L35.088,35.203C35.067,35.216 35.053,35.237 35.048,35.261C34.922,35.387 34.803,35.52 34.691,35.658C34.691,35.635 34.713,35.616 34.727,35.596L34.777,35.551C36.19,33.297 36.916,30.68 36.865,28.02C36.865,27.368 36.817,26.68 36.763,25.975C36.634,23.783 36.392,21.599 36.04,19.431C35.733,17.449 35.32,15.485 34.803,13.547C34.533,12.536 34.215,11.54 33.848,10.56C33.564,9.861 33.259,9.17 32.933,8.489C29.864,11.679 26.637,14.713 23.263,17.579L23.263,17.578ZM105.047,3.717C104.476,3.73 103.913,3.851 103.387,4.074C99.315,6.314 95.58,9.119 92.293,12.404L95.033,20.132C98.015,16.912 101.224,13.911 104.636,11.15C101.351,13.97 98.294,17.047 95.494,20.35C100.495,20.722 105.512,20.832 110.524,20.68C112.229,16.862 112.345,12.518 110.846,8.614C109.347,4.71 108.707,3.666 105.047,3.717ZM16.294,14.592C16.294,14.984 16.25,15.391 16.232,15.819C16.169,17.377 16.121,19.019 16.107,20.779C16.107,22.742 16.107,24.792 16.143,26.935C16.187,28.912 16.272,30.971 16.375,33.065C16.482,34.855 16.598,36.663 16.745,38.511L16.745,38.721L25.459,43.131C25.169,41.073 24.853,39.025 24.544,36.993C24.244,34.864 23.971,32.732 23.723,30.596C23.47,28.455 23.27,26.309 23.125,24.158C23.125,24.028 23.102,23.9 23.125,23.788C22.959,21.772 22.854,19.752 22.808,17.73L16.294,14.592ZM90.324,43.972L90.367,43.975C90.351,43.975 90.336,43.975 90.32,43.975L90.324,43.973L90.324,43.972ZM48.115,80.5L48.863,82.736C48.861,82.748 48.858,82.76 48.856,82.772L48.109,80.54C48.111,80.527 48.113,80.513 48.115,80.5ZM37.328,92.766C37.896,93.391 38.526,93.958 39.207,94.458C39.319,94.828 39.537,95.513 39.662,95.914C39.209,95.959 38.758,96.025 38.31,96.11C38.251,95.915 38.196,95.737 38.138,95.54C38.004,95.08 37.882,94.625 37.732,94.166C37.69,94.036 37.66,93.92 37.62,93.782C37.522,93.443 37.425,93.105 37.328,92.766ZM39.238,97.541C39.566,97.583 39.892,97.635 40.216,97.697C40.352,98.134 40.384,98.23 40.562,98.804C40.986,98.789 41.41,98.805 41.832,98.851C41.269,99.918 40.702,101.025 40.136,102.119C39.683,100.653 39.216,99.119 38.747,97.559C38.911,97.55 39.074,97.544 39.238,97.541Z" style="fill:white;fill-rule:nonzero;"/>
</svg>
