<?xml version="1.0" encoding="UTF-8" standalone="no"?>
<!DOCTYPE svg PUBLIC "-//W3C//DTD SVG 1.1//EN" "http://www.w3.org/Graphics/SVG/1.1/DTD/svg11.dtd">
<svg width="100%" height="100%" viewBox="0 0 160 160" version="1.1" xmlns="http://www.w3.org/2000/svg" xmlns:xlink="http://www.w3.org/1999/xlink" xml:space="preserve" xmlns:serif="http://www.serif.com/" style="fill-rule:evenodd;clip-rule:evenodd;stroke-linejoin:round;stroke-miterlimit:2;">
    <g transform="matrix(1.102341,0,0,1.048778,-8.866312,-4.642384)">
        <path d="M80.616,4.426L137.827,42.566L137.827,118.845L80.616,156.985L23.405,118.845L23.405,42.566L80.616,4.426Z" style="fill:white;"/>
    </g>
    <g transform="matrix(1.019206,0,0,1.019206,-2.667763,-2.688145)">
        <path d="M9.66,53.52C9.66,46 15,36.81 21.47,33.06L69.29,5.45C75.79,1.7 86.42,1.7 92.92,5.45L140.74,33.06C147.24,36.81 152.56,46.06 152.56,53.52L152.56,108.74C152.56,116.24 147.24,125.45 140.74,129.2L92.92,156.81C86.42,160.56 75.79,160.56 69.29,156.81L21.47,129.2C14.98,125.45 9.66,116.2 9.66,108.74L9.66,53.52ZM117.461,38.868L86.6,21.048C83.163,19.227 79.037,19.227 75.6,21.048L44.797,38.83L56.32,45.82L81.11,31.508L105.951,45.849L117.461,38.868ZM25.59,107.658C25.687,111.566 27.765,115.168 31.1,117.208L75.59,142.898C77.277,143.835 79.18,144.318 81.11,144.298C83.037,144.318 84.936,143.835 86.62,142.898L131.1,117.208C134.432,115.167 136.507,111.564 136.6,107.658L136.6,106.365L136.62,106.365L136.65,53.278C136.629,50.05 133.968,47.405 130.74,47.405C129.649,47.405 128.58,47.707 127.65,48.278L124.14,50.41L124.14,50.378L119.098,53.44L119.125,53.456L81.11,76.548L43.068,53.471L43.189,53.401L38.21,50.378L38.21,50.523L34.59,48.328C33.662,47.762 32.596,47.463 31.51,47.463C28.283,47.463 25.62,50.101 25.59,53.328L25.59,107.658ZM124.81,63.828L124.81,107.208L81.11,132.438L37.41,107.208L37.41,63.828L78.04,88.508C79.919,89.655 82.291,89.655 84.17,88.508L124.81,63.828Z" style="fill:rgb(239,66,66);"/>
    </g>
</svg>
