<?xml version="1.0" encoding="UTF-8" standalone="no"?>
<!DOCTYPE svg PUBLIC "-//W3C//DTD SVG 1.1//EN" "http://www.w3.org/Graphics/SVG/1.1/DTD/svg11.dtd">
<svg width="100%" height="100%" viewBox="0 0 256 256" version="1.1" xmlns="http://www.w3.org/2000/svg" xmlns:xlink="http://www.w3.org/1999/xlink" xml:space="preserve" xmlns:serif="http://www.serif.com/" style="fill-rule:evenodd;clip-rule:evenodd;stroke-linejoin:round;stroke-miterlimit:2;">
    <g id="Idle" transform="matrix(1.28,0,0,1.28,-35.693871,-35.84)">
        <path d="M171.173,107.591C160.636,61.11 138.676,48.736 133.074,39.989C130.764,36.135 128.717,32.13 126.949,28C126.653,32.129 126.109,34.731 122.599,37.862C115.552,44.145 85.622,68.535 83.103,121.348C80.756,170.59 119.303,200.953 124.395,204.092C128.311,206.019 133.08,204.133 135.407,202.364C153.988,189.612 179.376,155.614 171.193,107.591" style="fill:white;fill-rule:nonzero;"/>
        <path d="M128.545,177.871C127.575,190.059 126.88,197.141 124.416,204.106C124.416,204.106 126.033,215.709 127.169,228L131.188,228C132.147,219.345 133.61,210.753 135.572,202.268C130.369,199.708 128.745,188.566 128.545,177.871Z" style="fill:white;fill-rule:nonzero;"/>
        <path d="M135.565,202.275C130.307,199.846 128.786,188.469 128.552,177.871C129.852,160.388 130.231,142.849 129.688,125.326C129.412,116.132 129.818,40.168 127.423,29.046C129.062,32.813 130.949,36.466 133.074,39.982C138.676,48.736 160.643,61.11 171.173,107.591C179.376,155.532 154.126,189.44 135.565,202.275Z" style="fill:white;fill-rule:nonzero;"/>
    </g>
</svg>
