<?xml version="1.0" encoding="UTF-8" standalone="no"?>
<!DOCTYPE svg PUBLIC "-//W3C//DTD SVG 1.1//EN" "http://www.w3.org/Graphics/SVG/1.1/DTD/svg11.dtd">
<svg width="100%" height="100%" viewBox="0 0 240 240" version="1.1" xmlns="http://www.w3.org/2000/svg" xmlns:xlink="http://www.w3.org/1999/xlink" xml:space="preserve" xmlns:serif="http://www.serif.com/" style="fill-rule:evenodd;clip-rule:evenodd;stroke-linejoin:round;stroke-miterlimit:2;">
    <rect x="0" y="0" width="240" height="240" style="fill:rgb(0,30,54);fill-rule:nonzero;"/>
    <g transform="matrix(1,0,0,1,-6.204175,6.5)">
        <path d="M54,164.1L54,61.2C54,60.5 54.3,60.1 55,60.1C56.7,60.1 58.3,60.1 60.6,60C63,59.9 65.5,59.9 68.2,59.8C70.9,59.7 73.8,59.7 76.9,59.6C80,59.5 83,59.5 86,59.5C94.2,59.5 101,60.5 106.6,62.6C111.6,64.3 116.2,67.1 120,70.8C123.2,74 125.7,77.9 127.3,82.2C128.8,86.4 129.6,90.7 129.6,95.2C129.6,103.8 127.6,110.9 123.6,116.5C119.6,122.1 114,126.3 107.5,128.7C100.7,131.2 93.2,132.1 85,132.1C82.6,132.1 81,132.1 80,132C79,131.9 77.6,131.9 75.7,131.9L75.7,164C75.8,164.7 75.3,165.3 74.6,165.4L55.2,165.4C54.4,165.4 54,165 54,164.1ZM75.8,79.4L75.8,113C77.2,113.1 78.5,113.2 79.7,113.2L85,113.2C88.9,113.2 92.8,112.6 96.5,111.4C99.7,110.5 102.5,108.6 104.7,106.1C106.8,103.6 107.8,100.2 107.8,95.8C107.9,92.7 107.1,89.6 105.5,86.9C103.8,84.3 101.4,82.3 98.5,81.2C94.8,79.7 90.8,79.1 86.7,79.2C84.1,79.2 81.8,79.2 79.9,79.3C77.9,79.2 76.5,79.3 75.8,79.4Z" style="fill:rgb(49,168,255);fill-rule:nonzero;"/>
    </g>
    <g transform="matrix(1,0,0,1,-6.204175,6.5)">
        <path d="M192,106.9C189,105.3 185.8,104.2 182.4,103.5C178.7,102.7 175,102.2 171.2,102.2C169.2,102.1 167.1,102.4 165.2,102.9C163.9,103.2 162.8,103.9 162.1,104.9C161.6,105.7 161.3,106.7 161.3,107.6C161.3,108.5 161.7,109.4 162.3,110.2C163.2,111.3 164.4,112.2 165.7,112.9C168,114.1 170.4,115.2 172.8,116.2C178.2,118 183.4,120.5 188.2,123.5C191.5,125.6 194.2,128.4 196.1,131.8C197.7,135 198.5,138.5 198.4,142.1C198.5,146.8 197.1,151.5 194.5,155.4C191.7,159.4 187.8,162.5 183.3,164.3C178.4,166.4 172.4,167.5 165.2,167.5C160.6,167.5 156.1,167.1 151.6,166.2C148.1,165.6 144.6,164.5 141.4,163C140.7,162.6 140.2,161.9 140.3,161.1L140.3,143.7C140.3,143.4 140.4,143 140.7,142.8C141,142.6 141.3,142.7 141.6,142.9C145.5,145.2 149.6,146.8 154,147.8C157.8,148.8 161.8,149.3 165.8,149.3C169.6,149.3 172.3,148.8 174.1,147.9C175.7,147.2 176.8,145.5 176.8,143.7C176.8,142.3 176,141 174.4,139.7C172.8,138.4 169.5,136.9 164.6,135C159.5,133.2 154.8,130.8 150.4,127.8C147.3,125.6 144.7,122.7 142.8,119.3C141.2,116.1 140.4,112.6 140.5,109.1C140.5,104.8 141.7,100.7 143.9,97C146.4,93 150.1,89.8 154.4,87.8C159.1,85.4 165,84.3 172.1,84.3C176.2,84.3 180.4,84.6 184.5,85.2C187.5,85.6 190.4,86.4 193.1,87.5C193.5,87.6 193.9,88 194.1,88.4C194.2,88.8 194.3,89.2 194.3,89.6L194.3,105.9C194.3,106.3 194.1,106.7 193.8,106.9C192.9,107.1 192.4,107.1 192,106.9Z" style="fill:rgb(49,168,255);fill-rule:nonzero;"/>
    </g>
</svg>
