<?xml version="1.0" encoding="UTF-8" standalone="no"?>
<!DOCTYPE svg PUBLIC "-//W3C//DTD SVG 1.1//EN" "http://www.w3.org/Graphics/SVG/1.1/DTD/svg11.dtd">
<svg width="100%" height="100%" viewBox="0 0 240 240" version="1.1" xmlns="http://www.w3.org/2000/svg" xmlns:xlink="http://www.w3.org/1999/xlink" xml:space="preserve" xmlns:serif="http://www.serif.com/" style="fill-rule:evenodd;clip-rule:evenodd;stroke-linejoin:round;stroke-miterlimit:2;">
    <path d="M0,0L240,0L240,240L0,240L0,0ZM185.796,113.4C186.196,113.6 186.696,113.6 187.596,113.4C187.896,113.2 188.096,112.8 188.096,112.4L188.096,96.1C188.096,95.7 187.996,95.3 187.896,94.9C187.696,94.5 187.296,94.1 186.896,94C184.196,92.9 181.296,92.1 178.296,91.7C174.196,91.1 169.996,90.8 165.896,90.8C158.796,90.8 152.896,91.9 148.196,94.3C143.896,96.3 140.196,99.5 137.696,103.5C135.496,107.2 134.296,111.3 134.296,115.6C134.196,119.1 134.996,122.6 136.596,125.8C138.496,129.2 141.096,132.1 144.196,134.3C148.596,137.3 153.296,139.7 158.396,141.5C163.296,143.4 166.596,144.9 168.196,146.2C169.796,147.5 170.596,148.8 170.596,150.2C170.596,152 169.496,153.7 167.896,154.4C166.096,155.3 163.396,155.8 159.596,155.8C155.596,155.8 151.596,155.3 147.796,154.3C143.396,153.3 139.296,151.7 135.396,149.4C135.096,149.2 134.796,149.1 134.496,149.3C134.196,149.5 134.096,149.9 134.096,150.2L134.096,167.6C133.996,168.4 134.496,169.1 135.196,169.5C138.396,171 141.896,172.1 145.396,172.7C149.896,173.6 154.396,174 158.996,174C166.196,174 172.196,172.9 177.096,170.8C181.596,169 185.496,165.9 188.296,161.9C190.896,158 192.296,153.3 192.196,148.6C192.296,145 191.496,141.5 189.896,138.3C187.996,134.9 185.296,132.1 181.996,130C177.196,127 171.996,124.5 166.596,122.7C164.196,121.7 161.796,120.6 159.496,119.4C158.196,118.7 156.996,117.8 156.096,116.7C155.496,115.9 155.096,115 155.096,114.1C155.096,113.2 155.396,112.2 155.896,111.4C156.596,110.4 157.696,109.7 158.996,109.4C160.896,108.9 162.996,108.6 164.996,108.7C168.796,108.7 172.496,109.2 176.196,110C179.596,110.7 182.796,111.8 185.796,113.4ZM47.796,170.6C47.796,171.5 48.196,171.9 48.996,171.9L68.396,171.9C69.096,171.8 69.596,171.2 69.496,170.5L69.496,138.4C71.396,138.4 72.796,138.4 73.796,138.5C74.796,138.6 76.396,138.6 78.796,138.6C86.996,138.6 94.496,137.7 101.296,135.2C107.796,132.8 113.396,128.6 117.396,123C121.396,117.4 123.396,110.3 123.396,101.7C123.396,97.2 122.596,92.9 121.096,88.7C119.496,84.4 116.996,80.5 113.796,77.3C109.996,73.6 105.396,70.8 100.396,69.1C94.796,67 87.996,66 79.796,66C76.796,66 73.796,66 70.696,66.1C67.596,66.2 64.696,66.2 61.996,66.3C59.296,66.4 56.796,66.4 54.396,66.5C52.096,66.6 50.496,66.6 48.796,66.6C48.096,66.6 47.796,67 47.796,67.7L47.796,170.6ZM69.596,85.9C70.296,85.8 71.696,85.7 73.696,85.8C75.596,85.7 77.896,85.7 80.496,85.7C84.596,85.6 88.596,86.2 92.296,87.7C95.196,88.8 97.596,90.8 99.296,93.4C100.896,96.1 101.696,99.2 101.596,102.3C101.596,106.7 100.596,110.1 98.496,112.6C96.296,115.1 93.496,117 90.296,117.9C86.596,119.1 82.696,119.7 78.796,119.7L73.496,119.7C72.296,119.7 70.996,119.6 69.596,119.5L69.596,85.9Z" style="fill:white;"/>
</svg>
