<?xml version="1.0" encoding="UTF-8" standalone="no"?>
<!DOCTYPE svg PUBLIC "-//W3C//DTD SVG 1.1//EN" "http://www.w3.org/Graphics/SVG/1.1/DTD/svg11.dtd">
<svg width="100%" height="100%" viewBox="0 0 128 128" version="1.1" xmlns="http://www.w3.org/2000/svg" xmlns:xlink="http://www.w3.org/1999/xlink" xml:space="preserve" xmlns:serif="http://www.serif.com/" style="fill-rule:evenodd;clip-rule:evenodd;stroke-linejoin:round;stroke-miterlimit:2;">
    <path d="M124.912,19.358C123.95,18.159 122.49,17.5 120.801,17.5L28.191,17.5C24.794,17.5 21.526,20.142 20.747,23.515L2.162,104.022C1.766,105.733 2.104,107.416 3.088,108.641C4.051,109.84 5.511,110.499 7.199,110.499L7.199,110.5L99.81,110.5C103.206,110.5 106.475,107.857 107.253,104.484L125.839,23.976C126.234,22.265 125.896,20.581 124.912,19.358ZM26.323,96.528C24.58,94.131 25,90.855 27.263,89.21L64.642,62.143L64.642,61.587L41.157,36.603C39.241,34.565 39.441,31.27 41.602,29.242C43.764,27.215 47.068,27.223 48.984,29.261L77.164,59.24C78.764,60.942 78.882,63.519 77.621,65.504C77.237,66.278 76.439,67.132 75.028,68.122L33.578,97.891C31.315,99.535 28.066,98.925 26.323,96.528ZM85.866,97.066L63.532,97.066C60.935,97.066 58.83,94.984 58.83,92.416C58.83,89.848 60.935,87.766 63.532,87.766L85.865,87.766C88.462,87.766 90.567,89.848 90.567,92.416C90.567,94.984 88.463,97.066 85.866,97.066Z" style="fill:white;"/>
</svg>
