<?xml version="1.0" encoding="UTF-8" standalone="no"?>
<!DOCTYPE svg PUBLIC "-//W3C//DTD SVG 1.1//EN" "http://www.w3.org/Graphics/SVG/1.1/DTD/svg11.dtd">
<svg width="100%" height="100%" viewBox="0 0 240 240" version="1.1" xmlns="http://www.w3.org/2000/svg" xmlns:xlink="http://www.w3.org/1999/xlink" xml:space="preserve" xmlns:serif="http://www.serif.com/" style="fill-rule:evenodd;clip-rule:evenodd;stroke-linejoin:round;stroke-miterlimit:2;">
    <rect x="0" y="0" width="240" height="240" style="fill:rgb(0,0,91);fill-rule:nonzero;"/>
    <g transform="matrix(1,0,0,1,-6.1,0)">
        <g transform="matrix(1,0,0,1,0,7.64366)">
            <path d="M57,164L57,61C57,60.3 57.3,59.9 58,59.9C59.7,59.9 61.3,59.9 63.6,59.8C66,59.7 68.5,59.7 71.2,59.6C73.9,59.5 76.8,59.5 79.9,59.4C83,59.3 86,59.3 89,59.3C97.2,59.3 104,60.3 109.6,62.4C114.6,64.1 119.2,66.9 123,70.6C126.2,73.8 128.7,77.7 130.3,82C131.8,86.2 132.6,90.5 132.6,95C132.6,103.6 130.6,110.7 126.6,116.3C122.6,121.9 117,126.1 110.5,128.5C103.7,131 96.2,131.9 88,131.9C85.6,131.9 84,131.9 83,131.8C82,131.7 80.6,131.7 78.7,131.7L78.7,163.8C78.8,164.5 78.3,165.1 77.6,165.2L58.2,165.2C57.4,165.2 57,164.8 57,163.9L57,164ZM78.8,79.3L78.8,112.9C80.2,113 81.5,113.1 82.7,113.1L88,113.1C91.9,113.1 95.8,112.5 99.5,111.3C102.7,110.4 105.5,108.5 107.7,106C109.8,103.5 110.8,100.1 110.8,95.7C110.9,92.6 110.1,89.5 108.5,86.8C106.8,84.2 104.4,82.2 101.5,81.1C97.8,79.6 93.8,79 89.7,79.1C87.1,79.1 84.8,79.1 82.9,79.2C80.9,79.1 79.5,79.2 78.8,79.3Z" style="fill:rgb(153,153,255);fill-rule:nonzero;"/>
        </g>
        <g transform="matrix(1,0,0,1,0,7.64366)">
            <path d="M147,85.2L164.5,85.2C165.5,85.2 166.3,85.9 166.6,86.8C166.9,87.6 167.1,88.4 167.2,89.3C167.4,90.3 167.6,91.4 167.7,92.4C167.8,93.5 167.9,94.7 167.9,96C170.9,92.5 174.5,89.6 178.6,87.4C183.2,84.8 188.5,83.5 193.8,83.5C194.5,83.4 195.1,83.9 195.2,84.6L195.2,104.5C195.2,105.3 194.7,105.6 193.6,105.6C190,105.5 186.3,105.8 182.8,106.6C179.9,107.2 177.1,108.1 174.4,109.3C172.5,110.2 170.7,111.4 169.3,113L169.3,164C169.3,165 168.9,165.4 168,165.4L148.3,165.4C147.5,165.5 146.8,165 146.7,164.2L146.7,108.4C146.7,106 146.7,103.5 146.6,100.9C146.5,98.3 146.5,95.7 146.4,93.1C146.4,90.8 146.2,88.6 146,86.3C145.9,85.8 146.2,85.3 146.7,85.2C146.7,85.1 146.9,85.1 147,85.2Z" style="fill:rgb(153,153,255);fill-rule:nonzero;"/>
        </g>
    </g>
</svg>
