<?xml version="1.0" encoding="UTF-8" standalone="no"?>
<!DOCTYPE svg PUBLIC "-//W3C//DTD SVG 1.1//EN" "http://www.w3.org/Graphics/SVG/1.1/DTD/svg11.dtd">
<svg width="100%" height="100%" viewBox="0 0 240 240" version="1.1" xmlns="http://www.w3.org/2000/svg" xmlns:xlink="http://www.w3.org/1999/xlink" xml:space="preserve" xmlns:serif="http://www.serif.com/" style="fill-rule:evenodd;clip-rule:evenodd;stroke-linejoin:round;stroke-miterlimit:2;">
    <path d="M0,0L240,0L240,240L0,240L0,0ZM50.9,171.544C50.9,172.444 51.3,172.844 52.1,172.844L71.5,172.844C72.2,172.744 72.7,172.144 72.6,171.444L72.6,139.344C74.5,139.344 75.9,139.344 76.9,139.444C77.9,139.544 79.5,139.544 81.9,139.544C90.1,139.544 97.6,138.644 104.4,136.144C110.9,133.744 116.5,129.544 120.5,123.944C124.5,118.344 126.5,111.244 126.5,102.644C126.5,98.144 125.7,93.844 124.2,89.644C122.6,85.344 120.1,81.444 116.9,78.244C113.1,74.544 108.5,71.744 103.5,70.044C97.9,67.944 91.1,66.944 82.9,66.944C79.9,66.944 76.9,66.944 73.8,67.044C70.7,67.144 67.8,67.144 65.1,67.244C62.4,67.344 59.9,67.344 57.5,67.444C55.2,67.544 53.6,67.544 51.9,67.544C51.2,67.544 50.9,67.944 50.9,68.644L50.9,171.544ZM72.7,86.944C73.4,86.844 74.8,86.744 76.8,86.844C78.7,86.744 81,86.744 83.6,86.744C87.7,86.644 91.7,87.244 95.4,88.744C98.3,89.844 100.7,91.844 102.4,94.444C104,97.144 104.8,100.244 104.7,103.344C104.7,107.744 103.7,111.144 101.6,113.644C99.4,116.144 96.6,118.044 93.4,118.944C89.7,120.144 85.8,120.744 81.9,120.744L76.6,120.744C75.4,120.744 74.1,120.644 72.7,120.544L72.7,86.944ZM140.9,92.844C140.8,92.744 140.6,92.744 140.6,92.844C140.1,92.944 139.8,93.444 139.9,93.944C140.1,96.244 140.3,98.444 140.3,100.744C140.4,103.344 140.4,105.944 140.5,108.544C140.6,111.144 140.6,113.644 140.6,116.044L140.6,171.844C140.7,172.644 141.4,173.144 142.2,173.044L161.9,173.044C162.8,173.044 163.2,172.644 163.2,171.644L163.2,120.644C164.6,119.044 166.4,117.844 168.3,116.944C171,115.744 173.8,114.844 176.7,114.244C180.2,113.444 183.9,113.144 187.5,113.244C188.6,113.244 189.1,112.944 189.1,112.144L189.1,92.244C189,91.544 188.4,91.044 187.7,91.144C182.4,91.144 177.1,92.444 172.5,95.044C168.4,97.244 164.8,100.144 161.8,103.644C161.8,102.344 161.7,101.144 161.6,100.044C161.5,99.044 161.3,97.944 161.1,96.944C161,96.044 160.8,95.244 160.5,94.444C160.2,93.544 159.4,92.844 158.4,92.844L140.9,92.844Z" style="fill:white;"/>
</svg>
