<?xml version="1.0" encoding="UTF-8" standalone="no"?>
<!DOCTYPE svg PUBLIC "-//W3C//DTD SVG 1.1//EN" "http://www.w3.org/Graphics/SVG/1.1/DTD/svg11.dtd">
<svg width="100%" height="100%" viewBox="0 0 128 128" version="1.1" xmlns="http://www.w3.org/2000/svg" xmlns:xlink="http://www.w3.org/1999/xlink" xml:space="preserve" xmlns:serif="http://www.serif.com/" style="fill-rule:evenodd;clip-rule:evenodd;stroke-linejoin:round;stroke-miterlimit:2;">
    <path d="M64.125,0.51C99.229,0.517 128.045,29.133 128,63.951C127.955,99.293 99.258,127.515 63.392,127.49C28.325,127.466 -0.025,98.818 0,63.434C0.023,28.834 28.898,0.503 64.125,0.51ZM44.72,22.793C45.523,26.753 44.745,30.448 43.553,34.082C42.73,36.597 41.591,39.022 40.911,41.574C39.789,45.777 38.52,50.004 38.052,54.3C37.381,60.481 39.81,65.925 43.966,71.34L24.86,67.318C24.893,67.92 24.86,68.148 24.925,68.342C26.736,73.662 29.923,78.144 33.495,82.372C33.872,82.818 34.732,83.046 35.372,83.046C54.422,83.084 73.473,83.08 92.524,83.055C93.114,83.055 93.905,82.945 94.265,82.565C98.349,78.271 101.47,73.38 103.425,67.223L83.197,71.185C84.533,68.567 86.052,66.269 86.93,63.742C89.924,55.099 88.682,46.744 84.385,38.862C80.936,32.538 77.754,26.242 79.475,18.619C75.833,22.219 74.432,26.798 73.543,31.517C72.671,36.167 72.154,40.881 71.478,45.6C71.38,45.457 71.258,45.35 71.236,45.227C71.151,44.734 71.092,44.236 71.06,43.737C70.647,36.011 69.14,28.567 65.954,21.457C64.081,17.275 62.013,12.995 63.946,8.001C62.639,8.694 61.456,9.378 60.608,10.357C58.081,13.277 57.035,16.785 56.766,20.626C56.535,23.908 56.22,27.205 55.61,30.432C54.97,33.824 53.96,37.146 51.678,40.263C50.76,33.607 50.658,27.019 44.722,22.793L44.72,22.793ZM93.842,88.88L34.088,88.88L34.088,99.26L93.842,99.26L93.842,88.88ZM45.938,104.626C45.889,113.268 54.691,119.707 65.571,119.24C74.591,118.851 82.57,111.756 81.886,104.626L45.938,104.626Z" style="fill:white;fill-rule:nonzero;"/>
</svg>
