<?xml version="1.0" encoding="UTF-8" standalone="no"?>
<!DOCTYPE svg PUBLIC "-//W3C//DTD SVG 1.1//EN" "http://www.w3.org/Graphics/SVG/1.1/DTD/svg11.dtd">
<svg width="100%" height="100%" viewBox="0 0 128 128" version="1.1" xmlns="http://www.w3.org/2000/svg" xmlns:xlink="http://www.w3.org/1999/xlink" xml:space="preserve" xmlns:serif="http://www.serif.com/" style="fill-rule:evenodd;clip-rule:evenodd;stroke-linejoin:round;stroke-miterlimit:2;">
    <path d="M122.281,48.811C120.183,40.363 116.178,34 107.682,34L97,34L97,46.981C97,57.031 88.206,65 78.489,65L49.33,65C41.342,65 35,72.326 35,80.326L35,108.126C35,116.036 41.745,120.69 49.462,122.96C58.704,125.677 67.456,126.168 78.513,122.96C85.862,120.831 93,116.549 93,108.126L93,97L64,97L64,93L107.682,93C116.166,93 119.329,87.224 122.281,78.34C125.328,69.195 125.197,60.541 122.281,48.811ZM80.326,104.417C83.353,104.417 85.805,106.896 85.805,109.964C85.805,113.04 83.354,115.543 80.326,115.543C77.311,115.543 74.848,113.041 74.848,109.964C74.848,106.896 77.311,104.417 80.326,104.417Z" style="fill:rgb(255,216,69);fill-rule:nonzero;"/>
    <path d="M49.33,62L78.489,62C86.606,62 93,55.132 93,46.981L93,19.183C93,11.271 86.368,5.327 78.445,4.007C73.431,3.172 68.25,2.792 63.258,2.816C58.268,2.839 53.646,3.264 49.453,4.007C37.098,6.188 35,10.758 35,19.183L35,30L64,30L64,34L23.776,34C15.292,34 7.862,39.108 5.539,48.811C2.858,59.931 2.739,66.73 5.539,78.341C7.614,86.983 12.569,93 21.054,93L31,93L31,79.952C31,70.315 39.428,62 49.33,62ZM47.492,22.89C44.466,22.89 42.014,20.411 42.014,17.345C42.014,14.266 44.465,11.764 47.492,11.764C50.507,11.764 52.971,14.266 52.971,17.345C52.97,20.411 50.506,22.89 47.492,22.89Z" style="fill:rgb(52,122,181);fill-rule:nonzero;"/>
</svg>
