<?xml version="1.0" encoding="UTF-8" standalone="no"?>
<!DOCTYPE svg PUBLIC "-//W3C//DTD SVG 1.1//EN" "http://www.w3.org/Graphics/SVG/1.1/DTD/svg11.dtd">
<svg width="100%" height="100%" viewBox="0 0 128 128" version="1.1" xmlns="http://www.w3.org/2000/svg" xmlns:xlink="http://www.w3.org/1999/xlink" xml:space="preserve" xmlns:serif="http://www.serif.com/" style="fill-rule:evenodd;clip-rule:evenodd;stroke-linejoin:round;stroke-miterlimit:2;">
    <path d="M99.04,50.315C95.394,49.167 93.512,49.554 89.689,49.135C83.779,48.49 81.424,46.176 80.425,40.222C79.866,36.898 80.526,32.031 79.099,29.018C76.37,23.272 69.984,20.695 63.569,22.166C58.152,23.41 53.645,28.832 53.395,34.398C53.11,40.753 56.725,46.176 62.932,48.048C65.882,48.938 69.015,49.386 72.095,49.613C77.744,50.026 78.178,53.171 79.705,55.76C80.669,57.392 81.602,59 81.602,63.867C81.602,68.734 80.663,70.341 79.706,71.973C78.178,74.556 76.293,76.248 70.644,76.666C67.564,76.894 64.424,77.342 61.482,78.233C55.274,80.11 51.659,85.526 51.944,91.882C52.194,97.448 56.701,102.87 62.118,104.114C68.533,105.59 74.919,103.008 77.648,97.262C79.081,94.249 79.866,90.835 80.425,87.512C81.43,81.557 83.785,79.243 89.689,78.597C93.512,78.179 97.469,78.597 101.052,76.559C104.837,73.789 108.22,69.629 108.22,63.867C108.22,58.103 104.575,52.061 99.04,50.315ZM38.4,77.373C30.95,77.373 24.872,71.275 24.872,63.798C24.872,56.322 30.949,50.224 38.399,50.224C45.849,50.224 51.927,56.322 51.927,63.798C51.927,71.268 45.844,77.373 38.399,77.373L38.4,77.373ZM13.48,104.96C6.04,104.942 -0.018,98.82 0,91.337C0.018,83.867 6.119,77.787 13.575,77.811C21.019,77.829 27.078,83.951 27.055,91.433C27.037,98.897 20.935,104.978 13.48,104.96ZM113.992,104.96C106.53,105.001 100.406,98.945 100.363,91.487C100.322,83.999 106.357,77.853 113.789,77.811C121.251,77.769 127.376,83.825 127.418,91.283C127.459,98.765 121.424,104.918 113.992,104.96Z" style="fill:white;fill-rule:nonzero;"/>
</svg>
