<?xml version="1.0" encoding="UTF-8" standalone="no"?>
<!DOCTYPE svg PUBLIC "-//W3C//DTD SVG 1.1//EN" "http://www.w3.org/Graphics/SVG/1.1/DTD/svg11.dtd">
<svg width="100%" height="100%" viewBox="0 0 52 52" version="1.1" xmlns="http://www.w3.org/2000/svg" xmlns:xlink="http://www.w3.org/1999/xlink" xml:space="preserve" xmlns:serif="http://www.serif.com/" style="fill-rule:evenodd;clip-rule:evenodd;stroke-linecap:round;stroke-linejoin:round;">
    <g transform="matrix(1.245565,0,0,1.245565,4.830164,-6.97519)">
        <path d="M30.657,16.86C30.359,14.985 27.81,13.594 24.16,13.085C24.378,9.278 23.558,6.419 21.838,5.752C21.443,5.595 21.005,5.563 20.545,5.641L20.544,5.635C19.013,5.896 17.188,7.37 15.473,9.678C13.135,8.073 10.952,7.296 9.421,7.557L9.422,7.563C8.954,7.643 8.547,7.819 8.215,8.101C6.798,9.303 6.911,12.277 8.3,15.798C5.012,17.497 3.038,19.654 3.335,21.524C3.532,22.762 4.709,23.789 6.537,24.49L6.561,24.394C6.66,23.99 6.819,23.618 7.027,23.287C5.61,22.75 4.685,22.026 4.571,21.313C4.427,20.407 5.52,19.041 7.354,17.838C7.799,17.543 8.292,17.264 8.804,16.992C9.301,18.069 9.906,19.175 10.616,20.293C10.504,20.742 10.403,21.185 10.314,21.622C10.505,21.639 10.698,21.672 10.89,21.723L11.48,21.878C11.503,21.884 11.525,21.89 11.548,21.896C11.559,21.84 11.57,21.785 11.582,21.729C11.637,21.806 11.692,21.883 11.748,21.96C13.224,22.477 14.185,23.923 14.168,25.495C14.349,25.487 14.532,25.478 14.716,25.467C15.049,25.807 15.383,26.133 15.718,26.444L16.901,25.784C16.731,25.631 16.561,25.474 16.39,25.312C16.895,25.25 17.41,25.18 17.928,25.091C18.032,25.073 18.136,25.055 18.24,25.036L23.078,22.336C22.668,22.497 22.246,22.649 21.813,22.792C22.015,22.301 22.215,21.799 22.397,21.287C22.58,20.782 22.745,20.274 22.9,19.773C23.303,20.459 23.665,21.151 23.983,21.831L25.097,21.209C24.616,20.19 24.04,19.147 23.371,18.092C23.692,16.804 23.918,15.563 24.052,14.384C24.631,14.469 25.186,14.576 25.71,14.706C27.82,15.241 29.277,16.166 29.421,17.072C29.559,17.979 28.466,19.345 26.633,20.547C26.555,20.599 26.475,20.65 26.394,20.701C27.052,20.583 27.722,20.661 28.328,20.913C29.98,19.591 30.863,18.156 30.657,16.86ZM16.501,10.427C18.036,8.372 19.585,7.124 20.743,6.923L20.744,6.929C21,6.885 21.215,6.902 21.403,6.97C22.232,7.291 22.833,8.949 22.927,11.197C22.952,11.75 22.943,12.339 22.913,12.942C21.777,12.852 20.552,12.842 19.276,12.917C18.355,11.978 17.421,11.141 16.501,10.427ZM9.625,8.844C10.778,8.647 12.639,9.308 14.731,10.735C14.086,11.716 13.46,12.813 12.889,14.007C11.652,14.361 10.494,14.777 9.448,15.246C9.228,14.691 9.044,14.148 8.892,13.622C8.28,11.463 8.33,9.693 9.01,9.109C9.16,8.977 9.37,8.894 9.626,8.85L9.625,8.844ZM22.794,14.249C22.707,15.028 22.572,15.84 22.405,16.657C22.103,16.234 21.79,15.813 21.455,15.396C21.126,14.978 20.781,14.575 20.439,14.183C21.249,14.169 22.036,14.189 22.794,14.249ZM21.221,20.83C20.91,21.683 20.582,22.498 20.229,23.264C19.411,23.48 18.577,23.665 17.73,23.809C16.889,23.953 16.042,24.056 15.207,24.127C14.635,23.519 14.068,22.863 13.51,22.164C12.967,21.48 12.46,20.778 11.987,20.065C12.209,19.233 12.476,18.393 12.774,17.566C13.084,16.712 13.412,15.898 13.765,15.132C14.583,14.915 15.418,14.731 16.264,14.587C17.105,14.443 17.952,14.34 18.788,14.269C19.359,14.877 19.927,15.533 20.484,16.232C21.027,16.916 21.534,17.617 22.007,18.331C21.78,19.164 21.518,20.003 21.221,20.83ZM15.755,11.491C16.361,11.956 16.977,12.486 17.597,13.073C17.092,13.136 16.577,13.206 16.059,13.294C15.535,13.384 15.019,13.483 14.517,13.599C14.911,12.838 15.331,12.132 15.755,11.491ZM12.174,15.593C11.972,16.084 11.771,16.587 11.589,17.098C11.407,17.603 11.241,18.106 11.086,18.607C10.662,17.884 10.283,17.155 9.952,16.441C10.653,16.137 11.397,15.85 12.174,15.593Z" style="fill:white;"/>
    </g>
    <g transform="matrix(1.245565,0,0,1.245565,4.830164,-6.97519)">
        <path d="M28.593,23.77C28.101,22.887 27.011,22.584 26.159,23.094L11.196,32.047C10.762,32.31 10.22,31.905 10.34,31.399L11.716,25.565C11.949,24.575 11.364,23.576 10.408,23.334C9.453,23.092 8.489,23.698 8.255,24.689C7.681,27.121 4.064,36.597 5.144,38.537L9.027,45.506C9.304,46.004 9.79,46.34 10.344,46.371C11.963,46.462 15.512,46.438 18.32,44.834L18.321,44.835L24.491,41.143C25.343,40.634 25.635,39.505 25.143,38.622C24.651,37.739 23.562,37.437 22.71,37.946L23.481,37.485C24.333,36.975 24.625,35.846 24.133,34.963C23.642,34.08 22.552,33.778 21.7,34.288L22.471,33.826C23.323,33.316 23.615,32.188 23.123,31.305C22.631,30.422 21.542,30.119 20.69,30.629L27.941,26.291C28.793,25.782 29.084,24.652 28.593,23.77Z" style="fill:none;fill-rule:nonzero;stroke:white;stroke-width:1.77px;"/>
    </g>
</svg>
