<?xml version="1.0" encoding="UTF-8" standalone="no"?>
<!DOCTYPE svg PUBLIC "-//W3C//DTD SVG 1.1//EN" "http://www.w3.org/Graphics/SVG/1.1/DTD/svg11.dtd">
<svg width="100%" height="100%" viewBox="0 0 128 128" version="1.1" xmlns="http://www.w3.org/2000/svg" xmlns:xlink="http://www.w3.org/1999/xlink" xml:space="preserve" xmlns:serif="http://www.serif.com/" style="fill-rule:evenodd;clip-rule:evenodd;stroke-linejoin:round;stroke-miterlimit:2;">
    <path d="M62.96,0.242C62.728,0.377 61.757,1.77 60.8,3.339C58.4,7.279 58.374,7.281 55.15,3.889C53.052,1.681 52.545,1.277 51.87,1.282C51.43,1.284 50.875,1.434 50.635,1.614C50.395,1.794 49.719,3.226 49.131,4.797C47.785,8.397 47.721,8.512 46.975,8.657C46.515,8.743 45.632,8.25 43.512,6.728C41.947,5.603 40.412,4.683 40.101,4.683C38.81,4.683 38.446,5.389 37.831,9.083C37.051,13.78 37.077,13.764 32.843,11.841C31.133,11.065 29.513,10.431 29.24,10.431C28.966,10.431 28.448,10.724 28.09,11.083C27.438,11.735 27.437,11.738 27.615,15.329L27.793,18.924L27.113,19.288C26.511,19.61 26.096,19.571 23.429,18.94C19.949,18.118 19.213,18.14 18.509,19.09L17.993,19.783L18.685,22.747C19.065,24.377 19.43,25.947 19.499,26.234C19.566,26.521 19.449,26.98 19.239,27.254C18.891,27.702 18.522,27.744 15.299,27.694C9.847,27.608 9.538,28.076 11.789,32.994C12.507,34.554 13.094,35.974 13.094,36.144C13.094,37.042 12.377,37.368 9.3,37.871C7.578,38.151 6.082,38.381 5.974,38.381C5.867,38.381 5.544,38.616 5.257,38.903C4.32,39.839 4.586,40.719 6.71,43.717C9.356,47.452 9.352,47.467 4.98,49.138C0.009,51.04 -0.092,51.508 3.693,55.098C7.218,58.442 7.223,58.393 3.232,60.902C0.208,62.8 0.162,62.846 0.085,63.876C-0.008,65.129 0.014,65.151 3.623,67.356C7.193,69.536 7.193,69.602 3.69,72.916C-0.078,76.48 0.038,77 5.013,78.877C9.36,80.517 9.366,80.537 6.715,84.271C5.213,86.388 4.734,87.271 4.734,87.924C4.734,89.147 5.371,89.459 9.174,90.098C12.38,90.638 13.094,90.955 13.094,91.839C13.094,92.021 12.506,93.451 11.787,95.016C9.551,99.886 9.806,100.291 15.097,100.291C20.027,100.291 19.896,100.141 18.834,104.585C18.034,107.935 18.021,108.577 18.746,109.3C19.3,109.856 20.346,109.794 23.616,109.011C26.115,108.415 26.553,108.374 27.132,108.683L27.792,109.037L27.615,112.631C27.437,116.224 27.438,116.226 28.09,116.879C28.448,117.239 28.974,117.531 29.255,117.531C29.537,117.531 31.158,116.901 32.859,116.127C37.079,114.211 37.053,114.195 37.832,118.877C38.449,122.588 38.809,123.277 40.126,123.277C40.453,123.277 41.956,122.397 43.466,121.319C46.12,119.426 46.808,119.129 47.515,119.579C47.697,119.694 48.405,121.249 49.087,123.034C50.09,125.659 50.457,126.344 51.016,126.61C52.078,127.12 52.736,126.71 55.234,123.99C58.25,120.704 58.374,120.72 60.836,124.71C63.556,129.116 64.26,129.106 67.048,124.621C69.45,120.757 69.422,120.759 72.669,124.151C74.826,126.401 75.285,126.761 76.012,126.761C76.476,126.761 77.031,126.586 77.242,126.373C77.456,126.16 78.162,124.587 78.81,122.877C79.459,121.167 80.131,119.677 80.305,119.567C80.992,119.131 81.703,119.437 84.353,121.319C85.913,122.427 87.381,123.279 87.73,123.279C89.026,123.279 89.494,122.359 90.032,118.744C90.492,115.662 90.586,115.366 91.192,115.059C91.788,114.757 92.146,114.859 94.942,116.129C96.643,116.899 98.265,117.531 98.546,117.531C98.828,117.531 99.362,117.229 99.73,116.859L100.402,116.189L100.218,112.741C100.041,109.451 100.058,109.273 100.582,108.798C101.122,108.31 101.178,108.312 104.197,109.002C107.853,109.837 108.535,109.859 109.222,109.172C109.893,108.502 109.886,108.354 108.968,104.482C107.938,100.136 107.8,100.292 112.748,100.292C116.122,100.292 116.498,100.243 116.928,99.769C117.646,98.976 117.475,98.067 116.032,94.99C115.303,93.44 114.712,92.03 114.717,91.855C114.741,90.941 115.46,90.628 118.782,90.088C120.815,89.759 122.335,89.378 122.611,89.128C123.534,88.295 123.195,87.21 121.088,84.255C118.446,80.552 118.458,80.517 122.687,78.958C127.751,77.092 127.896,76.47 124.106,72.868C120.596,69.533 120.594,69.551 124.439,67.191C129.087,64.338 129.094,63.695 124.521,60.856C120.588,58.416 120.591,58.45 124.116,55.103C127.896,51.51 127.794,51.04 122.821,49.138C118.433,47.459 118.419,47.418 121.086,43.758C122.674,41.578 123.068,40.855 123.068,40.108C123.068,38.802 122.482,38.51 118.632,37.888C115.416,37.368 114.708,37.053 114.708,36.138C114.708,35.964 115.296,34.564 116.015,33.025C117.421,30.012 117.619,28.805 116.823,28.085C116.395,27.698 115.823,27.642 112.756,27.693C109.548,27.747 109.138,27.701 108.693,27.254C108.207,26.766 108.213,26.697 108.971,23.529C109.902,19.649 109.906,19.554 109.141,18.835C108.364,18.105 107.879,18.117 104.315,18.956C101.718,19.568 101.288,19.609 100.698,19.293L100.028,18.933L100.213,15.351L100.399,11.771L99.729,11.101C99.36,10.731 98.838,10.431 98.566,10.431C98.296,10.431 96.682,11.071 94.983,11.852C92.145,13.158 91.84,13.245 91.226,12.924C90.614,12.604 90.512,12.287 89.989,9.095C89.386,5.402 89.012,4.683 87.701,4.683C87.39,4.683 85.848,5.608 84.275,6.738C81.691,8.594 81.345,8.77 80.701,8.545C80.168,8.359 79.858,7.955 79.48,6.946C79.2,6.204 78.663,4.774 78.286,3.769C77.524,1.741 77.099,1.287 75.958,1.287C75.321,1.287 74.745,1.745 72.678,3.891C69.428,7.266 69.417,7.265 67.028,3.346C66.073,1.78 65.075,0.382 64.81,0.24C64.213,-0.08 63.51,-0.08 62.96,0.242M65.92,12.04C68.75,14.054 67.246,18.79 63.776,18.79C60.408,18.79 58.712,14.733 61.116,12.43C62.474,11.13 64.42,10.971 65.921,12.04M62.363,24.547C64.218,25.252 64.979,24.829 69.215,20.747L72.397,17.677L73.744,17.857C77.969,18.417 86.371,22.107 91.199,25.523C95.635,28.663 101.531,35.057 104.044,39.453L104.581,40.395L102.201,45.759C100.891,48.709 99.819,51.432 99.819,51.812C99.819,52.69 100.395,54.079 100.949,54.538C101.183,54.733 103.406,55.803 105.888,56.916L110.398,58.941L110.576,60.089C110.806,61.584 110.836,65.256 110.628,66.299L110.465,67.115L107.89,67.115C104.903,67.115 105.134,66.848 104.972,70.511C104.854,73.167 104.212,74.635 102.752,75.586C100.375,77.137 96.448,76.856 94.782,75.016C94.527,74.732 94.03,73.311 93.677,71.856C92.647,67.602 91.264,65.216 88.484,62.891C87.606,62.158 86.889,61.473 86.889,61.369C86.889,61.267 87.854,60.454 89.034,59.566C93.332,56.326 95.804,52.554 96.074,48.819C96.593,41.693 90.916,35.052 82.472,32.899C80.47,32.389 79.615,32.373 54.848,32.373C40.791,32.373 29.288,32.281 29.288,32.169C29.288,31.906 32.413,28.874 34.253,27.353C39.307,23.175 45.871,19.888 52.67,18.133L55.02,17.523L58.36,20.91C60.199,22.773 62,24.41 62.363,24.547M20.3,46.34C21.839,47.348 22.47,49.88 21.56,51.402C20.155,53.758 16.594,53.857 15.187,51.58C13.141,48.271 17.082,44.231 20.3,46.34M110.972,46.47C114.998,48.924 111.878,54.963 107.568,53.056C104.691,51.783 104.598,47.85 107.413,46.416C108.587,45.816 109.936,45.837 110.973,46.469M32.163,61.5L32.163,76.52L18.883,76.52L18.357,74.235C17.321,69.735 16.885,65.079 17.146,61.266L17.328,58.587L21.893,56.54C24.757,55.257 26.599,54.278 26.836,53.915C27.874,52.331 27.776,51.2 26.318,47.982L25.638,46.48L32.161,46.48L32.161,61.5M70.39,47.132C73.233,47.872 74.735,49.377 74.739,51.487C74.741,53.037 73.974,54.007 72.069,54.867C70.721,55.477 70.507,55.492 62.006,55.575L53.32,55.659L53.32,46.739L61.102,46.739C67.18,46.739 69.214,46.825 70.39,47.132M67.456,68.686C68.866,69.078 70.532,70.302 71.386,71.574C72.284,72.911 72.809,74.65 74.053,80.41C75.103,85.28 75.78,86.87 77.673,88.942C80.018,91.508 79.473,91.408 91.187,91.408C96.797,91.408 101.385,91.498 101.385,91.608C101.385,91.805 97.522,96.372 97.355,96.372C97.307,96.372 95.289,95.95 92.871,95.433C86.042,93.975 85.796,94.146 84.229,101.465L83.221,106.167L82.311,106.615C80.793,107.365 75.858,108.907 73.301,109.435C69.073,110.305 64.473,110.597 60.43,110.256C53.537,109.671 44.41,106.997 44.053,105.456C43.978,105.129 43.518,103.013 43.035,100.752C42.55,98.492 41.961,96.348 41.725,95.988C40.595,94.264 39.407,94.158 34.178,95.314C32.198,95.754 30.47,96.11 30.338,96.11C30.09,96.11 26.415,91.861 26.415,91.575C26.415,91.485 35.143,91.381 45.811,91.345L65.206,91.279L65.276,84.389C65.326,79.524 65.258,77.392 65.046,77.139C64.812,76.855 63.561,76.781 59.035,76.781L53.32,76.781L53.32,68.421L59.917,68.422C63.543,68.424 66.937,68.542 67.456,68.686M37.57,100.02C40.654,101.9 39.175,106.824 35.527,106.82C31.787,106.82 30.4,101.94 33.587,99.994C34.642,99.351 36.495,99.364 37.57,100.02M94.05,100.226C95.562,101.334 96.065,103.639 95.129,105.176C92.669,109.21 86.517,106.003 88.572,101.757C89.582,99.672 92.267,98.92 94.05,100.227" style="fill:white;fill-rule:nonzero;"/>
</svg>
