<?xml version="1.0" encoding="UTF-8" standalone="no"?>
<!DOCTYPE svg PUBLIC "-//W3C//DTD SVG 1.1//EN" "http://www.w3.org/Graphics/SVG/1.1/DTD/svg11.dtd">
<svg width="100%" height="100%" viewBox="0 0 128 128" version="1.1" xmlns="http://www.w3.org/2000/svg" xmlns:xlink="http://www.w3.org/1999/xlink" xml:space="preserve" xmlns:serif="http://www.serif.com/" style="fill-rule:evenodd;clip-rule:evenodd;stroke-linejoin:round;stroke-miterlimit:2;">
    <path d="M116.452,6.643C114.659,10.944 112.364,15.017 109.615,18.779C97.574,6.745 81.229,-0.024 64.205,-0.026C28.984,-0.026 0,28.982 0,64.242C-0.001,81.83 7.213,98.67 19.945,110.804L22.313,112.904C33.883,122.659 48.537,128.017 63.671,128.026C97.158,128.026 125.308,101.786 127.692,68.343C129.443,51.972 124.641,31.266 116.452,6.643ZM29.067,111.17C28.024,112.456 26.454,113.204 24.798,113.204C21.78,113.204 19.311,110.72 19.311,107.702C19.311,104.685 21.796,102.201 24.798,102.201C26.048,102.201 27.283,102.634 28.25,103.435C30.601,105.335 30.968,108.819 29.067,111.17ZM116.186,91.932C100.343,113.054 66.506,105.935 44.81,106.952C44.81,106.952 40.958,107.186 37.089,107.819C37.089,107.819 38.539,107.202 40.424,106.485C55.65,101.184 62.854,100.15 72.109,95.399C89.536,86.53 106.763,67.125 110.349,46.936C103.712,66.358 83.599,83.046 65.272,89.831C52.715,94.466 30.034,98.967 30.034,98.967L29.117,98.483C13.675,90.965 13.207,57.506 41.274,46.703C53.565,41.968 65.322,44.569 78.597,41.401C92.772,38.034 109.165,27.397 115.835,13.527C123.306,35.717 132.295,70.459 116.185,91.932L116.186,91.932Z" style="fill:white;fill-rule:nonzero;"/>
</svg>
