<?xml version="1.0" encoding="UTF-8" standalone="no"?>
<!DOCTYPE svg PUBLIC "-//W3C//DTD SVG 1.1//EN" "http://www.w3.org/Graphics/SVG/1.1/DTD/svg11.dtd">
<svg width="100%" height="100%" viewBox="0 0 128 128" version="1.1" xmlns="http://www.w3.org/2000/svg" xmlns:xlink="http://www.w3.org/1999/xlink" xml:space="preserve" xmlns:serif="http://www.serif.com/" style="fill-rule:evenodd;clip-rule:evenodd;stroke-linejoin:round;stroke-miterlimit:2;">
    <path d="M128,0.618L128,24.517C120.038,27.692 99.89,19.753 102.236,12.263L105.881,0.618L128,0.618ZM110.184,24.488L102.574,57.101C104.022,58.884 106.577,59.49 108.774,58.608L118.336,27.138C115.622,26.593 112.874,25.671 110.308,24.542L110.184,24.487L110.184,24.488ZM100.837,58.686C94.308,65.501 98.636,75.418 88.964,81.021C100.865,83.482 108.777,69.261 109.1,60.987C106.147,61.929 102.859,61.085 100.837,58.686ZM92.037,74.886C83.384,79.895 71.317,90.528 70.235,92.545C68.626,95.538 72.743,107.003 79.269,104.073C86.113,100.839 97.634,91.359 100.387,80.888C97.033,83.094 92.976,84.251 88.487,83.322L82.452,82.078L87.784,78.987C89.894,77.764 91.171,76.417 92.037,74.885L92.037,74.886ZM96.497,93C95.408,94.346 94.249,95.634 93.024,96.858C88.752,101.133 84.038,104.421 80.274,106.2L80.252,106.209L80.233,106.218C77.995,107.223 75.554,106.991 73.739,105.983C71.924,104.976 70.629,103.393 69.66,101.698C68.727,100.066 68.077,98.288 67.736,96.439L67.708,96.279L29.427,127.382L74.644,127.382C85.974,116.427 100.007,103.532 96.497,93ZM58.732,68.07C63.946,62.356 86.989,42.297 91.245,46.62C95.115,50.551 92.992,59.217 83.765,69.399C76.456,77.46 67.247,82.887 62.46,79.094C58.485,75.95 55.692,71.404 58.732,68.07ZM87.049,69.208C86.545,69.807 86.031,70.396 85.506,70.977C81.698,75.177 77.416,78.717 73.211,80.801C71.108,81.843 69.011,82.533 66.923,82.661C64.837,82.789 62.701,82.282 61.003,80.939C58.793,79.191 56.844,77.07 55.794,74.564C55.419,73.664 55.205,72.704 55.161,71.73L0,117.37L0,127.382L25.697,127.382L67.543,93.385C67.626,92.701 67.836,92.039 68.163,91.433C68.525,90.759 68.885,90.378 69.389,89.826C69.893,89.274 70.519,88.647 71.254,87.943C72.725,86.533 74.637,84.83 76.789,83.033C80.025,80.33 83.78,77.422 87.375,75.028C87.585,73.083 87.474,71.117 87.049,69.208ZM32.875,61.272C39.372,53.373 48.113,46.283 58.382,40.077C65.185,35.967 70.655,44.404 64.776,52.863C58.686,60.886 50.396,67.79 43.64,72.526C39.104,75.706 29.916,64.87 32.875,61.272ZM61.246,60.606C55.964,66.169 50.061,70.9 44.992,74.453C43.038,75.823 40.597,75.591 38.7,74.775C36.802,73.959 35.128,72.596 33.703,71.018C32.277,69.44 31.11,67.652 30.451,65.773C30.159,64.942 29.965,64.027 29.955,63.109L0,87.272L0,114.315L55.923,68.046C56.206,67.479 56.567,66.954 56.993,66.485C57.998,65.384 59.539,63.862 61.403,62.14C61.383,61.618 61.332,61.103 61.246,60.606Z" style="fill:white;fill-rule:nonzero;"/>
</svg>
