<?xml version="1.0" encoding="UTF-8" standalone="no"?>
<!DOCTYPE svg PUBLIC "-//W3C//DTD SVG 1.1//EN" "http://www.w3.org/Graphics/SVG/1.1/DTD/svg11.dtd">
<svg width="100%" height="100%" viewBox="0 0 128 128" version="1.1" xmlns="http://www.w3.org/2000/svg" xmlns:xlink="http://www.w3.org/1999/xlink" xml:space="preserve" xmlns:serif="http://www.serif.com/" style="fill-rule:evenodd;clip-rule:evenodd;stroke-linejoin:round;stroke-miterlimit:2;">
    <g transform="matrix(1.267325,0,0,1.267325,-18.540212,-19.975345)">
        <path d="M16.219,15.762C15.607,15.773 15.11,16.279 15.11,16.891C15.11,16.982 15.121,17.073 15.143,17.161L39.537,115.903C39.661,116.406 40.115,116.762 40.633,116.762C40.925,116.762 41.206,116.649 41.416,116.447L114.802,45.857C115.023,45.644 115.149,45.35 115.149,45.043C115.149,44.541 114.814,44.097 114.332,43.958L16.55,15.806C16.442,15.775 16.331,15.76 16.219,15.762ZM17.803,18.516L111.827,45.586L41.261,113.463L17.803,18.516Z" style="fill:white;fill-rule:nonzero;"/>
        <path d="M65.137,29.84C64.837,29.834 64.546,29.947 64.33,30.155L27.654,65.46C27.433,65.673 27.308,65.966 27.308,66.273C27.308,66.775 27.643,67.219 28.125,67.358L76.984,81.44C77.086,81.469 77.191,81.484 77.297,81.484C77.916,81.484 78.426,80.975 78.426,80.355C78.426,80.264 78.415,80.173 78.393,80.085L66.21,30.698C66.088,30.204 65.646,29.85 65.137,29.84ZM64.486,33.14L75.734,78.73L30.63,65.73L64.486,33.14Z" style="fill:white;fill-rule:nonzero;"/>
        <path d="M46.914,47.313C46.302,47.324 45.805,47.83 45.805,48.442C45.805,48.533 45.816,48.624 45.838,48.712L51.892,73.243C52.016,73.746 52.47,74.102 52.988,74.102C53.281,74.102 53.562,73.989 53.772,73.786L71.994,56.223C72.215,56.01 72.339,55.717 72.339,55.41C72.339,54.908 72.005,54.464 71.522,54.325L47.245,47.357C47.137,47.326 47.026,47.311 46.914,47.313ZM48.497,50.064L69.019,55.954L53.614,70.8L48.497,50.064Z" style="fill:white;fill-rule:nonzero;"/>
        <path d="M40.902,22.809C40.602,22.803 40.311,22.917 40.095,23.125L21.873,40.687C21.652,40.9 21.528,41.193 21.528,41.5C21.528,42.002 21.862,42.446 22.345,42.585L46.618,49.554C46.719,49.583 46.824,49.598 46.93,49.598C47.549,49.598 48.059,49.088 48.059,48.469C48.059,48.378 48.048,48.287 48.026,48.198L41.975,23.668C41.854,23.173 41.412,22.819 40.902,22.808L40.902,22.809ZM40.252,26.109L45.366,46.845L24.849,40.955L40.252,26.108L40.252,26.109ZM89.453,36.793C89.153,36.787 88.863,36.901 88.647,37.109L70.423,54.67C70.202,54.883 70.077,55.177 70.077,55.484C70.077,55.986 70.412,56.431 70.895,56.569L95.169,63.537C95.27,63.566 95.375,63.581 95.481,63.581C96.1,63.581 96.61,63.071 96.61,62.452C96.61,62.361 96.599,62.27 96.577,62.181L90.527,37.651C90.405,37.156 89.963,36.802 89.453,36.792L89.453,36.793ZM88.803,40.093L93.917,60.83L73.4,54.94L88.803,40.094L88.803,40.093ZM52.944,71.864C52.667,71.875 52.404,71.987 52.204,72.179L33.982,89.742C33.761,89.955 33.637,90.248 33.637,90.555C33.637,91.057 33.971,91.501 34.454,91.64L58.732,98.608C58.833,98.637 58.938,98.652 59.043,98.652C59.662,98.652 60.172,98.142 60.172,97.523C60.172,97.432 60.161,97.341 60.139,97.253L54.084,72.722C53.956,72.204 53.477,71.843 52.944,71.864ZM52.362,75.164L57.48,95.901L36.958,90.011L52.362,75.165L52.362,75.164Z" style="fill:white;fill-rule:nonzero;"/>
    </g>
</svg>
