<?xml version="1.0" encoding="UTF-8" standalone="no"?>
<!DOCTYPE svg PUBLIC "-//W3C//DTD SVG 1.1//EN" "http://www.w3.org/Graphics/SVG/1.1/DTD/svg11.dtd">
<svg width="100%" height="100%" viewBox="0 0 128 128" version="1.1" xmlns="http://www.w3.org/2000/svg" xmlns:xlink="http://www.w3.org/1999/xlink" xml:space="preserve" xmlns:serif="http://www.serif.com/" style="fill-rule:evenodd;clip-rule:evenodd;stroke-linejoin:round;stroke-miterlimit:2;">
    <path d="M0,0L0,128L128,128L128,0L0,0ZM102.73,58.91C105.724,59.605 108.445,61.171 110.55,63.41C111.709,64.616 112.716,65.96 113.55,67.41C113.55,67.57 108.15,71.22 104.86,73.26C104.74,73.34 104.26,72.82 103.73,72.03C102.511,69.926 100.29,68.591 97.86,68.5C94.07,68.24 91.63,70.23 91.65,73.5C91.619,74.314 91.805,75.122 92.19,75.84C93.02,77.57 94.57,78.6 99.43,80.7C108.38,84.55 112.21,87.09 114.59,90.7C117.25,94.7 117.84,101.16 116.04,105.94C114.04,111.14 109.14,114.67 102.21,115.84C99.045,116.203 95.847,116.169 92.69,115.74C87.873,114.959 83.427,112.664 80,109.19C78.85,107.92 76.61,104.61 76.75,104.37C77.115,104.099 77.499,103.855 77.9,103.64L82.5,101L86.09,98.92L86.84,100.03C88.106,101.841 89.717,103.383 91.58,104.57C95.58,106.67 101.04,106.38 103.74,103.95C105.603,102.12 105.895,99.192 104.43,97.03C103.43,95.64 101.43,94.47 95.84,92.03C89.39,89.25 86.61,87.53 84.07,84.79C82.484,82.982 81.314,80.849 80.64,78.54C80.138,75.902 80.063,73.201 80.42,70.54C81.75,64.31 86.42,59.96 93.24,58.67C96.398,58.279 99.598,58.367 102.73,58.93L102.73,58.91ZM73.39,64.15L73.39,69.27L57.16,69.27L57.16,115.5L45.65,115.5L45.65,69.26L29.38,69.26L29.38,64.26C29.336,62.539 29.383,60.816 29.52,59.1C29.58,59.02 39.52,58.98 51.52,59L73.33,59L73.39,64.15Z" style="fill:white;fill-rule:nonzero;"/>
</svg>
