<?xml version="1.0" encoding="UTF-8" standalone="no"?>
<!DOCTYPE svg PUBLIC "-//W3C//DTD SVG 1.1//EN" "http://www.w3.org/Graphics/SVG/1.1/DTD/svg11.dtd">
<svg width="100%" height="100%" viewBox="0 0 68 68" version="1.1" xmlns="http://www.w3.org/2000/svg" xmlns:xlink="http://www.w3.org/1999/xlink" xml:space="preserve" xmlns:serif="http://www.serif.com/" style="fill-rule:evenodd;clip-rule:evenodd;stroke-linejoin:round;stroke-miterlimit:2;">
    <g id="Warstwa_2" transform="matrix(1,0,0,1,1.895,12.325)">
        <g id="Warstwa_16">
            <path d="M51.44,6.66L51.43,10.73L46.54,7.83L46.55,3.76L51.44,6.66Z" style="fill:rgb(216,91,22);fill-rule:nonzero;"/>
            <path d="M55.5,6.7L55.49,10.77L51.43,10.73L51.44,6.66L55.5,6.7Z" style="fill:rgb(216,91,22);fill-rule:nonzero;"/>
            <path d="M55.51,5.28L55.49,9.35L55.49,10.77L55.5,6.7L55.51,5.28Z" style="fill:white;fill-rule:nonzero;"/>
            <path d="M41.55,13.17L41.54,17.25L32.66,11.97L32.67,7.9L41.55,13.17Z" style="fill:rgb(216,91,22);fill-rule:nonzero;"/>
            <path d="M43.99,13.2L43.98,17.27L41.54,17.25L41.55,13.17L43.99,13.2Z" style="fill:rgb(216,91,22);fill-rule:nonzero;"/>
            <path d="M44.03,10.84L44.02,14.92L43.98,17.27L43.99,13.2L44.03,10.84Z" style="fill:white;fill-rule:nonzero;"/>
            <path d="M60.93,12.29L60.92,16.37L56.62,13.81L56.63,9.74L60.93,12.29Z" style="fill:rgb(216,91,22);fill-rule:nonzero;"/>
            <path d="M64.15,12.31L64.14,16.39L60.92,16.37L60.93,12.29L64.15,12.31Z" style="fill:rgb(216,91,22);fill-rule:nonzero;"/>
            <path d="M64.21,10.44L64.2,14.52L64.14,16.39L64.15,12.31L64.21,10.44Z" style="fill:white;fill-rule:nonzero;"/>
            <path d="M64.17,13.01L64.16,17.09L64.11,18.96L64.12,14.88L64.17,13.01Z" style="fill:white;fill-rule:nonzero;"/>
            <path d="M50.24,18.33L50.23,22.41L45.14,19.39L45.15,15.31L50.24,18.33Z" style="fill:rgb(216,91,22);fill-rule:nonzero;"/>
            <path d="M53.52,16.48L53.51,20.55L53.46,22.42L53.47,18.35L53.52,16.48Z" style="fill:white;fill-rule:nonzero;"/>
            <path d="M53.47,18.35L53.46,22.42L50.23,22.41L50.24,18.33L53.47,18.35Z" style="fill:rgb(216,91,22);fill-rule:nonzero;"/>
            <path d="M57.95,18.37L57.93,22.45L54.7,22.43L54.71,18.35L57.95,18.37Z" style="fill:rgb(216,91,22);fill-rule:nonzero;"/>
            <path d="M64.12,14.88L64.11,18.96L57.93,22.45L57.95,18.37L64.12,14.88Z" style="fill:rgb(207,79,25);fill-rule:nonzero;"/>
            <path d="M32.19,13.45L32.18,17.52L31.98,17.6L32,13.52L32.19,13.45Z" style="fill:white;fill-rule:nonzero;"/>
            <path d="M24.88,17.54L24.87,21.62L24.74,21.73L24.75,17.65L24.88,17.54Z" style="fill:white;fill-rule:nonzero;"/>
            <path d="M27.41,18.72L27.4,22.79L24.87,21.62L24.88,17.54L27.41,18.72Z" style="fill:white;fill-rule:nonzero;"/>
            <path d="M48.17,23.89L48.16,27.97L32.18,17.52L32.19,13.45L48.17,23.89Z" style="fill:rgb(212,212,213);fill-rule:nonzero;"/>
            <path d="M40.45,22.51L40.44,26.59L24.67,16.27L24.68,12.2L40.45,22.51Z" style="fill:rgb(212,212,213);fill-rule:nonzero;"/>
            <path d="M51.67,21.92L51.66,26L48.16,27.97L48.17,23.89L51.67,21.92Z" style="fill:rgb(156,155,155);fill-rule:nonzero;"/>
            <path d="M43.6,26.48L43.58,30.56L27.4,22.79L27.41,18.72L43.6,26.48Z" style="fill:rgb(212,212,213);fill-rule:nonzero;"/>
            <path d="M47.06,24.52L47.05,28.6L43.58,30.56L43.6,26.48L47.06,24.52Z" style="fill:rgb(156,155,155);fill-rule:nonzero;"/>
            <path d="M38.93,29.12L38.91,33.2L17.36,20.4L17.38,16.33L38.93,29.12Z" style="fill:rgb(212,212,213);fill-rule:nonzero;"/>
            <path d="M42.42,27.15L42.41,31.22L38.91,33.2L38.93,29.12L42.42,27.15Z" style="fill:rgb(156,155,155);fill-rule:nonzero;"/>
            <path d="M21.34,24.58L21.33,28.65L12.88,22.94L12.89,18.86L21.34,24.58Z" style="fill:rgb(212,212,213);fill-rule:nonzero;"/>
            <path d="M23.49,26.07L23.48,30.14L21.33,28.65L21.34,24.58L23.49,26.07Z" style="fill:rgb(212,212,213);fill-rule:nonzero;"/>
            <path d="M25,29.21L24.99,33.29L7.42,26.02L7.43,21.95L25,29.21Z" style="fill:rgb(212,212,213);fill-rule:nonzero;"/>
            <path d="M31.71,33.2L31.7,37.27L24.99,33.29L25,29.21L31.71,33.2Z" style="fill:rgb(212,212,213);fill-rule:nonzero;"/>
            <path d="M35.43,31.1L35.42,35.17L31.7,37.27L31.71,33.2L35.43,31.1Z" style="fill:rgb(156,155,155);fill-rule:nonzero;"/>
            <path d="M6,30C6.179,30.024 6.353,30.071 6.52,30.14C6.721,30.22 6.915,30.317 7.1,30.43L7.1,26.39C6.918,26.278 6.728,26.181 6.53,26.1L6.27,26L5.33,26C5.245,26.026 5.165,26.063 5.09,26.11L5,26.11C4.947,26.142 4.896,26.179 4.85,26.22L4.79,26.28L4.79,26.34C4.788,26.357 4.788,26.373 4.79,26.39L4.79,30.47C4.79,30.393 4.819,30.318 4.87,30.26C4.933,30.182 5.011,30.117 5.1,30.07C5.224,30.032 5.351,30.009 5.48,30C5.652,29.971 5.828,29.971 6,30Z" style="fill:rgb(212,212,213);fill-rule:nonzero;"/>
            <path d="M11.34,28.91L11.33,32.98L7.08,30.46L7.09,26.39L11.34,28.91Z" style="fill:rgb(212,212,213);fill-rule:nonzero;"/>
            <path d="M15.09,26.79L15.08,30.86L11.33,32.98L11.34,28.91L15.09,26.79Z" style="fill:rgb(156,155,155);fill-rule:nonzero;"/>
            <g>
                <path id="SVGID-2" d="M0,31.1L0,27C0,27.87 0.77,28.76 2.3,29.67L2.3,33.75C0.76,32.86 0,32 0,31.1Z" style="fill:rgb(212,212,213);fill-rule:nonzero;"/>
                <g>
                    <clipPath id="_clip1">
                        <path d="M0,31.1L0,27C0,27.87 0.77,28.76 2.3,29.67L2.3,33.75C0.76,32.86 0,32 0,31.1Z"/>
                    </clipPath>
                    <g clip-path="url(#_clip1)">
                        <g>
                            <path d="M2.31,29.69L2.31,33.77C0.76,32.86 0,32 0,31.1L0,27C0,27.87 0.77,28.76 2.3,29.67" style="fill:rgb(212,212,213);fill-rule:nonzero;"/>
                        </g>
                    </g>
                </g>
            </g>
            <path d="M15.77,32.58L15.76,36.65L12.87,34.93L12.88,30.86L15.77,32.58Z" style="fill:rgb(212,212,213);fill-rule:nonzero;"/>
            <path d="M16.8,32L16.78,36.07L15.76,36.65L15.77,32.58L16.8,32Z" style="fill:rgb(156,155,155);fill-rule:nonzero;"/>
            <path d="M21.23,34.63L21.21,38.7L16.78,36.07L16.8,32L21.23,34.63Z" style="fill:rgb(212,212,213);fill-rule:nonzero;"/>
            <path d="M21.23,34.63L21.23,38.7C21.8,39.04 22.08,39.34 22.08,39.6L22.08,35.52C22.08,35.26 21.8,35 21.23,34.63Z" style="fill:rgb(212,212,213);fill-rule:nonzero;"/>
            <path d="M23.19,35.69L23.18,39.77L23.06,39.84L23.07,35.76L23.19,35.69Z" style="fill:white;fill-rule:nonzero;"/>
            <path d="M25.42,36.75L25.41,40.83L23.18,39.77L23.19,35.69L25.42,36.75Z" style="fill:rgb(212,212,213);fill-rule:nonzero;"/>
            <path d="M28.73,34.88L28.71,38.96L25.41,40.83L25.42,36.75L28.73,34.88Z" style="fill:rgb(156,155,155);fill-rule:nonzero;"/>
            <path d="M15.45,37.5L15.44,41.57L2.3,33.77L2.31,29.69L15.45,37.5Z" style="fill:rgb(212,212,213);fill-rule:nonzero;"/>
            <path d="M24,37.64C23.946,37.774 23.871,37.898 23.78,38.01C23.694,38.104 23.6,38.191 23.5,38.27C23.401,38.36 23.294,38.441 23.18,38.51C23.097,38.572 23.01,38.629 22.92,38.68C22.686,38.817 22.438,38.927 22.18,39.01C21.947,39.092 21.705,39.149 21.46,39.18L21.37,39.18C21.11,39.2 20.85,39.2 20.59,39.18C20.305,39.177 20.021,39.15 19.74,39.1L19.64,39.1C19.343,39.048 19.049,38.978 18.76,38.89L18.44,38.79L17.76,38.55L17,38.3C16.88,38.24 16.76,38.2 16.63,38.13C16.26,37.94 15.87,37.73 15.47,37.5L15.47,41.57C15.87,41.81 16.26,42.02 16.63,42.21L17,42.37C17.238,42.492 17.481,42.603 17.73,42.7L17.78,42.7C17.99,42.79 18.2,42.85 18.41,42.92L18.73,43.03L19.34,43.18L21.55,43.18C21.747,43.149 21.941,43.102 22.13,43.04C22.385,42.949 22.632,42.838 22.87,42.71L22.99,42.64L23.13,42.54C23.24,42.46 23.36,42.38 23.45,42.3L23.53,42.24C23.599,42.175 23.662,42.105 23.72,42.03L23.85,41.83C23.881,41.779 23.907,41.725 23.93,41.67C23.953,41.615 23.969,41.558 23.98,41.5C23.99,41.44 23.99,41.38 23.98,41.32L23.98,37.24C24.014,37.371 24.02,37.507 24,37.64Z" style="fill:rgb(156,155,155);fill-rule:nonzero;"/>
            <path d="M46.55,3.76L46.62,0L55.51,5.28L55.5,6.7L51.44,6.66L46.55,3.76Z" style="fill:rgb(236,100,23);fill-rule:nonzero;"/>
            <path d="M44.03,10.84L43.99,13.2L41.55,13.17L32.67,7.9L39.15,7.95L44.03,10.84Z" style="fill:rgb(236,100,23);fill-rule:nonzero;"/>
            <path d="M56.63,9.74L56.7,7.41L59.11,7.42L64.21,10.44L64.15,12.31L60.93,12.29L56.63,9.74Z" style="fill:rgb(236,100,23);fill-rule:nonzero;"/>
            <path d="M49.23,13.93L53.52,16.48L53.47,18.35L50.24,18.33L45.15,15.31L45.19,13.91L49.23,13.93Z" style="fill:rgb(236,100,23);fill-rule:nonzero;"/>
            <path d="M54.77,16.48L60.94,13L64.17,13.01L64.12,14.88L57.95,18.37L54.71,18.35L54.77,16.48Z" style="fill:rgb(236,100,23);fill-rule:nonzero;"/>
            <path d="M30.12,9.13L51.67,21.92L48.17,23.89L32.19,13.45L32,13.52L47.06,24.52L43.6,26.48L27.41,18.72L24.88,17.54L24.75,17.65L27.07,18.91L42.42,27.15L38.93,29.12L17.38,16.33L22.78,13.27L40.29,22.6L40.45,22.51L24.68,12.2L30.12,9.13Z" style="fill:white;fill-rule:nonzero;"/>
            <path d="M16.64,16.74L28.72,27.11L35.43,31.1L31.71,33.2L25,29.21L7.43,21.95L11.14,19.85L23.33,26.16L23.49,26.07L21.34,24.58L12.89,18.86L16.64,16.74Z" style="fill:white;fill-rule:nonzero;"/>
            <path d="M2.17,24.39C3.521,23.62 5.045,23.204 6.6,23.18C8.286,23.194 9.935,23.679 11.36,24.58L15.09,26.79L11.34,28.91L7.09,26.39C6.524,25.943 5.757,25.836 5.09,26.11C4.56,26.4 4.7,26.8 5.52,27.28L19.68,35.69C20.253,36.163 21.045,36.279 21.73,35.99C22.35,35.64 22.19,35.19 21.25,34.63L16.79,32L15.79,32.57L12.9,30.86L17.54,28.23L28.75,34.88L25.44,36.75L23.21,35.69L23.09,35.76C23.649,36.05 24.026,36.603 24.09,37.23C24.09,37.77 23.7,38.23 22.92,38.71C21.08,39.75 18.6,39.347 15.48,37.5L2.31,29.69C0.71,28.74 -0.06,27.81 0,26.9C0.06,25.99 0.81,25.15 2.17,24.39Z" style="fill:white;fill-rule:nonzero;"/>
        </g>
    </g>
</svg>
